mononoki-Italic.ufo
<glyph name="exclam" format="1">
  <advance width="575"/>
  <unicode hex="0021"/>
  <outline>
    <contour>
      <point x="331" y="700" type="line" smooth="yes"/>
      <point x="315" y="700"/>
      <point x="305" y="691"/>
      <point x="302" y="675" type="curve" smooth="yes"/>
      <point x="248" y="230" type="line" smooth="yes"/>
      <point x="245" y="214"/>
      <point x="253" y="205"/>
      <point x="269" y="205" type="curve" smooth="yes"/>
      <point x="292" y="205" type="line" smooth="yes"/>
      <point x="308" y="205"/>
      <point x="318" y="214"/>
      <point x="322" y="230" type="curve" smooth="yes"/>
      <point x="407" y="675" type="line" smooth="yes"/>
      <point x="411" y="691"/>
      <point x="403" y="700"/>
      <point x="386" y="700" type="curve" smooth="yes"/>
    </contour>
    <contour>
      <point x="300" y="62" type="line" smooth="yes"/>
      <point x="303" y="78"/>
      <point x="296" y="87"/>
      <point x="279" y="87" type="curve" smooth="yes"/>
      <point x="244" y="87" type="line" smooth="yes"/>
      <point x="228" y="87"/>
      <point x="218" y="78"/>
      <point x="215" y="62" type="curve" smooth="yes"/>
      <point x="208" y="15" type="line" smooth="yes"/>
      <point x="205" y="-2"/>
      <point x="213" y="-10"/>
      <point x="229" y="-10" type="curve" smooth="yes"/>
      <point x="264" y="-10" type="line" smooth="yes"/>
      <point x="281" y="-10"/>
      <point x="290" y="-2"/>
      <point x="293" y="15" type="curve" smooth="yes"/>
    </contour>
  </outline>
</glyph>
<glyph name="quotedbl" format="2">
	<advance width="575"/>
	<unicode hex="0022"/>
	<outline>
		<contour>
			<point x="280" y="750" type="curve" smooth="yes"/>
			<point x="225" y="750" type="line" smooth="yes"/>
			<point x="208" y="750"/>
			<point x="199" y="741"/>
			<point x="196" y="725" type="curve" smooth="yes"/>
			<point x="164" y="437" type="line" smooth="yes"/>
			<point x="162" y="421"/>
			<point x="170" y="413"/>
			<point x="186" y="413" type="curve" smooth="yes"/>
			<point x="213" y="413" type="line" smooth="yes"/>
			<point x="229" y="413"/>
			<point x="239" y="421"/>
			<point x="243" y="437" type="curve" smooth="yes"/>
			<point x="300" y="725" type="line" smooth="yes"/>
			<point x="304" y="741"/>
			<point x="296" y="750"/>
		</contour>
		<contour>
			<point x="509" y="750" type="curve" smooth="yes"/>
			<point x="454" y="750" type="line" smooth="yes"/>
			<point x="437" y="750"/>
			<point x="427" y="741"/>
			<point x="425" y="725" type="curve" smooth="yes"/>
			<point x="393" y="437" type="line" smooth="yes"/>
			<point x="391" y="421"/>
			<point x="398" y="413"/>
			<point x="414" y="413" type="curve" smooth="yes"/>
			<point x="442" y="413" type="line" smooth="yes"/>
			<point x="458" y="413"/>
			<point x="468" y="421"/>
			<point x="471" y="437" type="curve" smooth="yes"/>
			<point x="529" y="725" type="line" smooth="yes"/>
			<point x="533" y="741"/>
			<point x="525" y="750"/>
		</contour>
	</outline>
</glyph>
<glyph name="numbersign" format="1">
  <advance width="575"/>
  <unicode hex="0023"/>
  <outline>
    <contour>
      <point x="436" y="270" type="line"/>
      <point x="461" y="424" type="line"/>
      <point x="527" y="424" type="line" smooth="yes"/>
      <point x="543" y="424"/>
      <point x="553" y="433"/>
      <point x="556" y="449" type="curve" smooth="yes"/>
      <point x="560" y="476" type="line" smooth="yes"/>
      <point x="562" y="492"/>
      <point x="555" y="501"/>
      <point x="539" y="501" type="curve" smooth="yes"/>
      <point x="473" y="501" type="line"/>
      <point x="500" y="675" type="line" smooth="yes"/>
      <point x="503" y="692"/>
      <point x="495" y="700"/>
      <point x="479" y="700" type="curve" smooth="yes"/>
      <point x="444" y="700" type="line" smooth="yes"/>
      <point x="427" y="700"/>
      <point x="418" y="691"/>
      <point x="415" y="675" type="curve" smooth="yes"/>
      <point x="388" y="501" type="line"/>
      <point x="268" y="501" type="line"/>
      <point x="295" y="675" type="line" smooth="yes"/>
      <point x="298" y="692"/>
      <point x="290" y="700"/>
      <point x="274" y="700" type="curve" smooth="yes"/>
      <point x="239" y="700" type="line" smooth="yes"/>
      <point x="223" y="700"/>
      <point x="213" y="691"/>
      <point x="210" y="675" type="curve" smooth="yes"/>
      <point x="183" y="501" type="line"/>
      <point x="116" y="501" type="line" smooth="yes"/>
      <point x="100" y="501"/>
      <point x="89" y="492"/>
      <point x="87" y="475" type="curve" smooth="yes"/>
      <point x="83" y="449" type="line" smooth="yes"/>
      <point x="80" y="433"/>
      <point x="88" y="424"/>
      <point x="104" y="424" type="curve" smooth="yes"/>
      <point x="171" y="424" type="line"/>
      <point x="146" y="270" type="line"/>
      <point x="79" y="270" type="line" smooth="yes"/>
      <point x="63" y="270"/>
      <point x="53" y="261"/>
      <point x="50" y="244" type="curve" smooth="yes"/>
      <point x="46" y="218" type="line" smooth="yes"/>
      <point x="43" y="202"/>
      <point x="51" y="193"/>
      <point x="67" y="193" type="curve" smooth="yes"/>
      <point x="134" y="193" type="line"/>
      <point x="107" y="25" type="line" smooth="yes"/>
      <point x="105" y="9"/>
      <point x="112" y="0"/>
      <point x="128" y="0" type="curve" smooth="yes"/>
      <point x="163" y="0" type="line" smooth="yes"/>
      <point x="179" y="0"/>
      <point x="190" y="9"/>
      <point x="192" y="25" type="curve" smooth="yes"/>
      <point x="219" y="193" type="line"/>
      <point x="339" y="193" type="line"/>
      <point x="312" y="25" type="line" smooth="yes"/>
      <point x="310" y="9"/>
      <point x="316" y="0"/>
      <point x="333" y="0" type="curve" smooth="yes"/>
      <point x="368" y="0" type="line" smooth="yes"/>
      <point x="384" y="0"/>
      <point x="395" y="9"/>
      <point x="397" y="25" type="curve" smooth="yes"/>
      <point x="424" y="193" type="line"/>
      <point x="490" y="193" type="line" smooth="yes"/>
      <point x="506" y="193"/>
      <point x="516" y="202"/>
      <point x="519" y="218" type="curve" smooth="yes"/>
      <point x="523" y="245" type="line" smooth="yes"/>
      <point x="526" y="261"/>
      <point x="518" y="270"/>
      <point x="502" y="270" type="curve" smooth="yes"/>
    </contour>
    <contour>
      <point x="256" y="424" type="line"/>
      <point x="376" y="424" type="line"/>
      <point x="351" y="270" type="line"/>
      <point x="231" y="270" type="line"/>
    </contour>
  </outline>
</glyph>
<glyph name="dollar" format="1">
  <advance width="575"/>
  <unicode hex="0024"/>
  <outline>
    <contour>
      <point x="507" y="78"/>
      <point x="507" y="187" type="curve" smooth="yes"/>
      <point x="507" y="280"/>
      <point x="436" y="328"/>
      <point x="303" y="343" type="curve" smooth="yes"/>
      <point x="223" y="352"/>
      <point x="174" y="372"/>
      <point x="174" y="431" type="curve" smooth="yes"/>
      <point x="174" y="502"/>
      <point x="246" y="534"/>
      <point x="342" y="534" type="curve" smooth="yes"/>
      <point x="366" y="534"/>
      <point x="430" y="532"/>
      <point x="479" y="523" type="curve" smooth="yes"/>
      <point x="495" y="520"/>
      <point x="506" y="526"/>
      <point x="512" y="541" type="curve" smooth="yes"/>
      <point x="523" y="567" type="line" smooth="yes"/>
      <point x="530" y="583"/>
      <point x="524" y="594"/>
      <point x="509" y="598" type="curve"/>
      <point x="468" y="605"/>
      <point x="422" y="608"/>
      <point x="387" y="609" type="curve"/>
      <point x="413" y="775" type="line" smooth="yes"/>
      <point x="416" y="792"/>
      <point x="408" y="800"/>
      <point x="392" y="800" type="curve" smooth="yes"/>
      <point x="357" y="800" type="line" smooth="yes"/>
      <point x="341" y="800"/>
      <point x="331" y="792"/>
      <point x="328" y="775" type="curve" smooth="yes"/>
      <point x="302" y="607" type="line"/>
      <point x="172" y="594"/>
      <point x="87" y="526"/>
      <point x="87" y="413" type="curve" smooth="yes"/>
      <point x="87" y="315"/>
      <point x="160" y="280"/>
      <point x="291" y="266" type="curve" smooth="yes"/>
      <point x="375" y="257"/>
      <point x="421" y="229"/>
      <point x="421" y="177" type="curve" smooth="yes"/>
      <point x="421" y="103"/>
      <point x="333" y="67"/>
      <point x="230" y="67" type="curve" smooth="yes"/>
      <point x="201" y="67"/>
      <point x="130" y="68"/>
      <point x="71" y="79" type="curve"/>
      <point x="55" y="81"/>
      <point x="44" y="75"/>
      <point x="38" y="59" type="curve" smooth="yes"/>
      <point x="28" y="33" type="line"/>
      <point x="22" y="17"/>
      <point x="27" y="6"/>
      <point x="43" y="3" type="curve" smooth="yes"/>
      <point x="99" y="-7"/>
      <point x="165" y="-9"/>
      <point x="204" y="-10" type="curve"/>
      <point x="178" y="-175" type="line" smooth="yes"/>
      <point x="175" y="-192"/>
      <point x="183" y="-200"/>
      <point x="199" y="-200" type="curve" smooth="yes"/>
      <point x="234" y="-200" type="line" smooth="yes"/>
      <point x="251" y="-200"/>
      <point x="260" y="-191"/>
      <point x="263" y="-175" type="curve" smooth="yes"/>
      <point x="289" y="-6" type="line"/>
      <point x="416" y="10"/>
    </contour>
  </outline>
</glyph>
<glyph name="percent" format="2">
	<advance width="575"/>
	<unicode hex="0025"/>
	<outline>
		<contour>
			<point x="27" y="87" type="curve" smooth="yes"/>
			<point x="47" y="66" type="line" smooth="yes"/>
			<point x="57" y="55"/>
			<point x="69" y="55"/>
			<point x="82" y="66" type="curve" smooth="yes"/>
			<point x="560" y="479" type="line" smooth="yes"/>
			<point x="573" y="490"/>
			<point x="575" y="503"/>
			<point x="565" y="514" type="curve" smooth="yes"/>
			<point x="544" y="535" type="line" smooth="yes"/>
			<point x="534" y="546"/>
			<point x="522" y="545"/>
			<point x="509" y="534" type="curve" smooth="yes"/>
			<point x="32" y="122" type="line" smooth="yes"/>
			<point x="18" y="110"/>
			<point x="17" y="98"/>
		</contour>
		<contour>
			<point x="243" y="600" type="curve" smooth="yes"/>
			<point x="143" y="600" type="line" smooth="yes"/>
			<point x="126" y="600"/>
			<point x="117" y="592"/>
			<point x="114" y="575" type="curve" smooth="yes"/>
			<point x="100" y="485" type="line" smooth="yes"/>
			<point x="98" y="469"/>
			<point x="105" y="460"/>
			<point x="121" y="460" type="curve" smooth="yes"/>
			<point x="221" y="460" type="line" smooth="yes"/>
			<point x="237" y="460"/>
			<point x="248" y="469"/>
			<point x="250" y="485" type="curve" smooth="yes"/>
			<point x="264" y="575" type="line" smooth="yes"/>
			<point x="267" y="592"/>
			<point x="259" y="600"/>
		</contour>
		<contour>
			<point x="471" y="140" type="curve" smooth="yes"/>
			<point x="371" y="140" type="line" smooth="yes"/>
			<point x="354" y="140"/>
			<point x="344" y="132"/>
			<point x="342" y="115" type="curve" smooth="yes"/>
			<point x="327" y="25" type="line" smooth="yes"/>
			<point x="325" y="9"/>
			<point x="332" y="0"/>
			<point x="348" y="0" type="curve" smooth="yes"/>
			<point x="448" y="0" type="line" smooth="yes"/>
			<point x="464" y="0"/>
			<point x="475" y="9"/>
			<point x="477" y="25" type="curve" smooth="yes"/>
			<point x="492" y="115" type="line" smooth="yes"/>
			<point x="494" y="132"/>
			<point x="487" y="140"/>
		</contour>
	</outline>
</glyph>
<glyph name="ampersand" format="1">
  <advance width="575"/>
  <unicode hex="0026"/>
  <outline>
    <contour>
      <point x="463" y="0" type="line" smooth="yes"/>
      <point x="480" y="0"/>
      <point x="491" y="10"/>
      <point x="490" y="27" type="curve" smooth="yes"/>
      <point x="484" y="69"/>
      <point x="470" y="112"/>
      <point x="448" y="159" type="curve"/>
      <point x="467" y="190"/>
      <point x="486" y="226"/>
      <point x="503" y="267" type="curve" smooth="yes"/>
      <point x="509" y="283"/>
      <point x="504" y="294"/>
      <point x="488" y="297" type="curve" smooth="yes"/>
      <point x="456" y="303" type="line" smooth="yes"/>
      <point x="441" y="306"/>
      <point x="430" y="299"/>
      <point x="423" y="284" type="curve" smooth="yes"/>
      <point x="417" y="267"/>
      <point x="410" y="252"/>
      <point x="403" y="237" type="curve"/>
      <point x="364" y="298"/>
      <point x="313" y="364"/>
      <point x="259" y="428" type="curve" smooth="yes"/>
      <point x="226" y="467"/>
      <point x="213" y="500"/>
      <point x="213" y="529" type="curve" smooth="yes"/>
      <point x="213" y="578"/>
      <point x="255" y="618"/>
      <point x="305" y="618" type="curve" smooth="yes"/>
      <point x="350" y="618"/>
      <point x="381" y="587"/>
      <point x="381" y="547" type="curve" smooth="yes"/>
      <point x="381" y="521"/>
      <point x="368" y="491"/>
      <point x="344" y="471" type="curve" smooth="yes"/>
      <point x="332" y="461"/>
      <point x="331" y="449"/>
      <point x="341" y="437" type="curve" smooth="yes"/>
      <point x="357" y="417" type="line" smooth="yes"/>
      <point x="368" y="405"/>
      <point x="380" y="405"/>
      <point x="391" y="415" type="curve" smooth="yes"/>
      <point x="436" y="453"/>
      <point x="463" y="506"/>
      <point x="463" y="564" type="curve" smooth="yes"/>
      <point x="463" y="640"/>
      <point x="405" y="697"/>
      <point x="319" y="697" type="curve" smooth="yes"/>
      <point x="217" y="697"/>
      <point x="127" y="616"/>
      <point x="127" y="519" type="curve" smooth="yes"/>
      <point x="127" y="475"/>
      <point x="146" y="428"/>
      <point x="185" y="380" type="curve"/>
      <point x="99" y="325"/>
      <point x="38" y="241"/>
      <point x="38" y="143" type="curve" smooth="yes"/>
      <point x="38" y="51"/>
      <point x="94" y="-7"/>
      <point x="192" y="-7" type="curve" smooth="yes"/>
      <point x="255" y="-7"/>
      <point x="325" y="21"/>
      <point x="389" y="85" type="curve"/>
      <point x="398" y="62"/>
      <point x="404" y="41"/>
      <point x="407" y="21" type="curve" smooth="yes"/>
      <point x="410" y="7"/>
      <point x="416" y="0"/>
      <point x="431" y="0" type="curve" smooth="yes"/>
    </contour>
    <contour>
      <point x="153" y="69"/>
      <point x="122" y="98"/>
      <point x="122" y="153" type="curve" smooth="yes"/>
      <point x="122" y="217"/>
      <point x="165" y="282"/>
      <point x="232" y="324" type="curve"/>
      <point x="283" y="260"/>
      <point x="323" y="205"/>
      <point x="352" y="157" type="curve"/>
      <point x="302" y="94"/>
      <point x="247" y="69"/>
      <point x="204" y="69" type="curve" smooth="yes"/>
    </contour>
  </outline>
</glyph>
<glyph name="quotesingle" format="1">
  <advance width="575"/>
  <unicode hex="0027"/>
  <outline>
    <contour>
      <point x="339" y="750" type="line" smooth="yes"/>
      <point x="323" y="750"/>
      <point x="313" y="741"/>
      <point x="311" y="725" type="curve" smooth="yes"/>
      <point x="278" y="437" type="line" smooth="yes"/>
      <point x="276" y="421"/>
      <point x="284" y="413"/>
      <point x="300" y="413" type="curve" smooth="yes"/>
      <point x="328" y="413" type="line" smooth="yes"/>
      <point x="344" y="413"/>
      <point x="353" y="421"/>
      <point x="357" y="437" type="curve" smooth="yes"/>
      <point x="415" y="725" type="line" smooth="yes"/>
      <point x="418" y="741"/>
      <point x="411" y="750"/>
      <point x="394" y="750" type="curve" smooth="yes"/>
    </contour>
  </outline>
</glyph>
<glyph name="parenleft" format="2">
	<advance width="575"/>
	<unicode hex="0028"/>
	<outline>
		<contour>
			<point x="532" y="699" type="curve" smooth="yes"/>
			<point x="536" y="725" type="line" smooth="yes"/>
			<point x="539" y="742"/>
			<point x="531" y="750"/>
			<point x="515" y="750" type="curve" smooth="yes"/>
			<point x="285" y="750"/>
			<point x="112" y="442"/>
			<point x="112" y="178" type="curve" smooth="yes"/>
			<point x="112" y="-28"/>
			<point x="214" y="-178"/>
			<point x="368" y="-178" type="curve" smooth="yes"/>
			<point x="384" y="-178"/>
			<point x="394" y="-170"/>
			<point x="397" y="-153" type="curve" smooth="yes"/>
			<point x="401" y="-127" type="line" smooth="yes"/>
			<point x="404" y="-110"/>
			<point x="397" y="-102"/>
			<point x="380" y="-102" type="curve" smooth="yes"/>
			<point x="270" y="-102"/>
			<point x="198" y="18"/>
			<point x="198" y="184" type="curve" smooth="yes"/>
			<point x="198" y="396"/>
			<point x="324" y="674"/>
			<point x="503" y="674" type="curve" smooth="yes"/>
			<point x="520" y="674"/>
			<point x="529" y="682"/>
		</contour>
	</outline>
</glyph>
<glyph name="parenright" format="2">
	<advance width="575"/>
	<unicode hex="0029"/>
	<outline>
		<contour>
			<point x="44" y="-127" type="curve" smooth="yes"/>
			<point x="40" y="-153" type="line" smooth="yes"/>
			<point x="37" y="-170"/>
			<point x="45" y="-178"/>
			<point x="61" y="-178" type="curve" smooth="yes"/>
			<point x="291" y="-178"/>
			<point x="464" y="130"/>
			<point x="464" y="394" type="curve" smooth="yes"/>
			<point x="464" y="600"/>
			<point x="362" y="750"/>
			<point x="208" y="750" type="curve" smooth="yes"/>
			<point x="192" y="750"/>
			<point x="182" y="742"/>
			<point x="179" y="725" type="curve" smooth="yes"/>
			<point x="175" y="699" type="line" smooth="yes"/>
			<point x="172" y="682"/>
			<point x="179" y="674"/>
			<point x="196" y="674" type="curve" smooth="yes"/>
			<point x="306" y="674"/>
			<point x="378" y="554"/>
			<point x="378" y="388" type="curve" smooth="yes"/>
			<point x="378" y="176"/>
			<point x="252" y="-102"/>
			<point x="73" y="-102" type="curve" smooth="yes"/>
			<point x="56" y="-102"/>
			<point x="47" y="-110"/>
		</contour>
	</outline>
</glyph>
<glyph name="asterisk" format="1">
  <advance width="575"/>
  <unicode hex="002A"/>
  <outline>
    <contour>
      <point x="534" y="345" type="line" smooth="yes"/>
      <point x="531" y="360"/>
      <point x="521" y="366"/>
      <point x="505" y="361" type="curve" smooth="yes"/>
      <point x="339" y="309" type="line"/>
      <point x="366" y="475" type="line" smooth="yes"/>
      <point x="368" y="492"/>
      <point x="361" y="500"/>
      <point x="345" y="500" type="curve" smooth="yes"/>
      <point x="310" y="500" type="line" smooth="yes"/>
      <point x="294" y="500"/>
      <point x="283" y="492"/>
      <point x="281" y="475" type="curve" smooth="yes"/>
      <point x="254" y="309" type="line"/>
      <point x="106" y="361" type="line" smooth="yes"/>
      <point x="90" y="366"/>
      <point x="78" y="360"/>
      <point x="71" y="345" type="curve" smooth="yes"/>
      <point x="55" y="311" type="line" smooth="yes"/>
      <point x="47" y="296"/>
      <point x="52" y="285"/>
      <point x="66" y="280" type="curve" smooth="yes"/>
      <point x="200" y="234" type="line"/>
      <point x="76" y="94" type="line" smooth="yes"/>
      <point x="65" y="81"/>
      <point x="64" y="68"/>
      <point x="76" y="59" type="curve" smooth="yes"/>
      <point x="101" y="38" type="line" smooth="yes"/>
      <point x="113" y="29"/>
      <point x="125" y="31"/>
      <point x="138" y="44" type="curve"/>
      <point x="280" y="206" type="line"/>
      <point x="371" y="44" type="line" smooth="yes"/>
      <point x="379" y="31"/>
      <point x="391" y="29"/>
      <point x="406" y="39" type="curve"/>
      <point x="438" y="59" type="line"/>
      <point x="451" y="68"/>
      <point x="455" y="81"/>
      <point x="448" y="94" type="curve" smooth="yes"/>
      <point x="370" y="234" type="line"/>
      <point x="519" y="280" type="line" smooth="yes"/>
      <point x="535" y="285"/>
      <point x="542" y="296"/>
      <point x="540" y="311" type="curve" smooth="yes"/>
    </contour>
  </outline>
</glyph>
<glyph name="plus" format="1">
  <advance width="575"/>
  <unicode hex="002B"/>
  <outline>
    <contour>
      <point x="526" y="264" type="line" smooth="yes"/>
      <point x="529" y="280"/>
      <point x="522" y="289"/>
      <point x="505" y="289" type="curve" smooth="yes"/>
      <point x="336" y="289" type="line"/>
      <point x="365" y="474" type="line" smooth="yes"/>
      <point x="368" y="491"/>
      <point x="361" y="499"/>
      <point x="344" y="499" type="curve" smooth="yes"/>
      <point x="309" y="499" type="line" smooth="yes"/>
      <point x="293" y="499"/>
      <point x="283" y="490"/>
      <point x="280" y="474" type="curve" smooth="yes"/>
      <point x="251" y="289" type="line"/>
      <point x="82" y="289" type="line" smooth="yes"/>
      <point x="66" y="289"/>
      <point x="56" y="280"/>
      <point x="53" y="263" type="curve" smooth="yes"/>
      <point x="49" y="237" type="line" smooth="yes"/>
      <point x="46" y="221"/>
      <point x="54" y="212"/>
      <point x="70" y="212" type="curve" smooth="yes"/>
      <point x="239" y="212" type="line"/>
      <point x="210" y="26" type="line" smooth="yes"/>
      <point x="207" y="10"/>
      <point x="215" y="1"/>
      <point x="231" y="1" type="curve" smooth="yes"/>
      <point x="266" y="1" type="line" smooth="yes"/>
      <point x="283" y="1"/>
      <point x="292" y="10"/>
      <point x="295" y="26" type="curve" smooth="yes"/>
      <point x="324" y="212" type="line"/>
      <point x="493" y="212" type="line" smooth="yes"/>
      <point x="510" y="212"/>
      <point x="519" y="221"/>
      <point x="522" y="237" type="curve" smooth="yes"/>
    </contour>
  </outline>
</glyph>
<glyph name="comma" format="1">
  <advance width="575"/>
  <unicode hex="002C"/>
  <outline>
    <contour>
      <point x="221" y="140" type="line" smooth="yes"/>
      <point x="204" y="140"/>
      <point x="194" y="132"/>
      <point x="192" y="115" type="curve" smooth="yes"/>
      <point x="177" y="25" type="line" smooth="yes"/>
      <point x="175" y="9"/>
      <point x="182" y="0"/>
      <point x="198" y="0" type="curve" smooth="yes"/>
      <point x="238" y="0" type="line"/>
      <point x="220" y="-125"/>
      <point x="169" y="-171"/>
      <point x="50" y="-171" type="curve" smooth="yes"/>
      <point x="34" y="-171"/>
      <point x="25" y="-180"/>
      <point x="22" y="-196" type="curve" smooth="yes"/>
      <point x="18" y="-223" type="line" smooth="yes"/>
      <point x="16" y="-239"/>
      <point x="23" y="-247"/>
      <point x="39" y="-247" type="curve" smooth="yes"/>
      <point x="218" y="-247"/>
      <point x="295" y="-181"/>
      <point x="323" y="-2" type="curve" smooth="yes"/>
      <point x="342" y="115" type="line" smooth="yes"/>
      <point x="344" y="132"/>
      <point x="337" y="140"/>
      <point x="321" y="140" type="curve" smooth="yes"/>
    </contour>
  </outline>
</glyph>
<glyph name="hyphen" format="2">
	<advance width="575"/>
	<unicode hex="002D"/>
	<outline>
		<contour>
			<point x="54" y="263" type="curve" smooth="yes"/>
			<point x="50" y="237" type="line" smooth="yes"/>
			<point x="47" y="221"/>
			<point x="55" y="212"/>
			<point x="71" y="212" type="curve" smooth="yes"/>
			<point x="494" y="212" type="line" smooth="yes"/>
			<point x="510" y="212"/>
			<point x="520" y="221"/>
			<point x="523" y="237" type="curve" smooth="yes"/>
			<point x="527" y="264" type="line" smooth="yes"/>
			<point x="530" y="280"/>
			<point x="522" y="289"/>
			<point x="506" y="289" type="curve" smooth="yes"/>
			<point x="83" y="289" type="line" smooth="yes"/>
			<point x="67" y="289"/>
			<point x="57" y="280"/>
		</contour>
	</outline>
</glyph>
<glyph name="period" format="2">
	<advance width="575"/>
	<unicode hex="002E"/>
	<outline>
		<contour>
			<point x="320" y="140" type="curve" smooth="yes"/>
			<point x="220" y="140" type="line" smooth="yes"/>
			<point x="204" y="140"/>
			<point x="193" y="132"/>
			<point x="191" y="115" type="curve" smooth="yes"/>
			<point x="176" y="25" type="line" smooth="yes"/>
			<point x="174" y="9"/>
			<point x="181" y="0"/>
			<point x="197" y="0" type="curve" smooth="yes"/>
			<point x="297" y="0" type="line" smooth="yes"/>
			<point x="314" y="0"/>
			<point x="324" y="9"/>
			<point x="326" y="25" type="curve" smooth="yes"/>
			<point x="341" y="115" type="line" smooth="yes"/>
			<point x="343" y="132"/>
			<point x="336" y="140"/>
		</contour>
	</outline>
</glyph>
<glyph name="zero" format="1">
  <advance width="575"/>
  <unicode hex="0030"/>
  <outline>
    <contour>
      <point x="166" y="710"/>
      <point x="62" y="462"/>
      <point x="62" y="251" type="curve" smooth="yes"/>
      <point x="62" y="84"/>
      <point x="128" y="-10"/>
      <point x="247" y="-10" type="curve" smooth="yes"/>
      <point x="441" y="-10"/>
      <point x="545" y="239"/>
      <point x="545" y="449" type="curve" smooth="yes"/>
      <point x="545" y="616"/>
      <point x="479" y="710"/>
      <point x="361" y="710" type="curve" smooth="yes"/>
    </contour>
    <contour>
      <point x="402" y="634"/>
      <point x="438" y="597"/>
      <point x="452" y="528" type="curve"/>
      <point x="147" y="264" type="line"/>
      <point x="149" y="412"/>
      <point x="218" y="634"/>
      <point x="349" y="634" type="curve" smooth="yes"/>
    </contour>
    <contour>
      <point x="206" y="67"/>
      <point x="170" y="104"/>
      <point x="155" y="174" type="curve"/>
      <point x="460" y="438" type="line"/>
      <point x="458" y="289"/>
      <point x="390" y="67"/>
      <point x="259" y="67" type="curve" smooth="yes"/>
    </contour>
  </outline>
</glyph>
<glyph name="one" format="1">
  <advance width="575"/>
  <unicode hex="0031"/>
  <outline>
    <contour>
      <point x="335" y="77" type="line"/>
      <point x="429" y="675" type="line" smooth="yes"/>
      <point x="432" y="691"/>
      <point x="424" y="700"/>
      <point x="408" y="700" type="curve" smooth="yes"/>
      <point x="389" y="700" type="line" smooth="yes"/>
      <point x="375" y="700"/>
      <point x="365" y="694"/>
      <point x="357" y="680" type="curve" smooth="yes"/>
      <point x="320" y="618"/>
      <point x="263" y="597"/>
      <point x="165" y="597" type="curve" smooth="yes"/>
      <point x="149" y="597"/>
      <point x="139" y="588"/>
      <point x="136" y="572" type="curve" smooth="yes"/>
      <point x="132" y="545" type="line" smooth="yes"/>
      <point x="129" y="529"/>
      <point x="137" y="520"/>
      <point x="153" y="520" type="curve" smooth="yes"/>
      <point x="320" y="520" type="line"/>
      <point x="250" y="77" type="line"/>
      <point x="83" y="77" type="line" smooth="yes"/>
      <point x="67" y="77"/>
      <point x="56" y="68"/>
      <point x="54" y="52" type="curve" smooth="yes"/>
      <point x="49" y="25" type="line" smooth="yes"/>
      <point x="47" y="9"/>
      <point x="54" y="0"/>
      <point x="70" y="0" type="curve" smooth="yes"/>
      <point x="425" y="0" type="line" smooth="yes"/>
      <point x="442" y="0"/>
      <point x="452" y="9"/>
      <point x="454" y="25" type="curve" smooth="yes"/>
      <point x="459" y="52" type="line" smooth="yes"/>
      <point x="461" y="68"/>
      <point x="455" y="77"/>
      <point x="438" y="77" type="curve" smooth="yes"/>
    </contour>
  </outline>
</glyph>
<glyph name="two" format="2">
	<advance width="575"/>
	<unicode hex="0032"/>
	<outline>
		<contour>
			<point x="462" y="77" type="curve" smooth="yes"/>
			<point x="143" y="77" type="line"/>
			<point x="160" y="144"/>
			<point x="233" y="194"/>
			<point x="312" y="248" type="curve" smooth="yes"/>
			<point x="425" y="327"/>
			<point x="541" y="410"/>
			<point x="541" y="547" type="curve" smooth="yes"/>
			<point x="541" y="663"/>
			<point x="449" y="710"/>
			<point x="338" y="710" type="curve" smooth="yes"/>
			<point x="287" y="710"/>
			<point x="231" y="699"/>
			<point x="180" y="681" type="curve" smooth="yes"/>
			<point x="164" y="675"/>
			<point x="158" y="664"/>
			<point x="161" y="649" type="curve" smooth="yes"/>
			<point x="166" y="623" type="line" smooth="yes"/>
			<point x="170" y="608"/>
			<point x="180" y="603"/>
			<point x="197" y="608" type="curve" smooth="yes"/>
			<point x="244" y="624"/>
			<point x="285" y="632"/>
			<point x="326" y="632" type="curve" smooth="yes"/>
			<point x="406" y="632"/>
			<point x="454" y="605"/>
			<point x="454" y="535" type="curve" smooth="yes"/>
			<point x="454" y="438"/>
			<point x="363" y="375"/>
			<point x="268" y="309" type="curve" smooth="yes"/>
			<point x="190" y="256"/>
			<point x="73" y="183"/>
			<point x="52" y="48" type="curve" smooth="yes"/>
			<point x="48" y="24" type="line" smooth="yes"/>
			<point x="46" y="8"/>
			<point x="53" y="-1"/>
			<point x="69" y="-1" type="curve" smooth="yes"/>
			<point x="449" y="-1" type="line" smooth="yes"/>
			<point x="465" y="-1"/>
			<point x="476" y="8"/>
			<point x="478" y="24" type="curve" smooth="yes"/>
			<point x="483" y="52" type="line" smooth="yes"/>
			<point x="485" y="68"/>
			<point x="478" y="77"/>
		</contour>
	</outline>
</glyph>
<glyph name="three" format="1">
  <advance width="575"/>
  <unicode hex="0033"/>
  <outline>
    <contour>
      <point x="184" y="637" type="line" smooth="yes"/>
      <point x="186" y="622"/>
      <point x="196" y="617"/>
      <point x="213" y="621" type="curve" smooth="yes"/>
      <point x="244" y="628"/>
      <point x="276" y="632"/>
      <point x="309" y="632" type="curve" smooth="yes"/>
      <point x="390" y="632"/>
      <point x="440" y="610"/>
      <point x="440" y="539" type="curve" smooth="yes"/>
      <point x="440" y="459"/>
      <point x="375" y="401"/>
      <point x="274" y="401" type="curve" smooth="yes"/>
      <point x="223" y="401" type="line" smooth="yes"/>
      <point x="207" y="401"/>
      <point x="196" y="392"/>
      <point x="194" y="376" type="curve" smooth="yes"/>
      <point x="190" y="349" type="line" smooth="yes"/>
      <point x="187" y="333"/>
      <point x="195" y="324"/>
      <point x="211" y="324" type="curve" smooth="yes"/>
      <point x="262" y="324" type="line" smooth="yes"/>
      <point x="343" y="324"/>
      <point x="396" y="279"/>
      <point x="396" y="204" type="curve" smooth="yes"/>
      <point x="396" y="115"/>
      <point x="325" y="68"/>
      <point x="214" y="68" type="curve" smooth="yes"/>
      <point x="178" y="68"/>
      <point x="146" y="72"/>
      <point x="117" y="79" type="curve" smooth="yes"/>
      <point x="102" y="83"/>
      <point x="90" y="78"/>
      <point x="83" y="63" type="curve" smooth="yes"/>
      <point x="71" y="35" type="line" smooth="yes"/>
      <point x="65" y="20"/>
      <point x="68" y="8"/>
      <point x="83" y="4" type="curve" smooth="yes"/>
      <point x="119" y="-5"/>
      <point x="160" y="-10"/>
      <point x="202" y="-10" type="curve" smooth="yes"/>
      <point x="353" y="-10"/>
      <point x="481" y="66"/>
      <point x="481" y="202" type="curve" smooth="yes"/>
      <point x="481" y="287"/>
      <point x="435" y="338"/>
      <point x="384" y="364" type="curve"/>
      <point x="469" y="407"/>
      <point x="527" y="466"/>
      <point x="527" y="553" type="curve" smooth="yes"/>
      <point x="527" y="670"/>
      <point x="428" y="710"/>
      <point x="321" y="710" type="curve" smooth="yes"/>
      <point x="281" y="710"/>
      <point x="240" y="705"/>
      <point x="203" y="696" type="curve" smooth="yes"/>
      <point x="186" y="692"/>
      <point x="179" y="680"/>
      <point x="181" y="665" type="curve" smooth="yes"/>
    </contour>
  </outline>
</glyph>
<glyph name="four" format="1">
  <advance width="575"/>
  <unicode hex="0034"/>
  <outline>
    <contour>
      <point x="426" y="221" type="line"/>
      <point x="453" y="392" type="line" smooth="yes"/>
      <point x="456" y="408"/>
      <point x="448" y="417"/>
      <point x="432" y="417" type="curve" smooth="yes"/>
      <point x="397" y="417" type="line" smooth="yes"/>
      <point x="381" y="417"/>
      <point x="371" y="408"/>
      <point x="368" y="392" type="curve" smooth="yes"/>
      <point x="341" y="221" type="line"/>
      <point x="160" y="221" type="line"/>
      <point x="457" y="670" type="line" smooth="yes"/>
      <point x="468" y="688"/>
      <point x="462" y="700"/>
      <point x="442" y="700" type="curve" smooth="yes"/>
      <point x="406" y="700" type="line" smooth="yes"/>
      <point x="386" y="700"/>
      <point x="376" y="694"/>
      <point x="366" y="677" type="curve" smooth="yes"/>
      <point x="78" y="240" type="line" smooth="yes"/>
      <point x="72" y="230"/>
      <point x="68" y="221"/>
      <point x="67" y="209" type="curve" smooth="yes"/>
      <point x="60" y="169" type="line" smooth="yes"/>
      <point x="58" y="153"/>
      <point x="64" y="145"/>
      <point x="80" y="145" type="curve" smooth="yes"/>
      <point x="329" y="145" type="line"/>
      <point x="310" y="25" type="line" smooth="yes"/>
      <point x="308" y="9"/>
      <point x="314" y="0"/>
      <point x="330" y="0" type="curve" smooth="yes"/>
      <point x="365" y="0" type="line" smooth="yes"/>
      <point x="382" y="0"/>
      <point x="392" y="9"/>
      <point x="394" y="25" type="curve" smooth="yes"/>
      <point x="413" y="145" type="line"/>
      <point x="468" y="145" type="line" smooth="yes"/>
      <point x="485" y="145"/>
      <point x="495" y="154"/>
      <point x="497" y="170" type="curve" smooth="yes"/>
      <point x="501" y="196" type="line" smooth="yes"/>
      <point x="504" y="212"/>
      <point x="497" y="221"/>
      <point x="480" y="221" type="curve" smooth="yes"/>
    </contour>
  </outline>
</glyph>
<glyph name="five" format="2">
	<advance width="575"/>
	<unicode hex="0035"/>
	<outline>
		<contour>
			<point x="292" y="431" type="curve"/>
			<point x="239" y="431" type="line" smooth="yes"/>
			<point x="284" y="624" type="line" smooth="yes"/>
			<point x="490" y="624" type="line"/>
			<point x="507" y="624"/>
			<point x="517" y="633"/>
			<point x="519" y="649" type="curve"/>
			<point x="523" y="675" type="line"/>
			<point x="526" y="692"/>
			<point x="519" y="700"/>
			<point x="502" y="700" type="curve"/>
			<point x="247" y="700" type="line"/>
			<point x="231" y="700"/>
			<point x="220" y="692"/>
			<point x="217" y="677" type="curve"/>
			<point x="149" y="389" type="line"/>
			<point x="145" y="373"/>
			<point x="151" y="363"/>
			<point x="167" y="361" type="curve"/>
			<point x="215" y="354" type="line" smooth="yes"/>
			<point x="279" y="354" type="line"/>
			<point x="361" y="354"/>
			<point x="404" y="318"/>
			<point x="404" y="236" type="curve" smooth="yes"/>
			<point x="404" y="135"/>
			<point x="339" y="68"/>
			<point x="217" y="68" type="curve"/>
			<point x="181" y="68"/>
			<point x="149" y="72"/>
			<point x="120" y="79" type="curve"/>
			<point x="105" y="83"/>
			<point x="93" y="78"/>
			<point x="86" y="63" type="curve"/>
			<point x="74" y="35" type="line"/>
			<point x="68" y="20"/>
			<point x="71" y="8"/>
			<point x="86" y="4" type="curve"/>
			<point x="122" y="-5"/>
			<point x="163" y="-10"/>
			<point x="205" y="-10" type="curve"/>
			<point x="387" y="-10"/>
			<point x="491" y="88"/>
			<point x="491" y="254" type="curve" smooth="yes"/>
			<point x="491" y="375"/>
			<point x="424" y="431"/>
		</contour>
	</outline>
</glyph>
<glyph name="six" format="2">
	<advance width="575"/>
	<unicode hex="0036"/>
	<outline>
		<contour>
			<point x="491" y="644" type="curve"/>
			<point x="502" y="672" type="line" smooth="yes"/>
			<point x="507" y="688"/>
			<point x="502" y="699"/>
			<point x="487" y="702" type="curve" smooth="yes"/>
			<point x="456" y="707"/>
			<point x="427" y="710"/>
			<point x="403" y="710" type="curve" smooth="yes"/>
			<point x="178" y="710"/>
			<point x="55" y="461"/>
			<point x="55" y="223" type="curve" smooth="yes"/>
			<point x="55" y="61"/>
			<point x="125" y="-10"/>
			<point x="242" y="-10" type="curve" smooth="yes"/>
			<point x="390" y="-10"/>
			<point x="494" y="112"/>
			<point x="494" y="251" type="curve" smooth="yes"/>
			<point x="494" y="365"/>
			<point x="418" y="429"/>
			<point x="313" y="429" type="curve" smooth="yes"/>
			<point x="271" y="429"/>
			<point x="225" y="419"/>
			<point x="168" y="402" type="curve"/>
			<point x="215" y="586"/>
			<point x="313" y="632"/>
			<point x="393" y="632" type="curve" smooth="yes"/>
			<point x="410" y="632"/>
			<point x="432" y="630"/>
			<point x="458" y="625" type="curve" smooth="yes"/>
			<point x="474" y="622"/>
			<point x="485" y="629"/>
		</contour>
		<contour>
			<point x="257" y="68" type="curve" smooth="yes"/>
			<point x="193" y="68"/>
			<point x="142" y="112"/>
			<point x="142" y="237" type="curve" smooth="yes"/>
			<point x="142" y="262"/>
			<point x="145" y="284"/>
			<point x="150" y="317" type="curve"/>
			<point x="217" y="349"/>
			<point x="269" y="351"/>
			<point x="297" y="351" type="curve" smooth="yes"/>
			<point x="366" y="351"/>
			<point x="407" y="312"/>
			<point x="407" y="240" type="curve" smooth="yes"/>
			<point x="407" y="158"/>
			<point x="350" y="68"/>
		</contour>
	</outline>
</glyph>
<glyph name="seven" format="1">
  <advance width="575"/>
  <unicode hex="0037"/>
  <outline>
    <contour>
      <point x="181" y="700" type="line" smooth="yes"/>
      <point x="165" y="700"/>
      <point x="155" y="692"/>
      <point x="152" y="675" type="curve" smooth="yes"/>
      <point x="127" y="518" type="line" smooth="yes"/>
      <point x="125" y="502"/>
      <point x="132" y="493"/>
      <point x="148" y="493" type="curve" smooth="yes"/>
      <point x="183" y="493" type="line" smooth="yes"/>
      <point x="200" y="493"/>
      <point x="210" y="501"/>
      <point x="212" y="518" type="curve" smooth="yes"/>
      <point x="229" y="624" type="line"/>
      <point x="489" y="624" type="line"/>
      <point x="483" y="587"/>
      <point x="467" y="552"/>
      <point x="427" y="492" type="curve" smooth="yes"/>
      <point x="309" y="312" type="line" smooth="yes"/>
      <point x="237" y="202"/>
      <point x="194" y="105"/>
      <point x="181" y="24" type="curve" smooth="yes"/>
      <point x="179" y="8"/>
      <point x="185" y="0"/>
      <point x="202" y="0" type="curve" smooth="yes"/>
      <point x="236" y="0" type="line" smooth="yes"/>
      <point x="253" y="0"/>
      <point x="264" y="8"/>
      <point x="266" y="24" type="curve"/>
      <point x="279" y="104"/>
      <point x="317" y="191"/>
      <point x="377" y="280" type="curve" smooth="yes"/>
      <point x="504" y="465" type="line" smooth="yes"/>
      <point x="547" y="528"/>
      <point x="566" y="572"/>
      <point x="575" y="626" type="curve" smooth="yes"/>
      <point x="582" y="676" type="line" smooth="yes"/>
      <point x="585" y="692"/>
      <point x="578" y="700"/>
      <point x="562" y="700" type="curve" smooth="yes"/>
    </contour>
  </outline>
</glyph>
<glyph name="eight" format="2">
	<advance width="575"/>
	<unicode hex="0038"/>
	<outline>
		<contour>
			<point x="389" y="359" type="curve"/>
			<point x="472" y="408"/>
			<point x="545" y="481"/>
			<point x="545" y="570" type="curve" smooth="yes"/>
			<point x="545" y="656"/>
			<point x="469" y="710"/>
			<point x="361" y="710" type="curve" smooth="yes"/>
			<point x="233" y="710"/>
			<point x="123" y="632"/>
			<point x="123" y="511" type="curve" smooth="yes"/>
			<point x="123" y="433"/>
			<point x="172" y="390"/>
			<point x="229" y="357" type="curve"/>
			<point x="133" y="307"/>
			<point x="41" y="235"/>
			<point x="41" y="142" type="curve" smooth="yes"/>
			<point x="41" y="48"/>
			<point x="133" y="-10"/>
			<point x="247" y="-10" type="curve" smooth="yes"/>
			<point x="390" y="-10"/>
			<point x="508" y="64"/>
			<point x="508" y="192" type="curve" smooth="yes"/>
			<point x="508" y="276"/>
			<point x="453" y="321"/>
		</contour>
		<contour>
			<point x="210" y="528" type="curve" smooth="yes"/>
			<point x="210" y="592"/>
			<point x="278" y="634"/>
			<point x="349" y="634" type="curve" smooth="yes"/>
			<point x="414" y="634"/>
			<point x="457" y="600"/>
			<point x="457" y="553" type="curve" smooth="yes"/>
			<point x="457" y="498"/>
			<point x="393" y="431"/>
			<point x="330" y="393" type="curve"/>
			<point x="257" y="430"/>
			<point x="210" y="474"/>
		</contour>
		<contour>
			<point x="259" y="67" type="curve" smooth="yes"/>
			<point x="182" y="67"/>
			<point x="128" y="99"/>
			<point x="128" y="157" type="curve" smooth="yes"/>
			<point x="128" y="229"/>
			<point x="210" y="285"/>
			<point x="290" y="326" type="curve"/>
			<point x="359" y="293"/>
			<point x="422" y="251"/>
			<point x="422" y="183" type="curve" smooth="yes"/>
			<point x="422" y="108"/>
			<point x="345" y="67"/>
		</contour>
	</outline>
</glyph>
<glyph name="colon" format="1">
  <advance width="575"/>
  <unicode hex="003A"/>
  <outline>
    <contour>
      <point x="278" y="500" type="line" smooth="yes"/>
      <point x="261" y="500"/>
      <point x="251" y="492"/>
      <point x="249" y="475" type="curve" smooth="yes"/>
      <point x="234" y="385" type="line" smooth="yes"/>
      <point x="232" y="369"/>
      <point x="239" y="360"/>
      <point x="255" y="360" type="curve" smooth="yes"/>
      <point x="355" y="360" type="line" smooth="yes"/>
      <point x="371" y="360"/>
      <point x="382" y="369"/>
      <point x="384" y="385" type="curve" smooth="yes"/>
      <point x="399" y="475" type="line" smooth="yes"/>
      <point x="401" y="492"/>
      <point x="394" y="500"/>
      <point x="378" y="500" type="curve" smooth="yes"/>
    </contour>
    <contour>
      <point x="221" y="140" type="line" smooth="yes"/>
      <point x="204" y="140"/>
      <point x="194" y="132"/>
      <point x="192" y="115" type="curve" smooth="yes"/>
      <point x="177" y="25" type="line" smooth="yes"/>
      <point x="175" y="9"/>
      <point x="182" y="0"/>
      <point x="198" y="0" type="curve" smooth="yes"/>
      <point x="298" y="0" type="line" smooth="yes"/>
      <point x="314" y="0"/>
      <point x="325" y="9"/>
      <point x="327" y="25" type="curve" smooth="yes"/>
      <point x="342" y="115" type="line" smooth="yes"/>
      <point x="344" y="132"/>
      <point x="337" y="140"/>
      <point x="321" y="140" type="curve" smooth="yes"/>
    </contour>
  </outline>
</glyph>
<glyph name="semicolon" format="2">
	<advance width="575"/>
	<unicode hex="003B"/>
	<outline>
		<contour>
			<point x="378" y="500" type="curve" smooth="yes"/>
			<point x="278" y="500" type="line" smooth="yes"/>
			<point x="261" y="500"/>
			<point x="251" y="492"/>
			<point x="249" y="475" type="curve" smooth="yes"/>
			<point x="234" y="385" type="line" smooth="yes"/>
			<point x="232" y="369"/>
			<point x="239" y="360"/>
			<point x="255" y="360" type="curve" smooth="yes"/>
			<point x="355" y="360" type="line" smooth="yes"/>
			<point x="371" y="360"/>
			<point x="382" y="369"/>
			<point x="384" y="385" type="curve" smooth="yes"/>
			<point x="399" y="475" type="line" smooth="yes"/>
			<point x="401" y="492"/>
			<point x="394" y="500"/>
		</contour>
		<contour>
			<point x="321" y="140" type="curve" smooth="yes"/>
			<point x="221" y="140" type="line" smooth="yes"/>
			<point x="204" y="140"/>
			<point x="194" y="132"/>
			<point x="192" y="115" type="curve" smooth="yes"/>
			<point x="177" y="25" type="line" smooth="yes"/>
			<point x="175" y="9"/>
			<point x="182" y="0"/>
			<point x="198" y="0" type="curve" smooth="yes"/>
			<point x="238" y="0" type="line"/>
			<point x="220" y="-125"/>
			<point x="169" y="-171"/>
			<point x="50" y="-171" type="curve" smooth="yes"/>
			<point x="34" y="-171"/>
			<point x="25" y="-180"/>
			<point x="22" y="-196" type="curve" smooth="yes"/>
			<point x="18" y="-223" type="line" smooth="yes"/>
			<point x="16" y="-239"/>
			<point x="23" y="-247"/>
			<point x="39" y="-247" type="curve" smooth="yes"/>
			<point x="218" y="-247"/>
			<point x="295" y="-181"/>
			<point x="323" y="-2" type="curve" smooth="yes"/>
			<point x="342" y="115" type="line" smooth="yes"/>
			<point x="344" y="132"/>
			<point x="337" y="140"/>
		</contour>
	</outline>
</glyph>
<glyph name="equal" format="1">
  <advance width="575"/>
  <unicode hex="003D"/>
  <outline>
    <contour>
      <point x="67" y="352" type="line" smooth="yes"/>
      <point x="65" y="336"/>
      <point x="72" y="327"/>
      <point x="88" y="327" type="curve" smooth="yes"/>
      <point x="511" y="327" type="line" smooth="yes"/>
      <point x="528" y="327"/>
      <point x="538" y="336"/>
      <point x="540" y="352" type="curve" smooth="yes"/>
      <point x="544" y="379" type="line" smooth="yes"/>
      <point x="547" y="395"/>
      <point x="540" y="404"/>
      <point x="523" y="404" type="curve" smooth="yes"/>
      <point x="100" y="404" type="line" smooth="yes"/>
      <point x="84" y="404"/>
      <point x="74" y="395"/>
      <point x="71" y="378" type="curve" smooth="yes"/>
    </contour>
    <contour>
      <point x="31" y="122" type="line" smooth="yes"/>
      <point x="28" y="106"/>
      <point x="36" y="97"/>
      <point x="52" y="97" type="curve" smooth="yes"/>
      <point x="475" y="97" type="line" smooth="yes"/>
      <point x="492" y="97"/>
      <point x="501" y="106"/>
      <point x="504" y="122" type="curve" smooth="yes"/>
      <point x="508" y="149" type="line" smooth="yes"/>
      <point x="511" y="165"/>
      <point x="504" y="174"/>
      <point x="487" y="174" type="curve" smooth="yes"/>
      <point x="64" y="174" type="line" smooth="yes"/>
      <point x="48" y="174"/>
      <point x="38" y="165"/>
      <point x="35" y="148" type="curve" smooth="yes"/>
    </contour>
  </outline>
</glyph>
<glyph name="greater" format="1">
  <advance width="575"/>
  <unicode hex="003E"/>
  <outline>
    <contour>
      <point x="152" y="495" type="line" smooth="yes"/>
      <point x="139" y="502"/>
      <point x="126" y="499"/>
      <point x="117" y="485" type="curve" smooth="yes"/>
      <point x="99" y="460" type="line" smooth="yes"/>
      <point x="89" y="446"/>
      <point x="91" y="434"/>
      <point x="104" y="426" type="curve" smooth="yes"/>
      <point x="428" y="250" type="line"/>
      <point x="48" y="74" type="line" smooth="yes"/>
      <point x="33" y="67"/>
      <point x="27" y="55"/>
      <point x="33" y="40" type="curve" smooth="yes"/>
      <point x="43" y="16" type="line" smooth="yes"/>
      <point x="48" y="2"/>
      <point x="59" y="-2"/>
      <point x="74" y="5" type="curve" smooth="yes"/>
      <point x="447" y="178" type="line" smooth="yes"/>
      <point x="489" y="197"/>
      <point x="516" y="223"/>
      <point x="520" y="250" type="curve" smooth="yes"/>
      <point x="524" y="275"/>
      <point x="509" y="301"/>
      <point x="470" y="323" type="curve" smooth="yes"/>
    </contour>
  </outline>
</glyph>
<glyph name="question" format="1">
  <advance width="575"/>
  <unicode hex="003F"/>
  <outline>
    <contour>
      <point x="129" y="651" type="line" smooth="yes"/>
      <point x="126" y="635"/>
      <point x="134" y="626"/>
      <point x="150" y="626" type="curve" smooth="yes"/>
      <point x="339" y="625"/>
      <point x="454" y="579"/>
      <point x="454" y="503" type="curve" smooth="yes"/>
      <point x="454" y="434"/>
      <point x="363" y="401"/>
      <point x="268" y="401" type="curve" smooth="yes"/>
      <point x="207" y="401" type="line" smooth="yes"/>
      <point x="191" y="401"/>
      <point x="180" y="392"/>
      <point x="178" y="376" type="curve" smooth="yes"/>
      <point x="155" y="230" type="line" smooth="yes"/>
      <point x="152" y="214"/>
      <point x="160" y="205"/>
      <point x="176" y="205" type="curve" smooth="yes"/>
      <point x="211" y="205" type="line" smooth="yes"/>
      <point x="227" y="205"/>
      <point x="237" y="214"/>
      <point x="240" y="230" type="curve" smooth="yes"/>
      <point x="255" y="327" type="line"/>
      <point x="256" y="327" type="line" smooth="yes"/>
      <point x="401" y="327"/>
      <point x="540" y="390"/>
      <point x="540" y="510" type="curve" smooth="yes"/>
      <point x="540" y="605"/>
      <point x="430" y="698"/>
      <point x="161" y="700" type="curve" smooth="yes"/>
      <point x="145" y="700"/>
      <point x="135" y="691"/>
      <point x="132" y="675" type="curve" smooth="yes"/>
    </contour>
    <contour>
      <point x="121" y="25" type="line" smooth="yes"/>
      <point x="118" y="8"/>
      <point x="126" y="0"/>
      <point x="142" y="0" type="curve" smooth="yes"/>
      <point x="177" y="0" type="line" smooth="yes"/>
      <point x="193" y="0"/>
      <point x="203" y="8"/>
      <point x="206" y="25" type="curve" smooth="yes"/>
      <point x="213" y="72" type="line" smooth="yes"/>
      <point x="216" y="88"/>
      <point x="208" y="97"/>
      <point x="192" y="97" type="curve" smooth="yes"/>
      <point x="157" y="97" type="line" smooth="yes"/>
      <point x="141" y="97"/>
      <point x="131" y="88"/>
      <point x="128" y="72" type="curve" smooth="yes"/>
    </contour>
  </outline>
</glyph>
<glyph name="at" format="1">
  <advance width="575"/>
  <unicode hex="0040"/>
  <outline>
    <contour>
      <point x="25" y="88" type="line" smooth="yes"/>
      <point x="22" y="66"/>
      <point x="20" y="45"/>
      <point x="20" y="25" type="curve" smooth="yes"/>
      <point x="20" y="-96"/>
      <point x="88" y="-158"/>
      <point x="223" y="-158" type="curve" smooth="yes"/>
      <point x="269" y="-158"/>
      <point x="308" y="-151"/>
      <point x="350" y="-137" type="curve" smooth="yes"/>
      <point x="365" y="-132"/>
      <point x="372" y="-120"/>
      <point x="368" y="-105" type="curve" smooth="yes"/>
      <point x="361" y="-78" type="line" smooth="yes"/>
      <point x="357" y="-63"/>
      <point x="347" y="-58"/>
      <point x="331" y="-64" type="curve" smooth="yes"/>
      <point x="296" y="-76"/>
      <point x="268" y="-82"/>
      <point x="235" y="-82" type="curve" smooth="yes"/>
      <point x="149" y="-82"/>
      <point x="106" y="-41"/>
      <point x="106" y="41" type="curve" smooth="yes"/>
      <point x="106" y="55"/>
      <point x="107" y="71"/>
      <point x="110" y="88" type="curve" smooth="yes"/>
      <point x="170" y="464" type="line" smooth="yes"/>
      <point x="188" y="577"/>
      <point x="248" y="634"/>
      <point x="349" y="634" type="curve" smooth="yes"/>
      <point x="434" y="634"/>
      <point x="477" y="593"/>
      <point x="477" y="512" type="curve" smooth="yes"/>
      <point x="477" y="497"/>
      <point x="476" y="482"/>
      <point x="473" y="465" type="curve"/>
      <point x="359" y="465"/>
      <point x="303" y="410"/>
      <point x="282" y="276" type="curve" smooth="yes"/>
      <point x="261" y="142"/>
      <point x="299" y="87"/>
      <point x="413" y="87" type="curve" smooth="yes"/>
      <point x="473" y="87" type="line" smooth="yes"/>
      <point x="489" y="87"/>
      <point x="500" y="96"/>
      <point x="502" y="112" type="curve" smooth="yes"/>
      <point x="558" y="464" type="line" smooth="yes"/>
      <point x="562" y="487"/>
      <point x="563" y="508"/>
      <point x="563" y="528" type="curve" smooth="yes"/>
      <point x="563" y="649"/>
      <point x="495" y="710"/>
      <point x="361" y="710" type="curve" smooth="yes"/>
      <point x="204" y="710"/>
      <point x="111" y="627"/>
      <point x="85" y="464" type="curve" smooth="yes"/>
    </contour>
  </outline>
</glyph>
<glyph name="A" format="2">
	<advance width="575"/>
	<unicode hex="0041"/>
	<anchor x="248" y="0" name="bottom"/>
	<anchor x="479" y="10" name="ogonek"/>
	<anchor x="359" y="700" name="top"/>
	<outline>
		<contour>
			<point x="523" y="28" type="curve" smooth="yes"/>
			<point x="469" y="621" type="line" smooth="yes"/>
			<point x="464" y="679"/>
			<point x="414" y="710"/>
			<point x="355" y="710" type="curve" smooth="yes"/>
			<point x="296" y="710"/>
			<point x="248" y="679"/>
			<point x="224" y="621" type="curve" smooth="yes"/>
			<point x="-18" y="28" type="line" smooth="yes"/>
			<point x="-25" y="11"/>
			<point x="-19" y="0"/>
			<point x="-1" y="0" type="curve" smooth="yes"/>
			<point x="34" y="0" type="line" smooth="yes"/>
			<point x="49" y="0"/>
			<point x="61" y="7"/>
			<point x="66" y="22" type="curve"/>
			<point x="147" y="220" type="line"/>
			<point x="419" y="220" type="line"/>
			<point x="437" y="22" type="line"/>
			<point x="439" y="7"/>
			<point x="446" y="0"/>
			<point x="461" y="0" type="curve" smooth="yes"/>
			<point x="497" y="0" type="line" smooth="yes"/>
			<point x="514" y="0"/>
			<point x="525" y="11"/>
		</contour>
		<contour>
			<point x="178" y="296" type="line"/>
			<point x="306" y="607" type="line"/>
			<point x="312" y="625"/>
			<point x="332" y="634"/>
			<point x="349" y="634" type="curve" smooth="yes"/>
			<point x="366" y="634"/>
			<point x="382" y="625"/>
			<point x="384" y="607" type="curve" smooth="yes"/>
			<point x="412" y="296" type="line"/>
		</contour>
	</outline>
</glyph>
<glyph name="B" format="2">
	<advance width="575"/>
	<unicode hex="0042"/>
	<outline>
		<contour>
			<point x="123" y="624" type="curve" smooth="yes"/>
			<point x="161" y="624" type="line"/>
			<point x="66" y="25" type="line"/>
			<point x="64" y="9"/>
			<point x="71" y="0"/>
			<point x="87" y="0" type="curve" smooth="yes"/>
			<point x="224" y="0" type="line" smooth="yes"/>
			<point x="382" y="0"/>
			<point x="507" y="75"/>
			<point x="507" y="213" type="curve" smooth="yes"/>
			<point x="507" y="289"/>
			<point x="469" y="346"/>
			<point x="401" y="370" type="curve"/>
			<point x="473" y="404"/>
			<point x="519" y="476"/>
			<point x="519" y="553" type="curve" smooth="yes"/>
			<point x="519" y="658"/>
			<point x="435" y="700"/>
			<point x="315" y="700" type="curve" smooth="yes"/>
			<point x="135" y="700" type="line"/>
			<point x="118" y="700"/>
			<point x="109" y="691"/>
			<point x="106" y="675" type="curve" smooth="yes"/>
			<point x="102" y="649" type="line" smooth="yes"/>
			<point x="100" y="633"/>
			<point x="106" y="624"/>
		</contour>
		<contour>
			<point x="268" y="403" type="curve" smooth="yes"/>
			<point x="211" y="403" type="line"/>
			<point x="246" y="624" type="line"/>
			<point x="303" y="624" type="line" smooth="yes"/>
			<point x="394" y="624"/>
			<point x="442" y="591"/>
			<point x="442" y="527" type="curve" smooth="yes"/>
			<point x="442" y="448"/>
			<point x="370" y="403"/>
		</contour>
		<contour>
			<point x="237" y="77" type="curve" smooth="yes"/>
			<point x="160" y="77" type="line"/>
			<point x="199" y="326" type="line"/>
			<point x="276" y="326" type="line" smooth="yes"/>
			<point x="362" y="326"/>
			<point x="431" y="299"/>
			<point x="431" y="215" type="curve" smooth="yes"/>
			<point x="431" y="121"/>
			<point x="348" y="77"/>
		</contour>
	</outline>
</glyph>
<glyph name="C" format="1">
  <advance width="575"/>
  <unicode hex="0043"/>
  <outline>
    <contour>
      <point x="448" y="82"/>
      <point x="438" y="87"/>
      <point x="422" y="81" type="curve" smooth="yes"/>
      <point x="376" y="65"/>
      <point x="339" y="58"/>
      <point x="308" y="58" type="curve" smooth="yes"/>
      <point x="241" y="58"/>
      <point x="172" y="91"/>
      <point x="172" y="217" type="curve" smooth="yes"/>
      <point x="172" y="253"/>
      <point x="176" y="286"/>
      <point x="193" y="390" type="curve" smooth="yes"/>
      <point x="224" y="586"/>
      <point x="320" y="632"/>
      <point x="399" y="632" type="curve" smooth="yes"/>
      <point x="430" y="632"/>
      <point x="464" y="625"/>
      <point x="506" y="609" type="curve" smooth="yes"/>
      <point x="520" y="603"/>
      <point x="532" y="608"/>
      <point x="540" y="623" type="curve" smooth="yes"/>
      <point x="554" y="647" type="line" smooth="yes"/>
      <point x="562" y="662"/>
      <point x="560" y="674"/>
      <point x="546" y="680" type="curve" smooth="yes"/>
      <point x="502" y="700"/>
      <point x="458" y="710"/>
      <point x="413" y="710" type="curve" smooth="yes"/>
      <point x="295" y="710"/>
      <point x="147" y="640"/>
      <point x="107" y="390" type="curve" smooth="yes"/>
      <point x="90" y="280"/>
      <point x="85" y="246"/>
      <point x="85" y="207" type="curve" smooth="yes"/>
      <point x="85" y="33"/>
      <point x="194" y="-20"/>
      <point x="297" y="-20" type="curve" smooth="yes"/>
      <point x="342" y="-20"/>
      <point x="390" y="-10"/>
      <point x="440" y="10" type="curve" smooth="yes"/>
      <point x="456" y="16"/>
      <point x="462" y="28"/>
      <point x="458" y="43" type="curve" smooth="yes"/>
      <point x="452" y="67" type="line" smooth="yes"/>
    </contour>
    <contour>
      <point x="359" y="700" type="move" name="top"/>
    </contour>
    <contour>
      <point x="248" y="0" type="move" name="bottom"/>
    </contour>
  </outline>
</glyph>
<glyph name="D" format="2">
	<advance width="575"/>
	<unicode hex="0044"/>
	<outline>
		<contour>
			<point x="185" y="700" type="curve" smooth="yes"/>
			<point x="133" y="700" type="line" smooth="yes"/>
			<point x="118" y="700"/>
			<point x="108" y="692"/>
			<point x="106" y="677" type="curve" smooth="yes"/>
			<point x="102" y="651" type="line" smooth="yes"/>
			<point x="99" y="634"/>
			<point x="108" y="624"/>
			<point x="125" y="624" type="curve" smooth="yes"/>
			<point x="161" y="624" type="line"/>
			<point x="66" y="27" type="line" smooth="yes"/>
			<point x="63" y="10"/>
			<point x="72" y="0"/>
			<point x="89" y="0" type="curve" smooth="yes"/>
			<point x="143" y="0" type="line" smooth="yes"/>
			<point x="394" y="0"/>
			<point x="494" y="102"/>
			<point x="528" y="320" type="curve" smooth="yes"/>
			<point x="542" y="405"/>
			<point x="546" y="433"/>
			<point x="546" y="473" type="curve" smooth="yes"/>
			<point x="546" y="648"/>
			<point x="402" y="700"/>
		</contour>
		<contour>
			<point x="444" y="332" type="curve" smooth="yes"/>
			<point x="415" y="145"/>
			<point x="345" y="80"/>
			<point x="160" y="76" type="curve"/>
			<point x="247" y="622" type="line"/>
			<point x="405" y="614"/>
			<point x="461" y="570"/>
			<point x="461" y="473" type="curve" smooth="yes"/>
			<point x="461" y="441"/>
			<point x="459" y="420"/>
		</contour>
	</outline>
</glyph>
<glyph name="E" format="1">
  <advance width="575"/>
  <unicode hex="0045"/>
  <outline>
    <contour>
      <point x="143" y="77" type="line"/>
      <point x="182" y="326" type="line"/>
      <point x="460" y="326" type="line" smooth="yes"/>
      <point x="476" y="326"/>
      <point x="486" y="335"/>
      <point x="489" y="351" type="curve" smooth="yes"/>
      <point x="493" y="378" type="line" smooth="yes"/>
      <point x="496" y="394"/>
      <point x="488" y="403"/>
      <point x="472" y="403" type="curve" smooth="yes"/>
      <point x="194" y="403" type="line"/>
      <point x="229" y="624" type="line"/>
      <point x="528" y="624" type="line" smooth="yes"/>
      <point x="544" y="624"/>
      <point x="555" y="632"/>
      <point x="557" y="649" type="curve" smooth="yes"/>
      <point x="561" y="675" type="line" smooth="yes"/>
      <point x="564" y="692"/>
      <point x="556" y="700"/>
      <point x="540" y="700" type="curve" smooth="yes"/>
      <point x="181" y="700" type="line" smooth="yes"/>
      <point x="165" y="700"/>
      <point x="155" y="691"/>
      <point x="152" y="675" type="curve" smooth="yes"/>
      <point x="49" y="25" type="line" smooth="yes"/>
      <point x="47" y="9"/>
      <point x="54" y="0"/>
      <point x="70" y="0" type="curve" smooth="yes"/>
      <point x="451" y="0" type="line" smooth="yes"/>
      <point x="467" y="0"/>
      <point x="478" y="9"/>
      <point x="480" y="25" type="curve" smooth="yes"/>
      <point x="485" y="52" type="line" smooth="yes"/>
      <point x="487" y="68"/>
      <point x="480" y="77"/>
      <point x="464" y="77" type="curve" smooth="yes"/>
    </contour>
  </outline>
</glyph>
<glyph name="F" format="1">
  <advance width="575"/>
  <unicode hex="0046"/>
  <outline>
    <contour>
      <point x="181" y="700" type="line"/>
      <point x="165" y="700"/>
      <point x="155" y="691"/>
      <point x="152" y="675" type="curve" smooth="yes"/>
      <point x="49" y="25" type="line" smooth="yes"/>
      <point x="47" y="9"/>
      <point x="54" y="0"/>
      <point x="70" y="0" type="curve" smooth="yes"/>
      <point x="105" y="0" type="line" smooth="yes"/>
      <point x="122" y="0"/>
      <point x="132" y="9"/>
      <point x="134" y="25" type="curve" smooth="yes"/>
      <point x="177" y="292" type="line"/>
      <point x="476" y="292" type="line" smooth="yes"/>
      <point x="492" y="292"/>
      <point x="502" y="300"/>
      <point x="504" y="316" type="curve" smooth="yes"/>
      <point x="509" y="343" type="line" smooth="yes"/>
      <point x="511" y="359"/>
      <point x="504" y="368"/>
      <point x="488" y="368" type="curve" smooth="yes"/>
      <point x="189" y="368" type="line"/>
      <point x="229" y="624" type="line"/>
      <point x="550" y="624" type="line" smooth="yes"/>
      <point x="566" y="624"/>
      <point x="577" y="632"/>
      <point x="579" y="649" type="curve" smooth="yes"/>
      <point x="583" y="675" type="line" smooth="yes"/>
      <point x="586" y="692"/>
      <point x="578" y="700"/>
      <point x="562" y="700" type="curve"/>
    </contour>
  </outline>
</glyph>
<glyph name="G" format="2">
	<advance width="575"/>
	<unicode hex="0047"/>
	<anchor x="248" y="0" name="bottom"/>
	<anchor x="359" y="700" name="top"/>
	<outline>
		<contour>
			<point x="497" y="389" type="curve" smooth="yes"/>
			<point x="365" y="389" type="line" smooth="yes"/>
			<point x="349" y="389"/>
			<point x="339" y="380"/>
			<point x="336" y="363" type="curve" smooth="yes"/>
			<point x="332" y="337" type="line" smooth="yes"/>
			<point x="329" y="321"/>
			<point x="336" y="312"/>
			<point x="353" y="312" type="curve" smooth="yes"/>
			<point x="425" y="312" type="line"/>
			<point x="386" y="70" type="line"/>
			<point x="356" y="62"/>
			<point x="330" y="58"/>
			<point x="308" y="58" type="curve" smooth="yes"/>
			<point x="241" y="58"/>
			<point x="172" y="91"/>
			<point x="172" y="217" type="curve" smooth="yes"/>
			<point x="172" y="253"/>
			<point x="176" y="286"/>
			<point x="193" y="390" type="curve" smooth="yes"/>
			<point x="224" y="586"/>
			<point x="320" y="632"/>
			<point x="399" y="632" type="curve" smooth="yes"/>
			<point x="430" y="632"/>
			<point x="464" y="625"/>
			<point x="506" y="609" type="curve" smooth="yes"/>
			<point x="520" y="603"/>
			<point x="532" y="608"/>
			<point x="540" y="623" type="curve" smooth="yes"/>
			<point x="554" y="647" type="line" smooth="yes"/>
			<point x="562" y="662"/>
			<point x="560" y="674"/>
			<point x="546" y="680" type="curve" smooth="yes"/>
			<point x="502" y="700"/>
			<point x="458" y="710"/>
			<point x="413" y="710" type="curve" smooth="yes"/>
			<point x="295" y="710"/>
			<point x="147" y="640"/>
			<point x="107" y="390" type="curve" smooth="yes"/>
			<point x="90" y="280"/>
			<point x="85" y="246"/>
			<point x="85" y="206" type="curve" smooth="yes"/>
			<point x="85" y="33"/>
			<point x="194" y="-20"/>
			<point x="297" y="-20" type="curve" smooth="yes"/>
			<point x="342" y="-20"/>
			<point x="391" y="-10"/>
			<point x="443" y="11" type="curve" smooth="yes"/>
			<point x="457" y="17"/>
			<point x="465" y="27"/>
			<point x="467" y="41" type="curve" smooth="yes"/>
			<point x="518" y="364" type="line" smooth="yes"/>
			<point x="521" y="380"/>
			<point x="513" y="389"/>
		</contour>
	</outline>
</glyph>
<glyph name="H" format="2">
	<advance width="575"/>
	<unicode hex="0048"/>
	<anchor x="248" y="0" name="bottom"/>
	<anchor x="304" y="350" name="center"/>
	<anchor x="359" y="700" name="top"/>
	<anchor x="91" y="700" name="topleft"/>
	<outline>
		<contour>
			<point x="553" y="700" type="curve" smooth="yes"/>
			<point x="518" y="700" type="line" smooth="yes"/>
			<point x="502" y="700"/>
			<point x="492" y="692"/>
			<point x="489" y="675" type="curve" smooth="yes"/>
			<point x="447" y="410" type="line"/>
			<point x="178" y="410" type="line"/>
			<point x="220" y="675" type="line" smooth="yes"/>
			<point x="223" y="692"/>
			<point x="216" y="700"/>
			<point x="199" y="700" type="curve" smooth="yes"/>
			<point x="164" y="700" type="line" smooth="yes"/>
			<point x="148" y="700"/>
			<point x="138" y="691"/>
			<point x="135" y="675" type="curve" smooth="yes"/>
			<point x="32" y="25" type="line"/>
			<point x="30" y="9"/>
			<point x="37" y="0"/>
			<point x="53" y="0" type="curve" smooth="yes"/>
			<point x="88" y="0" type="line" smooth="yes"/>
			<point x="105" y="0"/>
			<point x="115" y="9"/>
			<point x="117" y="25" type="curve" smooth="yes"/>
			<point x="166" y="333" type="line"/>
			<point x="435" y="333" type="line"/>
			<point x="386" y="25" type="line" smooth="yes"/>
			<point x="384" y="9"/>
			<point x="391" y="0"/>
			<point x="407" y="0" type="curve" smooth="yes"/>
			<point x="442" y="0" type="line" smooth="yes"/>
			<point x="459" y="0"/>
			<point x="469" y="9"/>
			<point x="471" y="25" type="curve" smooth="yes"/>
			<point x="574" y="675" type="line" smooth="yes"/>
			<point x="577" y="692"/>
			<point x="569" y="700"/>
		</contour>
	</outline>
</glyph>
<glyph name="I" format="1">
  <advance width="575"/>
  <unicode hex="0049"/>
  <outline>
    <contour>
      <point x="191" y="700" type="line" smooth="yes"/>
      <point x="175" y="700"/>
      <point x="165" y="692"/>
      <point x="162" y="675" type="curve" smooth="yes"/>
      <point x="158" y="649" type="line" smooth="yes"/>
      <point x="156" y="633"/>
      <point x="163" y="624"/>
      <point x="179" y="624" type="curve" smooth="yes"/>
      <point x="304" y="624" type="line"/>
      <point x="218" y="77" type="line"/>
      <point x="83" y="77" type="line" smooth="yes"/>
      <point x="67" y="77"/>
      <point x="56" y="68"/>
      <point x="54" y="52" type="curve" smooth="yes"/>
      <point x="49" y="25" type="line" smooth="yes"/>
      <point x="47" y="9"/>
      <point x="54" y="0"/>
      <point x="70" y="0" type="curve" smooth="yes"/>
      <point x="425" y="0" type="line" smooth="yes"/>
      <point x="442" y="0"/>
      <point x="452" y="9"/>
      <point x="454" y="25" type="curve" smooth="yes"/>
      <point x="459" y="52" type="line" smooth="yes"/>
      <point x="461" y="68"/>
      <point x="455" y="77"/>
      <point x="438" y="77" type="curve" smooth="yes"/>
      <point x="303" y="77" type="line"/>
      <point x="389" y="624" type="line"/>
      <point x="514" y="624" type="line" smooth="yes"/>
      <point x="530" y="624"/>
      <point x="541" y="632"/>
      <point x="543" y="649" type="curve" smooth="yes"/>
      <point x="547" y="675" type="line" smooth="yes"/>
      <point x="550" y="692"/>
      <point x="542" y="700"/>
      <point x="526" y="700" type="curve" smooth="yes"/>
    </contour>
    <contour>
      <point x="477" y="10" type="move" name="ogonek"/>
    </contour>
    <contour>
      <point x="359" y="700" type="move" name="top"/>
    </contour>
    <contour>
      <point x="91" y="700" type="move" name="topleft"/>
    </contour>
    <contour>
      <point x="248" y="0" type="move" name="bottom"/>
    </contour>
  </outline>
</glyph>
<glyph name="J" format="1">
  <advance width="575"/>
  <unicode hex="004A"/>
  <outline>
    <contour>
      <point x="268" y="700" type="line" smooth="yes"/>
      <point x="252" y="700"/>
      <point x="242" y="691"/>
      <point x="239" y="675" type="curve" smooth="yes"/>
      <point x="235" y="649" type="line" smooth="yes"/>
      <point x="233" y="632"/>
      <point x="240" y="624"/>
      <point x="256" y="624" type="curve" smooth="yes"/>
      <point x="464" y="624" type="line"/>
      <point x="409" y="275" type="line" smooth="yes"/>
      <point x="390" y="153"/>
      <point x="332" y="67"/>
      <point x="176" y="67" type="curve" smooth="yes"/>
      <point x="155" y="67"/>
      <point x="112" y="69"/>
      <point x="67" y="78" type="curve" smooth="yes"/>
      <point x="51" y="81"/>
      <point x="39" y="75"/>
      <point x="33" y="59" type="curve" smooth="yes"/>
      <point x="22" y="33" type="line" smooth="yes"/>
      <point x="15" y="17"/>
      <point x="20" y="6"/>
      <point x="36" y="3" type="curve" smooth="yes"/>
      <point x="88" y="-8"/>
      <point x="134" y="-10"/>
      <point x="164" y="-10" type="curve" smooth="yes"/>
      <point x="328" y="-10"/>
      <point x="459" y="52"/>
      <point x="494" y="275" type="curve" smooth="yes"/>
      <point x="557" y="675" type="line" smooth="yes"/>
      <point x="560" y="692"/>
      <point x="553" y="700"/>
      <point x="536" y="700" type="curve" smooth="yes"/>
    </contour>
    <contour>
      <point x="359" y="700" type="move" name="top"/>
    </contour>
    <contour>
      <point x="248" y="0" type="move" name="bottom"/>
    </contour>
  </outline>
</glyph>
<glyph name="K" format="2">
	<advance width="575"/>
	<unicode hex="004B"/>
	<anchor x="248" y="0" name="bottom"/>
	<anchor x="359" y="700" name="top"/>
	<outline>
		<contour>
			<point x="403" y="0" type="curve" smooth="yes"/>
			<point x="455" y="0" type="line" smooth="yes"/>
			<point x="476" y="0"/>
			<point x="486" y="14"/>
			<point x="475" y="31" type="curve" smooth="yes"/>
			<point x="280" y="360" type="line"/>
			<point x="562" y="670" type="line" smooth="yes"/>
			<point x="577" y="687"/>
			<point x="572" y="700"/>
			<point x="551" y="700" type="curve" smooth="yes"/>
			<point x="498" y="700" type="line" smooth="yes"/>
			<point x="485" y="700"/>
			<point x="476" y="696"/>
			<point x="466" y="685" type="curve" smooth="yes"/>
			<point x="216" y="399" type="line"/>
			<point x="194" y="399" type="line"/>
			<point x="237" y="675" type="line" smooth="yes"/>
			<point x="240" y="692"/>
			<point x="233" y="700"/>
			<point x="216" y="700" type="curve" smooth="yes"/>
			<point x="181" y="700" type="line" smooth="yes"/>
			<point x="165" y="700"/>
			<point x="155" y="691"/>
			<point x="152" y="675" type="curve" smooth="yes"/>
			<point x="49" y="25" type="line" smooth="yes"/>
			<point x="47" y="9"/>
			<point x="54" y="0"/>
			<point x="70" y="0" type="curve" smooth="yes"/>
			<point x="105" y="0" type="line" smooth="yes"/>
			<point x="122" y="0"/>
			<point x="132" y="9"/>
			<point x="134" y="25" type="curve" smooth="yes"/>
			<point x="182" y="323" type="line"/>
			<point x="203" y="323" type="line"/>
			<point x="376" y="16" type="line" smooth="yes"/>
			<point x="381" y="5"/>
			<point x="389" y="0"/>
		</contour>
	</outline>
</glyph>
<glyph name="L" format="1">
  <advance width="575"/>
  <unicode hex="004C"/>
  <outline>
    <contour>
      <point x="143" y="77" type="line"/>
      <point x="237" y="675" type="line" smooth="yes"/>
      <point x="240" y="692"/>
      <point x="233" y="700"/>
      <point x="216" y="700" type="curve" smooth="yes"/>
      <point x="181" y="700" type="line" smooth="yes"/>
      <point x="165" y="700"/>
      <point x="155" y="691"/>
      <point x="152" y="675" type="curve" smooth="yes"/>
      <point x="49" y="25" type="line" smooth="yes"/>
      <point x="47" y="9"/>
      <point x="54" y="0"/>
      <point x="70" y="0" type="curve" smooth="yes"/>
      <point x="489" y="0" type="line" smooth="yes"/>
      <point x="505" y="0"/>
      <point x="516" y="9"/>
      <point x="518" y="25" type="curve" smooth="yes"/>
      <point x="523" y="52" type="line" smooth="yes"/>
      <point x="525" y="68"/>
      <point x="518" y="77"/>
      <point x="502" y="77" type="curve" smooth="yes"/>
    </contour>
  </outline>
</glyph>
<glyph name="M" format="2">
	<advance width="575"/>
	<unicode hex="004D"/>
	<outline>
		<contour>
			<point x="510" y="26" type="curve"/>
			<point x="593" y="680" type="line"/>
			<point x="596" y="696"/>
			<point x="588" y="705"/>
			<point x="570" y="705" type="curve" smooth="yes"/>
			<point x="554" y="705" type="line" smooth="yes"/>
			<point x="526" y="705"/>
			<point x="505" y="694"/>
			<point x="489" y="669" type="curve" smooth="yes"/>
			<point x="312" y="399" type="line"/>
			<point x="219" y="669" type="line" smooth="yes"/>
			<point x="211" y="694"/>
			<point x="194" y="705"/>
			<point x="166" y="705" type="curve" smooth="yes"/>
			<point x="150" y="705" type="line" smooth="yes"/>
			<point x="132" y="705"/>
			<point x="122" y="696"/>
			<point x="119" y="680" type="curve" smooth="yes"/>
			<point x="-4" y="26" type="line" smooth="yes"/>
			<point x="-7" y="11"/>
			<point x="2" y="0"/>
			<point x="17" y="0" type="curve" smooth="yes"/>
			<point x="51" y="0" type="line" smooth="yes"/>
			<point x="66" y="0"/>
			<point x="77" y="11"/>
			<point x="81" y="26" type="curve" smooth="yes"/>
			<point x="180" y="540" type="line"/>
			<point x="256" y="318" type="line" smooth="yes"/>
			<point x="260" y="305"/>
			<point x="268" y="300"/>
			<point x="282" y="300" type="curve" smooth="yes"/>
			<point x="310" y="300" type="line" smooth="yes"/>
			<point x="324" y="300"/>
			<point x="334" y="305"/>
			<point x="342" y="318" type="curve" smooth="yes"/>
			<point x="488" y="540" type="line"/>
			<point x="425" y="26" type="line" smooth="yes"/>
			<point x="423" y="11"/>
			<point x="430" y="0"/>
			<point x="445" y="0" type="curve" smooth="yes"/>
			<point x="479" y="0" type="line" smooth="yes"/>
			<point x="494" y="0"/>
			<point x="507" y="11"/>
		</contour>
	</outline>
</glyph>
<glyph name="N" format="2">
	<advance width="575"/>
	<unicode hex="004E"/>
	<anchor x="248" y="0" name="bottom"/>
	<anchor x="359" y="700" name="top"/>
	<outline>
		<contour>
			<point x="552" y="705" type="curve" smooth="yes"/>
			<point x="518" y="705" type="line" smooth="yes"/>
			<point x="503" y="705"/>
			<point x="491" y="694"/>
			<point x="489" y="679" type="curve" smooth="yes"/>
			<point x="408" y="169" type="line"/>
			<point x="237" y="669" type="line" smooth="yes"/>
			<point x="229" y="694"/>
			<point x="212" y="705"/>
			<point x="184" y="705" type="curve" smooth="yes"/>
			<point x="168" y="705" type="line" smooth="yes"/>
			<point x="150" y="705"/>
			<point x="140" y="696"/>
			<point x="137" y="680" type="curve" smooth="yes"/>
			<point x="34" y="26" type="line" smooth="yes"/>
			<point x="31" y="11"/>
			<point x="40" y="0"/>
			<point x="55" y="0" type="curve" smooth="yes"/>
			<point x="89" y="0" type="line" smooth="yes"/>
			<point x="104" y="0"/>
			<point x="116" y="11"/>
			<point x="119" y="26" type="curve" smooth="yes"/>
			<point x="198" y="527" type="line"/>
			<point x="370" y="36" type="line" smooth="yes"/>
			<point x="379" y="11"/>
			<point x="395" y="0"/>
			<point x="423" y="0" type="curve" smooth="yes"/>
			<point x="439" y="0" type="line" smooth="yes"/>
			<point x="457" y="0"/>
			<point x="468" y="9"/>
			<point x="470" y="25" type="curve" smooth="yes"/>
			<point x="574" y="679" type="line" smooth="yes"/>
			<point x="576" y="694"/>
			<point x="567" y="705"/>
		</contour>
	</outline>
</glyph>
<glyph name="O" format="2">
	<advance width="575"/>
	<unicode hex="004F"/>
	<outline>
		<contour>
			<point x="356" y="710" type="curve" smooth="yes"/>
			<point x="238" y="710"/>
			<point x="144" y="624"/>
			<point x="118" y="457" type="curve" smooth="yes"/>
			<point x="84" y="246"/>
			<point x="77" y="214"/>
			<point x="79" y="162" type="curve" smooth="yes"/>
			<point x="84" y="48"/>
			<point x="155" y="-10"/>
			<point x="252" y="-10" type="curve" smooth="yes"/>
			<point x="370" y="-10"/>
			<point x="463" y="78"/>
			<point x="489" y="243" type="curve" smooth="yes"/>
			<point x="522" y="456"/>
			<point x="528" y="480"/>
			<point x="528" y="519" type="curve" smooth="yes"/>
			<point x="528" y="644"/>
			<point x="458" y="710"/>
		</contour>
		<contour>
			<point x="264" y="66" type="curve" smooth="yes"/>
			<point x="214" y="66"/>
			<point x="173" y="104"/>
			<point x="166" y="172" type="curve" smooth="yes"/>
			<point x="162" y="215"/>
			<point x="168" y="237"/>
			<point x="203" y="457" type="curve" smooth="yes"/>
			<point x="221" y="569"/>
			<point x="279" y="634"/>
			<point x="344" y="634" type="curve" smooth="yes"/>
			<point x="399" y="634"/>
			<point x="442" y="587"/>
			<point x="442" y="503" type="curve" smooth="yes"/>
			<point x="442" y="475"/>
			<point x="436" y="443"/>
			<point x="404" y="243" type="curve" smooth="yes"/>
			<point x="386" y="131"/>
			<point x="329" y="66"/>
		</contour>
	</outline>
</glyph>
<glyph name="P" format="1">
  <advance width="575"/>
  <unicode hex="0050"/>
  <outline>
    <contour>
      <point x="181" y="700" type="line" smooth="yes"/>
      <point x="165" y="700"/>
      <point x="155" y="691"/>
      <point x="152" y="675" type="curve" smooth="yes"/>
      <point x="49" y="25" type="line" smooth="yes"/>
      <point x="47" y="9"/>
      <point x="54" y="0"/>
      <point x="70" y="0" type="curve" smooth="yes"/>
      <point x="105" y="0" type="line" smooth="yes"/>
      <point x="122" y="0"/>
      <point x="132" y="9"/>
      <point x="134" y="25" type="curve" smooth="yes"/>
      <point x="172" y="260" type="line"/>
      <point x="247" y="260" type="line" smooth="yes"/>
      <point x="418" y="260"/>
      <point x="556" y="360"/>
      <point x="556" y="508" type="curve" smooth="yes"/>
      <point x="556" y="616"/>
      <point x="480" y="700"/>
      <point x="316" y="700" type="curve" smooth="yes"/>
    </contour>
    <contour>
      <point x="184" y="336" type="line"/>
      <point x="229" y="624" type="line"/>
      <point x="304" y="624" type="line" smooth="yes"/>
      <point x="419" y="624"/>
      <point x="470" y="569"/>
      <point x="470" y="495" type="curve" smooth="yes"/>
      <point x="470" y="402"/>
      <point x="379" y="336"/>
      <point x="259" y="336" type="curve" smooth="yes"/>
    </contour>
  </outline>
</glyph>
<glyph name="Q" format="2">
	<advance width="575"/>
	<unicode hex="0051"/>
	<outline>
		<contour>
			<point x="480" y="-168" type="curve"/>
			<point x="473" y="-142" type="line"/>
			<point x="468" y="-127"/>
			<point x="458" y="-122"/>
			<point x="442" y="-128" type="curve" smooth="yes"/>
			<point x="414" y="-138"/>
			<point x="390" y="-142"/>
			<point x="365" y="-142" type="curve" smooth="yes"/>
			<point x="307" y="-142"/>
			<point x="273" y="-114"/>
			<point x="290" y="-6" type="curve" smooth="yes"/>
			<point x="298" y="43" type="line"/>
			<point x="212" y="43" type="line"/>
			<point x="204" y="-6" type="line" smooth="yes"/>
			<point x="179" y="-167"/>
			<point x="258" y="-220"/>
			<point x="353" y="-220" type="curve" smooth="yes"/>
			<point x="388" y="-220"/>
			<point x="426" y="-212"/>
			<point x="461" y="-200" type="curve"/>
			<point x="478" y="-195"/>
			<point x="483" y="-183"/>
		</contour>
		<component base="O"/>
	</outline>
</glyph>
<glyph name="R" format="2">
	<advance width="575"/>
	<unicode hex="0052"/>
	<outline>
		<contour>
			<point x="516" y="30" type="curve" smooth="yes"/>
			<point x="411" y="335" type="line"/>
			<point x="489" y="370"/>
			<point x="544" y="454"/>
			<point x="544" y="537" type="curve" smooth="yes"/>
			<point x="544" y="631"/>
			<point x="476" y="700"/>
			<point x="339" y="700" type="curve" smooth="yes"/>
			<point x="181" y="700" type="line" smooth="yes"/>
			<point x="165" y="700"/>
			<point x="155" y="692"/>
			<point x="152" y="675" type="curve" smooth="yes"/>
			<point x="49" y="25" type="line" smooth="yes"/>
			<point x="47" y="9"/>
			<point x="54" y="0"/>
			<point x="70" y="0" type="curve" smooth="yes"/>
			<point x="105" y="0" type="line" smooth="yes"/>
			<point x="121" y="0"/>
			<point x="132" y="9"/>
			<point x="134" y="25" type="curve" smooth="yes"/>
			<point x="180" y="312" type="line"/>
			<point x="325" y="312" type="line"/>
			<point x="425" y="18" type="line" smooth="yes"/>
			<point x="429" y="6"/>
			<point x="437" y="0"/>
			<point x="451" y="0" type="curve" smooth="yes"/>
			<point x="493" y="0" type="line" smooth="yes"/>
			<point x="512" y="0"/>
			<point x="522" y="12"/>
		</contour>
		<contour>
			<point x="290" y="389" type="curve" smooth="yes"/>
			<point x="192" y="389" type="line"/>
			<point x="229" y="624" type="line"/>
			<point x="327" y="624" type="line" smooth="yes"/>
			<point x="417" y="624"/>
			<point x="457" y="575"/>
			<point x="457" y="520" type="curve" smooth="yes"/>
			<point x="457" y="446"/>
			<point x="383" y="389"/>
		</contour>
	</outline>
</glyph>
<glyph name="S" format="2">
	<advance width="575"/>
	<unicode hex="0053"/>
	<anchor x="208" y="0" name="bottom"/>
	<anchor x="449" y="694" name="top"/>
	<outline>
		<contour>
			<point x="517" y="625" type="curve" smooth="yes"/>
			<point x="531" y="652" type="line" smooth="yes"/>
			<point x="538" y="668"/>
			<point x="538" y="676"/>
			<point x="525" y="683" type="curve" smooth="yes"/>
			<point x="486" y="701"/>
			<point x="432" y="710"/>
			<point x="389" y="710" type="curve" smooth="yes"/>
			<point x="248" y="710"/>
			<point x="122" y="623"/>
			<point x="122" y="493" type="curve" smooth="yes"/>
			<point x="122" y="415"/>
			<point x="171" y="345"/>
			<point x="295" y="318" type="curve" smooth="yes"/>
			<point x="382" y="299"/>
			<point x="419" y="256"/>
			<point x="419" y="204" type="curve" smooth="yes"/>
			<point x="419" y="118"/>
			<point x="323" y="69"/>
			<point x="226" y="69" type="curve" smooth="yes"/>
			<point x="192" y="69"/>
			<point x="141" y="75"/>
			<point x="105" y="91" type="curve"/>
			<point x="91" y="97"/>
			<point x="79" y="92"/>
			<point x="71" y="77" type="curve" smooth="yes"/>
			<point x="57" y="53" type="line" smooth="yes"/>
			<point x="48" y="38"/>
			<point x="51" y="26"/>
			<point x="65" y="20" type="curve" smooth="yes"/>
			<point x="107" y="0"/>
			<point x="161" y="-10"/>
			<point x="209" y="-10" type="curve" smooth="yes"/>
			<point x="357" y="-10"/>
			<point x="507" y="84"/>
			<point x="507" y="220" type="curve" smooth="yes"/>
			<point x="507" y="307"/>
			<point x="446" y="375"/>
			<point x="316" y="403" type="curve" smooth="yes"/>
			<point x="242" y="419"/>
			<point x="210" y="463"/>
			<point x="210" y="511" type="curve" smooth="yes"/>
			<point x="210" y="586"/>
			<point x="294" y="634"/>
			<point x="377" y="634" type="curve" smooth="yes"/>
			<point x="415" y="634"/>
			<point x="451" y="624"/>
			<point x="484" y="611" type="curve" smooth="yes"/>
			<point x="498" y="605"/>
			<point x="510" y="610"/>
		</contour>
	</outline>
</glyph>
<glyph name="T" format="1">
  <advance width="575"/>
  <unicode hex="0054"/>
  <outline>
    <contour>
      <point x="621" y="675" type="line" smooth="yes"/>
      <point x="624" y="692"/>
      <point x="616" y="700"/>
      <point x="600" y="700" type="curve" smooth="yes"/>
      <point x="118" y="700" type="line" smooth="yes"/>
      <point x="101" y="700"/>
      <point x="92" y="691"/>
      <point x="89" y="675" type="curve" smooth="yes"/>
      <point x="85" y="649" type="line" smooth="yes"/>
      <point x="83" y="633"/>
      <point x="89" y="624"/>
      <point x="105" y="624" type="curve" smooth="yes"/>
      <point x="304" y="624" type="line"/>
      <point x="209" y="25" type="line" smooth="yes"/>
      <point x="207" y="9"/>
      <point x="214" y="0"/>
      <point x="230" y="0" type="curve" smooth="yes"/>
      <point x="265" y="0" type="line" smooth="yes"/>
      <point x="282" y="0"/>
      <point x="292" y="9"/>
      <point x="294" y="25" type="curve" smooth="yes"/>
      <point x="389" y="624" type="line"/>
      <point x="588" y="624" type="line" smooth="yes"/>
      <point x="604" y="624"/>
      <point x="615" y="633"/>
      <point x="617" y="649" type="curve" smooth="yes"/>
    </contour>
  </outline>
</glyph>
<glyph name="U" format="1">
  <advance width="575"/>
  <unicode hex="0055"/>
  <outline>
    <contour>
      <point x="399" y="213" type="line" smooth="yes"/>
      <point x="382" y="103"/>
      <point x="355" y="66"/>
      <point x="271" y="66" type="curve" smooth="yes"/>
      <point x="202" y="66"/>
      <point x="159" y="90"/>
      <point x="159" y="159" type="curve" smooth="yes"/>
      <point x="159" y="174"/>
      <point x="161" y="192"/>
      <point x="164" y="213" type="curve" smooth="yes"/>
      <point x="237" y="675" type="line" smooth="yes"/>
      <point x="240" y="691"/>
      <point x="232" y="700"/>
      <point x="216" y="700" type="curve" smooth="yes"/>
      <point x="181" y="700" type="line" smooth="yes"/>
      <point x="165" y="700"/>
      <point x="155" y="691"/>
      <point x="152" y="675" type="curve" smooth="yes"/>
      <point x="79" y="213" type="line" smooth="yes"/>
      <point x="76" y="191"/>
      <point x="74" y="171"/>
      <point x="74" y="152" type="curve" smooth="yes"/>
      <point x="74" y="32"/>
      <point x="157" y="-10"/>
      <point x="259" y="-10" type="curve" smooth="yes"/>
      <point x="377" y="-10"/>
      <point x="458" y="46"/>
      <point x="484" y="213" type="curve" smooth="yes"/>
      <point x="557" y="675" type="line" smooth="yes"/>
      <point x="560" y="691"/>
      <point x="552" y="700"/>
      <point x="536" y="700" type="curve" smooth="yes"/>
      <point x="501" y="700" type="line" smooth="yes"/>
      <point x="485" y="700"/>
      <point x="475" y="691"/>
      <point x="472" y="675" type="curve" smooth="yes"/>
    </contour>
    <contour>
      <point x="477" y="10" type="move" name="ogonek"/>
    </contour>
    <contour>
      <point x="359" y="700" type="move" name="top"/>
    </contour>
    <contour>
      <point x="626" y="700" type="move" name="topright"/>
    </contour>
    <contour>
      <point x="248" y="0" type="move" name="bottom"/>
    </contour>
  </outline>
</glyph>
<glyph name="V" format="1">
  <advance width="575"/>
  <unicode hex="0056"/>
  <outline>
    <contour>
      <point x="625" y="672" type="line" smooth="yes"/>
      <point x="633" y="689"/>
      <point x="625" y="700"/>
      <point x="608" y="700" type="curve" smooth="yes"/>
      <point x="572" y="700" type="line" smooth="yes"/>
      <point x="557" y="700"/>
      <point x="547" y="693"/>
      <point x="541" y="678" type="curve"/>
      <point x="302" y="93" type="line"/>
      <point x="295" y="75"/>
      <point x="276" y="66"/>
      <point x="259" y="66" type="curve" smooth="yes"/>
      <point x="242" y="66"/>
      <point x="225" y="75"/>
      <point x="224" y="93" type="curve"/>
      <point x="170" y="678" type="line"/>
      <point x="169" y="693"/>
      <point x="160" y="700"/>
      <point x="145" y="700" type="curve" smooth="yes"/>
      <point x="110" y="700" type="line" smooth="yes"/>
      <point x="92" y="700"/>
      <point x="83" y="689"/>
      <point x="84" y="672" type="curve" smooth="yes"/>
      <point x="138" y="79" type="line" smooth="yes"/>
      <point x="144" y="21"/>
      <point x="194" y="-10"/>
      <point x="253" y="-10" type="curve" smooth="yes"/>
      <point x="312" y="-10"/>
      <point x="360" y="21"/>
      <point x="383" y="79" type="curve" smooth="yes"/>
    </contour>
  </outline>
</glyph>
<glyph name="X" format="1">
  <advance width="575"/>
  <unicode hex="0058"/>
  <outline>
    <contour>
      <point x="595" y="671" type="line" smooth="yes"/>
      <point x="606" y="688"/>
      <point x="600" y="700"/>
      <point x="581" y="700" type="curve" smooth="yes"/>
      <point x="550" y="700" type="line" smooth="yes"/>
      <point x="536" y="700"/>
      <point x="525" y="695"/>
      <point x="517" y="682" type="curve" smooth="yes"/>
      <point x="345" y="419" type="line" smooth="yes"/>
      <point x="332" y="399"/>
      <point x="320" y="390"/>
      <point x="310" y="390" type="curve" smooth="yes"/>
      <point x="299" y="390"/>
      <point x="291" y="400"/>
      <point x="285" y="419" type="curve" smooth="yes"/>
      <point x="194" y="682" type="line" smooth="yes"/>
      <point x="190" y="695"/>
      <point x="182" y="700"/>
      <point x="168" y="700" type="curve" smooth="yes"/>
      <point x="137" y="700" type="line" smooth="yes"/>
      <point x="117" y="700"/>
      <point x="108" y="688"/>
      <point x="114" y="671" type="curve" smooth="yes"/>
      <point x="205" y="390" type="line" smooth="yes"/>
      <point x="209" y="376"/>
      <point x="222" y="364"/>
      <point x="237" y="357" type="curve"/>
      <point x="220" y="351"/>
      <point x="203" y="338"/>
      <point x="195" y="325" type="curve" smooth="yes"/>
      <point x="5" y="30" type="line" smooth="yes"/>
      <point x="-6" y="12"/>
      <point x="0" y="0"/>
      <point x="19" y="0" type="curve" smooth="yes"/>
      <point x="50" y="0" type="line" smooth="yes"/>
      <point x="64" y="0"/>
      <point x="74" y="6"/>
      <point x="82" y="18" type="curve" smooth="yes"/>
      <point x="265" y="295" type="line" smooth="yes"/>
      <point x="277" y="315"/>
      <point x="289" y="325"/>
      <point x="300" y="325" type="curve" smooth="yes"/>
      <point x="310" y="325"/>
      <point x="318" y="315"/>
      <point x="325" y="295" type="curve" smooth="yes"/>
      <point x="419" y="18" type="line" smooth="yes"/>
      <point x="423" y="6"/>
      <point x="432" y="0"/>
      <point x="446" y="0" type="curve" smooth="yes"/>
      <point x="477" y="0" type="line" smooth="yes"/>
      <point x="496" y="0"/>
      <point x="505" y="12"/>
      <point x="500" y="30" type="curve" smooth="yes"/>
      <point x="405" y="325" type="line" smooth="yes"/>
      <point x="400" y="338"/>
      <point x="388" y="351"/>
      <point x="372" y="357" type="curve"/>
      <point x="390" y="364"/>
      <point x="406" y="376"/>
      <point x="415" y="390" type="curve" smooth="yes"/>
    </contour>
  </outline>
</glyph>
<glyph name="Y" format="1">
  <advance width="575"/>
  <unicode hex="0059"/>
  <outline>
    <contour>
      <point x="567" y="700" type="line" smooth="yes"/>
      <point x="553" y="700"/>
      <point x="542" y="695"/>
      <point x="534" y="682" type="curve" smooth="yes"/>
      <point x="355" y="410" type="line" smooth="yes"/>
      <point x="343" y="391"/>
      <point x="327" y="380"/>
      <point x="309" y="380" type="curve" smooth="yes"/>
      <point x="291" y="380"/>
      <point x="277" y="391"/>
      <point x="270" y="410" type="curve" smooth="yes"/>
      <point x="177" y="682" type="line" smooth="yes"/>
      <point x="173" y="695"/>
      <point x="165" y="700"/>
      <point x="151" y="700" type="curve" smooth="yes"/>
      <point x="114" y="700" type="line" smooth="yes"/>
      <point x="95" y="700"/>
      <point x="85" y="688"/>
      <point x="92" y="671" type="curve" smooth="yes"/>
      <point x="191" y="380" type="line" smooth="yes"/>
      <point x="201" y="347"/>
      <point x="224" y="325"/>
      <point x="255" y="315" type="curve"/>
      <point x="209" y="25" type="line" smooth="yes"/>
      <point x="207" y="9"/>
      <point x="214" y="0"/>
      <point x="230" y="0" type="curve" smooth="yes"/>
      <point x="265" y="0" type="line" smooth="yes"/>
      <point x="281" y="0"/>
      <point x="292" y="9"/>
      <point x="294" y="25" type="curve" smooth="yes"/>
      <point x="340" y="315" type="line"/>
      <point x="375" y="325"/>
      <point x="404" y="347"/>
      <point x="426" y="380" type="curve" smooth="yes"/>
      <point x="617" y="671" type="line" smooth="yes"/>
      <point x="628" y="688"/>
      <point x="623" y="700"/>
      <point x="603" y="700" type="curve" smooth="yes"/>
    </contour>
  </outline>
</glyph>
<glyph name="Z" format="2">
	<advance width="575"/>
	<unicode hex="005A"/>
	<anchor x="248" y="0" name="bottom"/>
	<anchor x="304" y="350" name="center"/>
	<anchor x="359" y="700" name="top"/>
	<outline>
		<contour>
			<point x="191" y="217" type="curve" smooth="yes"/>
			<point x="466" y="455" type="line" smooth="yes"/>
			<point x="523" y="504"/>
			<point x="561" y="572"/>
			<point x="573" y="645" type="curve" smooth="yes"/>
			<point x="577" y="675" type="line" smooth="yes"/>
			<point x="580" y="692"/>
			<point x="573" y="700"/>
			<point x="556" y="700" type="curve" smooth="yes"/>
			<point x="192" y="700" type="line" smooth="yes"/>
			<point x="176" y="700"/>
			<point x="166" y="692"/>
			<point x="163" y="675" type="curve" smooth="yes"/>
			<point x="159" y="649" type="line" smooth="yes"/>
			<point x="157" y="633"/>
			<point x="164" y="624"/>
			<point x="180" y="624" type="curve" smooth="yes"/>
			<point x="483" y="624" type="line"/>
			<point x="472" y="571"/>
			<point x="449" y="529"/>
			<point x="420" y="504" type="curve" smooth="yes"/>
			<point x="143" y="265" type="line" smooth="yes"/>
			<point x="87" y="216"/>
			<point x="48" y="142"/>
			<point x="34" y="55" type="curve" smooth="yes"/>
			<point x="29" y="25" type="line" smooth="yes"/>
			<point x="27" y="9"/>
			<point x="34" y="0"/>
			<point x="50" y="0" type="curve" smooth="yes"/>
			<point x="445" y="0" type="line" smooth="yes"/>
			<point x="461" y="0"/>
			<point x="472" y="9"/>
			<point x="474" y="25" type="curve" smooth="yes"/>
			<point x="479" y="52" type="line" smooth="yes"/>
			<point x="481" y="68"/>
			<point x="474" y="77"/>
			<point x="458" y="77" type="curve" smooth="yes"/>
			<point x="123" y="77" type="line"/>
			<point x="136" y="141"/>
			<point x="159" y="190"/>
		</contour>
	</outline>
</glyph>
<glyph name="bracketleft" format="1">
  <advance width="575"/>
  <unicode hex="005B"/>
  <outline>
    <contour>
      <point x="179" y="-102" type="line"/>
      <point x="302" y="674" type="line"/>
      <point x="517" y="674" type="line" smooth="yes"/>
      <point x="534" y="674"/>
      <point x="543" y="682"/>
      <point x="546" y="699" type="curve" smooth="yes"/>
      <point x="550" y="725" type="line" smooth="yes"/>
      <point x="553" y="742"/>
      <point x="545" y="750"/>
      <point x="529" y="750" type="curve" smooth="yes"/>
      <point x="254" y="750" type="line" smooth="yes"/>
      <point x="238" y="750"/>
      <point x="228" y="741"/>
      <point x="225" y="725" type="curve" smooth="yes"/>
      <point x="86" y="-153" type="line" smooth="yes"/>
      <point x="83" y="-170"/>
      <point x="91" y="-178"/>
      <point x="107" y="-178" type="curve" smooth="yes"/>
      <point x="382" y="-178" type="line" smooth="yes"/>
      <point x="399" y="-178"/>
      <point x="408" y="-170"/>
      <point x="411" y="-153" type="curve" smooth="yes"/>
      <point x="415" y="-127" type="line" smooth="yes"/>
      <point x="418" y="-111"/>
      <point x="410" y="-102"/>
      <point x="394" y="-102" type="curve" smooth="yes"/>
    </contour>
  </outline>
</glyph>
<glyph name="backslash" format="2">
	<advance width="575"/>
	<unicode hex="005C"/>
	<outline>
		<contour>
			<point x="471" y="-144" type="curve" smooth="yes"/>
			<point x="188" y="682" type="line" smooth="yes"/>
			<point x="184" y="696"/>
			<point x="172" y="700"/>
			<point x="157" y="693" type="curve" smooth="yes"/>
			<point x="123" y="677" type="line" smooth="yes"/>
			<point x="108" y="670"/>
			<point x="102" y="658"/>
			<point x="106" y="644" type="curve" smooth="yes"/>
			<point x="389" y="-182" type="line" smooth="yes"/>
			<point x="393" y="-196"/>
			<point x="405" y="-200"/>
			<point x="420" y="-193" type="curve" smooth="yes"/>
			<point x="454" y="-177" type="line" smooth="yes"/>
			<point x="469" y="-170"/>
			<point x="475" y="-158"/>
		</contour>
	</outline>
</glyph>
<glyph name="bracketright" format="1">
  <advance width="575"/>
  <unicode hex="005D"/>
  <outline>
    <contour>
      <point x="204" y="750" type="line" smooth="yes"/>
      <point x="188" y="750"/>
      <point x="178" y="742"/>
      <point x="175" y="725" type="curve" smooth="yes"/>
      <point x="171" y="699" type="line" smooth="yes"/>
      <point x="169" y="683"/>
      <point x="176" y="674"/>
      <point x="192" y="674" type="curve" smooth="yes"/>
      <point x="407" y="674" type="line"/>
      <point x="284" y="-102" type="line"/>
      <point x="69" y="-102" type="line" smooth="yes"/>
      <point x="53" y="-102"/>
      <point x="43" y="-110"/>
      <point x="40" y="-127" type="curve" smooth="yes"/>
      <point x="36" y="-153" type="line" smooth="yes"/>
      <point x="33" y="-170"/>
      <point x="41" y="-178"/>
      <point x="57" y="-178" type="curve" smooth="yes"/>
      <point x="332" y="-178" type="line" smooth="yes"/>
      <point x="349" y="-178"/>
      <point x="359" y="-169"/>
      <point x="361" y="-153" type="curve" smooth="yes"/>
      <point x="500" y="725" type="line" smooth="yes"/>
      <point x="503" y="742"/>
      <point x="495" y="750"/>
      <point x="479" y="750" type="curve" smooth="yes"/>
    </contour>
  </outline>
</glyph>
<glyph name="asciicircum" format="1">
  <advance width="575"/>
  <unicode hex="005E"/>
  <outline>
    <contour>
      <point x="68" y="499" type="line" smooth="yes"/>
      <point x="55" y="487"/>
      <point x="53" y="474"/>
      <point x="64" y="463" type="curve" smooth="yes"/>
      <point x="84" y="443" type="line" smooth="yes"/>
      <point x="94" y="432"/>
      <point x="106" y="432"/>
      <point x="119" y="444" type="curve" smooth="yes"/>
      <point x="333" y="633" type="line" smooth="yes"/>
      <point x="336" y="636"/>
      <point x="343" y="642"/>
      <point x="350" y="642" type="curve" smooth="yes"/>
      <point x="357" y="642"/>
      <point x="360" y="639"/>
      <point x="364" y="633" type="curve" smooth="yes"/>
      <point x="518" y="444" type="line" smooth="yes"/>
      <point x="528" y="432"/>
      <point x="540" y="432"/>
      <point x="554" y="443" type="curve" smooth="yes"/>
      <point x="579" y="463" type="line" smooth="yes"/>
      <point x="593" y="474"/>
      <point x="596" y="487"/>
      <point x="585" y="499" type="curve" smooth="yes"/>
      <point x="425" y="682" type="line" smooth="yes"/>
      <point x="408" y="701"/>
      <point x="392" y="719"/>
      <point x="362" y="719" type="curve" smooth="yes"/>
      <point x="332" y="719"/>
      <point x="311" y="702"/>
      <point x="286" y="682" type="curve" smooth="yes"/>
    </contour>
  </outline>
</glyph>
<glyph name="underscore" format="1">
  <advance width="575"/>
  <unicode hex="005F"/>
  <outline>
    <contour>
      <point x="3" y="-52" type="line" smooth="yes"/>
      <point x="1" y="-68"/>
      <point x="8" y="-77"/>
      <point x="24" y="-77" type="curve" smooth="yes"/>
      <point x="447" y="-77" type="line" smooth="yes"/>
      <point x="464" y="-77"/>
      <point x="474" y="-68"/>
      <point x="476" y="-52" type="curve" smooth="yes"/>
      <point x="480" y="-25" type="line" smooth="yes"/>
      <point x="483" y="-9"/>
      <point x="475" y="0"/>
      <point x="459" y="0" type="curve" smooth="yes"/>
      <point x="36" y="0" type="line" smooth="yes"/>
      <point x="20" y="0"/>
      <point x="10" y="-9"/>
      <point x="7" y="-25" type="curve" smooth="yes"/>
    </contour>
  </outline>
</glyph>
<glyph name="a" format="1">
  <advance width="575"/>
  <unicode hex="0061"/>
  <outline>
    <contour>
      <point x="522" y="471" type="line" smooth="yes"/>
      <point x="525" y="487"/>
      <point x="517" y="497"/>
      <point x="501" y="500" type="curve" smooth="yes"/>
      <point x="440" y="508"/>
      <point x="386" y="510"/>
      <point x="357" y="510" type="curve" smooth="yes"/>
      <point x="157" y="510"/>
      <point x="77" y="370"/>
      <point x="77" y="189" type="curve" smooth="yes"/>
      <point x="77" y="36"/>
      <point x="136" y="-10"/>
      <point x="212" y="-10" type="curve" smooth="yes"/>
      <point x="263" y="-10"/>
      <point x="322" y="15"/>
      <point x="375" y="63" type="curve"/>
      <point x="369" y="25" type="line" smooth="yes"/>
      <point x="366" y="9"/>
      <point x="374" y="0"/>
      <point x="390" y="0" type="curve" smooth="yes"/>
      <point x="427" y="0" type="line" smooth="yes"/>
      <point x="443" y="0"/>
      <point x="452" y="14"/>
      <point x="454" y="30" type="curve" smooth="yes"/>
    </contour>
    <contour>
      <point x="388" y="151" type="line"/>
      <point x="336" y="95"/>
      <point x="283" y="66"/>
      <point x="242" y="66" type="curve" smooth="yes"/>
      <point x="195" y="66"/>
      <point x="163" y="94"/>
      <point x="163" y="204" type="curve" smooth="yes"/>
      <point x="163" y="326"/>
      <point x="209" y="434"/>
      <point x="345" y="434" type="curve" smooth="yes"/>
      <point x="363" y="434"/>
      <point x="395" y="433"/>
      <point x="433" y="430" type="curve"/>
    </contour>
    <contour>
      <point x="477" y="10" type="move" name="ogonek"/>
    </contour>
    <contour>
      <point x="248" y="0" type="move" name="bottom"/>
    </contour>
    <contour>
      <point x="338" y="550" type="move" name="top"/>
    </contour>
  </outline>
</glyph>
<glyph name="b" format="2">
	<advance width="575"/>
	<unicode hex="0062"/>
	<outline>
		<contour>
			<point x="155" y="720" type="curve" smooth="yes"/>
			<point x="48" y="29" type="line" smooth="yes"/>
			<point x="46" y="13"/>
			<point x="53" y="3"/>
			<point x="69" y="0" type="curve" smooth="yes"/>
			<point x="130" y="-8"/>
			<point x="184" y="-10"/>
			<point x="213" y="-10" type="curve" smooth="yes"/>
			<point x="413" y="-10"/>
			<point x="493" y="120"/>
			<point x="493" y="310" type="curve" smooth="yes"/>
			<point x="493" y="454"/>
			<point x="434" y="510"/>
			<point x="358" y="510" type="curve" smooth="yes"/>
			<point x="307" y="510"/>
			<point x="248" y="485"/>
			<point x="195" y="437" type="curve"/>
			<point x="240" y="725" type="line" smooth="yes"/>
			<point x="243" y="741"/>
			<point x="235" y="750"/>
			<point x="219" y="750" type="curve" smooth="yes"/>
			<point x="182" y="750" type="line" smooth="yes"/>
			<point x="166" y="750"/>
			<point x="157" y="736"/>
		</contour>
		<contour>
			<point x="137" y="70" type="curve"/>
			<point x="182" y="349" type="line"/>
			<point x="234" y="405"/>
			<point x="287" y="434"/>
			<point x="328" y="434" type="curve" smooth="yes"/>
			<point x="375" y="434"/>
			<point x="407" y="396"/>
			<point x="407" y="295" type="curve" smooth="yes"/>
			<point x="407" y="164"/>
			<point x="361" y="66"/>
			<point x="225" y="66" type="curve" smooth="yes"/>
			<point x="207" y="66"/>
			<point x="175" y="67"/>
		</contour>
	</outline>
</glyph>
<glyph name="c" format="2">
	<advance width="575"/>
	<unicode hex="0063"/>
	<anchor x="248" y="0" name="bottom"/>
	<anchor x="366" y="540" name="top"/>
	<outline>
		<contour>
			<point x="508" y="423" type="curve" smooth="yes"/>
			<point x="522" y="447" type="line" smooth="yes"/>
			<point x="531" y="462"/>
			<point x="528" y="474"/>
			<point x="514" y="480" type="curve" smooth="yes"/>
			<point x="471" y="500"/>
			<point x="420" y="510"/>
			<point x="369" y="510" type="curve" smooth="yes"/>
			<point x="187" y="510"/>
			<point x="80" y="370"/>
			<point x="80" y="202" type="curve" smooth="yes"/>
			<point x="80" y="45"/>
			<point x="176" y="-10"/>
			<point x="287" y="-10" type="curve" smooth="yes"/>
			<point x="338" y="-10"/>
			<point x="391" y="0"/>
			<point x="442" y="20" type="curve" smooth="yes"/>
			<point x="458" y="26"/>
			<point x="464" y="38"/>
			<point x="460" y="53" type="curve" smooth="yes"/>
			<point x="454" y="77" type="line" smooth="yes"/>
			<point x="450" y="92"/>
			<point x="440" y="97"/>
			<point x="424" y="91" type="curve" smooth="yes"/>
			<point x="376" y="75"/>
			<point x="340" y="68"/>
			<point x="299" y="68" type="curve" smooth="yes"/>
			<point x="222" y="68"/>
			<point x="166" y="102"/>
			<point x="166" y="211" type="curve" smooth="yes"/>
			<point x="166" y="325"/>
			<point x="226" y="432"/>
			<point x="357" y="432" type="curve" smooth="yes"/>
			<point x="398" y="432"/>
			<point x="433" y="425"/>
			<point x="474" y="409" type="curve" smooth="yes"/>
			<point x="488" y="403"/>
			<point x="499" y="408"/>
		</contour>
	</outline>
</glyph>
<glyph name="d" format="2">
	<advance width="575"/>
	<unicode hex="0064"/>
	<anchor x="248" y="0" name="bottom"/>
	<anchor x="288" y="250" name="center"/>
	<anchor x="439" y="520" name="top"/>
	<anchor x="595" y="500" name="topright"/>
	<outline>
		<contour>
			<point x="543" y="750" type="curve" smooth="yes"/>
			<point x="508" y="750" type="line" smooth="yes"/>
			<point x="492" y="750"/>
			<point x="482" y="741"/>
			<point x="479" y="725" type="curve" smooth="yes"/>
			<point x="445" y="506" type="line"/>
			<point x="409" y="509"/>
			<point x="377" y="510"/>
			<point x="357" y="510" type="curve" smooth="yes"/>
			<point x="157" y="510"/>
			<point x="77" y="380"/>
			<point x="77" y="190" type="curve" smooth="yes"/>
			<point x="77" y="46"/>
			<point x="136" y="-10"/>
			<point x="212" y="-10" type="curve" smooth="yes"/>
			<point x="263" y="-10"/>
			<point x="322" y="15"/>
			<point x="375" y="63" type="curve"/>
			<point x="369" y="25" type="line" smooth="yes"/>
			<point x="366" y="9"/>
			<point x="374" y="0"/>
			<point x="390" y="0" type="curve" smooth="yes"/>
			<point x="427" y="0" type="line" smooth="yes"/>
			<point x="443" y="0"/>
			<point x="452" y="14"/>
			<point x="454" y="30" type="curve" smooth="yes"/>
			<point x="564" y="725" type="line" smooth="yes"/>
			<point x="567" y="741"/>
			<point x="559" y="750"/>
		</contour>
		<contour>
			<point x="433" y="430" type="curve"/>
			<point x="388" y="151" type="line"/>
			<point x="336" y="95"/>
			<point x="283" y="66"/>
			<point x="242" y="66" type="curve" smooth="yes"/>
			<point x="195" y="66"/>
			<point x="163" y="104"/>
			<point x="163" y="205" type="curve" smooth="yes"/>
			<point x="163" y="336"/>
			<point x="209" y="434"/>
			<point x="345" y="434" type="curve" smooth="yes"/>
			<point x="363" y="434"/>
			<point x="395" y="433"/>
		</contour>
	</outline>
</glyph>
<glyph name="e" format="1">
  <advance width="575"/>
  <unicode hex="0065"/>
  <outline>
    <contour>
      <point x="454" y="77" type="line" smooth="yes"/>
      <point x="450" y="92"/>
      <point x="440" y="97"/>
      <point x="424" y="91" type="curve"/>
      <point x="376" y="75"/>
      <point x="340" y="68"/>
      <point x="299" y="68" type="curve" smooth="yes"/>
      <point x="222" y="68"/>
      <point x="166" y="102"/>
      <point x="166" y="199" type="curve" smooth="yes"/>
      <point x="166" y="210"/>
      <point x="167" y="223"/>
      <point x="169" y="237" type="curve"/>
      <point x="463" y="237" type="line" smooth="yes"/>
      <point x="479" y="237"/>
      <point x="489" y="246"/>
      <point x="492" y="262" type="curve" smooth="yes"/>
      <point x="497" y="292"/>
      <point x="500" y="310"/>
      <point x="500" y="331" type="curve" smooth="yes"/>
      <point x="500" y="448"/>
      <point x="423" y="510"/>
      <point x="333" y="510" type="curve" smooth="yes"/>
      <point x="183" y="510"/>
      <point x="80" y="354"/>
      <point x="80" y="189" type="curve" smooth="yes"/>
      <point x="80" y="45"/>
      <point x="176" y="-10"/>
      <point x="287" y="-10" type="curve" smooth="yes"/>
      <point x="338" y="-10"/>
      <point x="391" y="0"/>
      <point x="442" y="20" type="curve" smooth="yes"/>
      <point x="458" y="26"/>
      <point x="463" y="38"/>
      <point x="460" y="53" type="curve" smooth="yes"/>
    </contour>
    <contour>
      <point x="374" y="434"/>
      <point x="427" y="394"/>
      <point x="415" y="314" type="curve"/>
      <point x="188" y="314" type="line"/>
      <point x="207" y="392"/>
      <point x="269" y="434"/>
      <point x="322" y="434" type="curve" smooth="yes"/>
    </contour>
    <contour>
      <point x="440" y="5" type="move" name="ogonek"/>
    </contour>
    <contour>
      <point x="208" y="0" type="move" name="bottom"/>
    </contour>
    <contour>
      <point x="344" y="550" type="move" name="top"/>
    </contour>
  </outline>
</glyph>
<glyph name="f" format="1">
  <advance width="575"/>
  <unicode hex="0066"/>
  <outline>
    <contour>
      <point x="570" y="711" type="line" smooth="yes"/>
      <point x="578" y="726"/>
      <point x="576" y="738"/>
      <point x="561" y="743" type="curve" smooth="yes"/>
      <point x="530" y="755"/>
      <point x="494" y="763"/>
      <point x="459" y="763" type="curve" smooth="yes"/>
      <point x="364" y="763"/>
      <point x="269" y="710"/>
      <point x="243" y="549" type="curve" smooth="yes"/>
      <point x="236" y="500" type="line"/>
      <point x="140" y="500" type="line" smooth="yes"/>
      <point x="124" y="500"/>
      <point x="113" y="491"/>
      <point x="111" y="475" type="curve" smooth="yes"/>
      <point x="107" y="449" type="line" smooth="yes"/>
      <point x="104" y="432"/>
      <point x="112" y="424"/>
      <point x="128" y="424" type="curve" smooth="yes"/>
      <point x="224" y="424" type="line"/>
      <point x="156" y="0" type="line"/>
      <point x="144" y="-79"/>
      <point x="123" y="-108"/>
      <point x="56" y="-144" type="curve" smooth="yes"/>
      <point x="40" y="-152"/>
      <point x="34" y="-164"/>
      <point x="41" y="-179" type="curve" smooth="yes"/>
      <point x="53" y="-209" type="line" smooth="yes"/>
      <point x="59" y="-223"/>
      <point x="72" y="-226"/>
      <point x="87" y="-218" type="curve" smooth="yes"/>
      <point x="192" y="-162"/>
      <point x="223" y="-119"/>
      <point x="241" y="0" type="curve"/>
      <point x="309" y="424" type="line"/>
      <point x="473" y="424" type="line" smooth="yes"/>
      <point x="489" y="424"/>
      <point x="499" y="433"/>
      <point x="502" y="449" type="curve" smooth="yes"/>
      <point x="506" y="475" type="line" smooth="yes"/>
      <point x="508" y="491"/>
      <point x="501" y="500"/>
      <point x="485" y="500" type="curve" smooth="yes"/>
      <point x="322" y="500" type="line"/>
      <point x="329" y="549" type="line" smooth="yes"/>
      <point x="346" y="657"/>
      <point x="389" y="685"/>
      <point x="447" y="685" type="curve" smooth="yes"/>
      <point x="472" y="685"/>
      <point x="494" y="681"/>
      <point x="520" y="671" type="curve" smooth="yes"/>
      <point x="534" y="665"/>
      <point x="546" y="670"/>
      <point x="555" y="685" type="curve" smooth="yes"/>
    </contour>
    <contour>
      <point x="384" y="231" type="move"/>
    </contour>
  </outline>
</glyph>
<glyph name="g" format="1">
  <advance width="575"/>
  <unicode hex="0067"/>
  <outline>
    <contour>
      <point x="359" y="-39" type="line"/>
      <point x="342" y="-147"/>
      <point x="296" y="-175"/>
      <point x="222" y="-175" type="curve" smooth="yes"/>
      <point x="185" y="-175"/>
      <point x="140" y="-168"/>
      <point x="88" y="-160" type="curve" smooth="yes"/>
      <point x="72" y="-158"/>
      <point x="60" y="-166"/>
      <point x="57" y="-181" type="curve" smooth="yes"/>
      <point x="52" y="-207" type="line" smooth="yes"/>
      <point x="48" y="-225"/>
      <point x="51" y="-234"/>
      <point x="68" y="-236" type="curve" smooth="yes"/>
      <point x="122" y="-242"/>
      <point x="173" y="-250"/>
      <point x="221" y="-250" type="curve" smooth="yes"/>
      <point x="330" y="-250"/>
      <point x="415" y="-212"/>
      <point x="443" y="-38" type="curve"/>
      <point x="522" y="471" type="line"/>
      <point x="524" y="487"/>
      <point x="517" y="497"/>
      <point x="501" y="500" type="curve"/>
      <point x="440" y="508"/>
      <point x="386" y="510"/>
      <point x="357" y="510" type="curve" smooth="yes"/>
      <point x="157" y="510"/>
      <point x="77" y="380"/>
      <point x="77" y="190" type="curve" smooth="yes"/>
      <point x="77" y="46"/>
      <point x="136" y="-10"/>
      <point x="212" y="-10" type="curve" smooth="yes"/>
      <point x="263" y="-10"/>
      <point x="322" y="15"/>
      <point x="375" y="63" type="curve"/>
    </contour>
    <contour>
      <point x="388" y="151" type="line"/>
      <point x="336" y="95"/>
      <point x="283" y="66"/>
      <point x="242" y="66" type="curve" smooth="yes"/>
      <point x="195" y="66"/>
      <point x="163" y="104"/>
      <point x="163" y="205" type="curve" smooth="yes"/>
      <point x="163" y="336"/>
      <point x="209" y="434"/>
      <point x="345" y="434" type="curve" smooth="yes"/>
      <point x="363" y="434"/>
      <point x="395" y="433"/>
      <point x="433" y="430" type="curve"/>
    </contour>
    <contour>
      <point x="338" y="550" type="move" name="top"/>
    </contour>
    <contour>
      <point x="248" y="0" type="move" name="bottom"/>
    </contour>
  </outline>
</glyph>
<glyph name="h" format="1">
  <advance width="575"/>
  <unicode hex="0068"/>
  <outline>
    <contour>
      <point x="245" y="725" type="line" smooth="yes"/>
      <point x="248" y="741"/>
      <point x="240" y="750"/>
      <point x="224" y="750" type="curve" smooth="yes"/>
      <point x="187" y="750" type="line" smooth="yes"/>
      <point x="171" y="750"/>
      <point x="162" y="736"/>
      <point x="159" y="720" type="curve" smooth="yes"/>
      <point x="49" y="25" type="line" smooth="yes"/>
      <point x="47" y="9"/>
      <point x="54" y="0"/>
      <point x="70" y="0" type="curve" smooth="yes"/>
      <point x="105" y="0" type="line" smooth="yes"/>
      <point x="121" y="0"/>
      <point x="132" y="9"/>
      <point x="134" y="25" type="curve" smooth="yes"/>
      <point x="186" y="349" type="line"/>
      <point x="239" y="405"/>
      <point x="291" y="434"/>
      <point x="343" y="434" type="curve" smooth="yes"/>
      <point x="381" y="434"/>
      <point x="415" y="421"/>
      <point x="415" y="344" type="curve" smooth="yes"/>
      <point x="415" y="326"/>
      <point x="413" y="304"/>
      <point x="409" y="278" type="curve" smooth="yes"/>
      <point x="369" y="25" type="line" smooth="yes"/>
      <point x="367" y="9"/>
      <point x="374" y="0"/>
      <point x="390" y="0" type="curve" smooth="yes"/>
      <point x="425" y="0" type="line" smooth="yes"/>
      <point x="442" y="0"/>
      <point x="452" y="9"/>
      <point x="454" y="25" type="curve" smooth="yes"/>
      <point x="494" y="278" type="line" smooth="yes"/>
      <point x="499" y="309"/>
      <point x="501" y="336"/>
      <point x="501" y="359" type="curve" smooth="yes"/>
      <point x="501" y="481"/>
      <point x="439" y="510"/>
      <point x="372" y="510" type="curve" smooth="yes"/>
      <point x="311" y="510"/>
      <point x="252" y="485"/>
      <point x="200" y="437" type="curve"/>
    </contour>
    <contour>
      <point x="288" y="250" type="move" name="center"/>
    </contour>
    <contour>
      <point x="408" y="620" type="move" name="top"/>
    </contour>
  </outline>
</glyph>
<glyph name="i" format="2">
	<advance width="575"/>
	<unicode hex="0069"/>
	<outline>
		<contour>
			<point x="312" y="644" type="curve" smooth="yes"/>
			<point x="377" y="644" type="line" smooth="yes"/>
			<point x="394" y="644"/>
			<point x="404" y="653"/>
			<point x="406" y="669" type="curve" smooth="yes"/>
			<point x="417" y="735" type="line" smooth="yes"/>
			<point x="420" y="752"/>
			<point x="412" y="760"/>
			<point x="396" y="760" type="curve" smooth="yes"/>
			<point x="331" y="760" type="line" smooth="yes"/>
			<point x="315" y="760"/>
			<point x="304" y="751"/>
			<point x="302" y="735" type="curve" smooth="yes"/>
			<point x="291" y="669" type="line" smooth="yes"/>
			<point x="289" y="653"/>
			<point x="296" y="644"/>
		</contour>
		<component base="dotlessi"/>
	</outline>
</glyph>
<glyph name="j" format="1">
  <advance width="575"/>
  <unicode hex="006A"/>
  <outline>
    <contour>
      <point x="461" y="760" type="line" smooth="yes"/>
      <point x="445" y="760"/>
      <point x="434" y="751"/>
      <point x="432" y="735" type="curve" smooth="yes"/>
      <point x="421" y="669" type="line" smooth="yes"/>
      <point x="419" y="653"/>
      <point x="426" y="644"/>
      <point x="442" y="644" type="curve" smooth="yes"/>
      <point x="507" y="644" type="line" smooth="yes"/>
      <point x="524" y="644"/>
      <point x="534" y="653"/>
      <point x="536" y="669" type="curve" smooth="yes"/>
      <point x="547" y="735" type="line" smooth="yes"/>
      <point x="550" y="752"/>
      <point x="542" y="760"/>
      <point x="526" y="760" type="curve" smooth="yes"/>
    </contour>
    <contour>
      <point x="504" y="345"/>
      <point x="504" y="365" type="curve" smooth="yes"/>
      <point x="504" y="478"/>
      <point x="440" y="512"/>
      <point x="348" y="512" type="curve" smooth="yes"/>
      <point x="317" y="512"/>
      <point x="283" y="508"/>
      <point x="246" y="502" type="curve" smooth="yes"/>
      <point x="229" y="499"/>
      <point x="221" y="488"/>
      <point x="221" y="473" type="curve" smooth="yes"/>
      <point x="222" y="445" type="line" smooth="yes"/>
      <point x="221" y="429"/>
      <point x="231" y="422"/>
      <point x="248" y="425" type="curve" smooth="yes"/>
      <point x="281" y="431"/>
      <point x="309" y="435"/>
      <point x="333" y="435" type="curve" smooth="yes"/>
      <point x="389" y="435"/>
      <point x="417" y="413"/>
      <point x="417" y="351" type="curve" smooth="yes"/>
      <point x="417" y="336"/>
      <point x="415" y="319"/>
      <point x="412" y="300" type="curve" smooth="yes"/>
      <point x="383" y="120" type="line" smooth="yes"/>
      <point x="359" y="-36"/>
      <point x="283" y="-82"/>
      <point x="194" y="-82" type="curve" smooth="yes"/>
      <point x="153" y="-82"/>
      <point x="119" y="-75"/>
      <point x="77" y="-59" type="curve" smooth="yes"/>
      <point x="63" y="-53"/>
      <point x="51" y="-58"/>
      <point x="43" y="-73" type="curve" smooth="yes"/>
      <point x="29" y="-97" type="line" smooth="yes"/>
      <point x="21" y="-112"/>
      <point x="23" y="-124"/>
      <point x="37" y="-130" type="curve" smooth="yes"/>
      <point x="81" y="-150"/>
      <point x="131" y="-160"/>
      <point x="182" y="-160" type="curve" smooth="yes"/>
      <point x="308" y="-160"/>
      <point x="436" y="-90"/>
      <point x="469" y="120" type="curve" smooth="yes"/>
      <point x="498" y="300" type="line" smooth="yes"/>
      <point x="502" y="324"/>
    </contour>
  </outline>
</glyph>
<glyph name="k" format="1">
  <advance width="575"/>
  <unicode hex="006B"/>
  <outline>
    <contour>
      <point x="487" y="465"/>
      <point x="452" y="510"/>
      <point x="360" y="510" type="curve" smooth="yes"/>
      <point x="310" y="510"/>
      <point x="252" y="494"/>
      <point x="204" y="466" type="curve"/>
      <point x="245" y="725" type="line" smooth="yes"/>
      <point x="248" y="741"/>
      <point x="240" y="750"/>
      <point x="224" y="750" type="curve" smooth="yes"/>
      <point x="189" y="750" type="line" smooth="yes"/>
      <point x="173" y="750"/>
      <point x="163" y="741"/>
      <point x="160" y="725" type="curve" smooth="yes"/>
      <point x="49" y="25" type="line" smooth="yes"/>
      <point x="47" y="9"/>
      <point x="54" y="0"/>
      <point x="70" y="0" type="curve" smooth="yes"/>
      <point x="105" y="0" type="line" smooth="yes"/>
      <point x="121" y="0"/>
      <point x="132" y="9"/>
      <point x="134" y="25" type="curve" smooth="yes"/>
      <point x="193" y="396" type="line"/>
      <point x="234" y="417"/>
      <point x="290" y="433"/>
      <point x="331" y="433" type="curve" smooth="yes"/>
      <point x="366" y="433"/>
      <point x="389" y="421"/>
      <point x="384" y="392" type="curve"/>
      <point x="379" y="355"/>
      <point x="320" y="295"/>
      <point x="225" y="238" type="curve" smooth="yes"/>
      <point x="209" y="228"/>
      <point x="204" y="215"/>
      <point x="215" y="203" type="curve"/>
      <point x="362" y="13" type="line"/>
      <point x="370" y="4"/>
      <point x="378" y="0"/>
      <point x="391" y="0" type="curve" smooth="yes"/>
      <point x="449" y="0" type="line" smooth="yes"/>
      <point x="472" y="0"/>
      <point x="481" y="15"/>
      <point x="467" y="31" type="curve"/>
      <point x="318" y="220" type="line"/>
      <point x="410" y="271"/>
      <point x="468" y="346"/>
      <point x="478" y="407" type="curve" smooth="yes"/>
    </contour>
    <contour>
      <point x="328" y="550" type="move" name="top"/>
    </contour>
    <contour>
      <point x="248" y="0" type="move" name="bottom"/>
    </contour>
  </outline>
</glyph>
<glyph name="l" format="2">
	<advance width="575"/>
	<unicode hex="006C"/>
	<anchor x="248" y="0" name="bottom"/>
	<anchor x="288" y="250" name="center"/>
	<anchor x="328" y="700" name="top"/>
	<anchor x="595" y="500" name="topright"/>
	<outline>
		<contour>
			<point x="459" y="31" type="curve"/>
			<point x="455" y="57" type="line"/>
			<point x="452" y="72"/>
			<point x="443" y="77"/>
			<point x="426" y="74" type="curve"/>
			<point x="400" y="68"/>
			<point x="376" y="67"/>
			<point x="360" y="67" type="curve" smooth="yes"/>
			<point x="310" y="68"/>
			<point x="292" y="84"/>
			<point x="292" y="122" type="curve" smooth="yes"/>
			<point x="292" y="131"/>
			<point x="292" y="140"/>
			<point x="294" y="150" type="curve" smooth="yes"/>
			<point x="365" y="600" type="line" smooth="yes"/>
			<point x="368" y="616"/>
			<point x="369" y="631"/>
			<point x="369" y="645" type="curve" smooth="yes"/>
			<point x="369" y="724"/>
			<point x="324" y="760"/>
			<point x="227" y="760" type="curve" smooth="yes"/>
			<point x="207" y="760"/>
			<point x="176" y="759"/>
			<point x="137" y="750" type="curve" smooth="yes"/>
			<point x="120" y="746"/>
			<point x="112" y="734"/>
			<point x="115" y="719" type="curve"/>
			<point x="119" y="693" type="line"/>
			<point x="123" y="678"/>
			<point x="132" y="673"/>
			<point x="148" y="676" type="curve"/>
			<point x="174" y="682"/>
			<point x="199" y="683"/>
			<point x="215" y="683" type="curve" smooth="yes"/>
			<point x="263" y="682"/>
			<point x="283" y="667"/>
			<point x="283" y="629" type="curve" smooth="yes"/>
			<point x="283" y="620"/>
			<point x="282" y="611"/>
			<point x="280" y="600" type="curve" smooth="yes"/>
			<point x="209" y="150" type="line" smooth="yes"/>
			<point x="206" y="134"/>
			<point x="205" y="120"/>
			<point x="205" y="107" type="curve" smooth="yes"/>
			<point x="205" y="27"/>
			<point x="250" y="-10"/>
			<point x="348" y="-10" type="curve" smooth="yes"/>
			<point x="368" y="-10"/>
			<point x="399" y="-9"/>
			<point x="437" y="0" type="curve" smooth="yes"/>
			<point x="455" y="4"/>
			<point x="463" y="16"/>
		</contour>
	</outline>
</glyph>
<glyph name="m" format="1">
  <advance width="575"/>
  <unicode hex="006D"/>
  <outline>
    <contour>
      <point x="172" y="475" type="line"/>
      <point x="174" y="491"/>
      <point x="167" y="500"/>
      <point x="151" y="500" type="curve" smooth="yes"/>
      <point x="114" y="500" type="line" smooth="yes"/>
      <point x="98" y="500"/>
      <point x="88" y="486"/>
      <point x="86" y="470" type="curve" smooth="yes"/>
      <point x="15" y="25" type="line" smooth="yes"/>
      <point x="13" y="9"/>
      <point x="20" y="0"/>
      <point x="36" y="0" type="curve" smooth="yes"/>
      <point x="71" y="0" type="line" smooth="yes"/>
      <point x="87" y="0"/>
      <point x="98" y="9"/>
      <point x="100" y="25" type="curve" smooth="yes"/>
      <point x="153" y="359" type="line"/>
      <point x="207" y="399"/>
      <point x="236" y="418"/>
      <point x="252" y="418" type="curve" smooth="yes"/>
      <point x="267" y="418"/>
      <point x="267" y="398"/>
      <point x="261" y="358" type="curve" smooth="yes"/>
      <point x="208" y="25" type="line" smooth="yes"/>
      <point x="206" y="9"/>
      <point x="213" y="0"/>
      <point x="229" y="0" type="curve" smooth="yes"/>
      <point x="264" y="0" type="line" smooth="yes"/>
      <point x="281" y="0"/>
      <point x="291" y="9"/>
      <point x="293" y="25" type="curve" smooth="yes"/>
      <point x="346" y="357" type="line"/>
      <point x="400" y="398"/>
      <point x="431" y="418"/>
      <point x="447" y="418" type="curve" smooth="yes"/>
      <point x="462" y="418"/>
      <point x="462" y="398"/>
      <point x="456" y="358" type="curve" smooth="yes"/>
      <point x="403" y="25" type="line" smooth="yes"/>
      <point x="401" y="9"/>
      <point x="408" y="0"/>
      <point x="424" y="0" type="curve" smooth="yes"/>
      <point x="459" y="0" type="line" smooth="yes"/>
      <point x="476" y="0"/>
      <point x="486" y="9"/>
      <point x="488" y="25" type="curve" smooth="yes"/>
      <point x="540" y="348" type="line" smooth="yes"/>
      <point x="557" y="460"/>
      <point x="540" y="507"/>
      <point x="496" y="507" type="curve" smooth="yes"/>
      <point x="462" y="507"/>
      <point x="412" y="478"/>
      <point x="351" y="430" type="curve"/>
      <point x="350" y="483"/>
      <point x="332" y="507"/>
      <point x="301" y="507" type="curve" smooth="yes"/>
      <point x="269" y="507"/>
      <point x="222" y="481"/>
      <point x="166" y="437" type="curve"/>
    </contour>
    <contour>
      <point x="328" y="550" type="move" name="top"/>
    </contour>
    <contour>
      <point x="248" y="0" type="move" name="bottom"/>
    </contour>
  </outline>
</glyph>
<glyph name="n" format="1">
  <advance width="575"/>
  <unicode hex="006E"/>
  <outline>
    <contour>
      <point x="206" y="475" type="line" smooth="yes"/>
      <point x="208" y="491"/>
      <point x="201" y="500"/>
      <point x="185" y="500" type="curve" smooth="yes"/>
      <point x="148" y="500" type="line" smooth="yes"/>
      <point x="132" y="500"/>
      <point x="122" y="486"/>
      <point x="120" y="470" type="curve" smooth="yes"/>
      <point x="49" y="25" type="line" smooth="yes"/>
      <point x="47" y="9"/>
      <point x="54" y="0"/>
      <point x="70" y="0" type="curve" smooth="yes"/>
      <point x="105" y="0" type="line" smooth="yes"/>
      <point x="121" y="0"/>
      <point x="132" y="9"/>
      <point x="134" y="25" type="curve" smooth="yes"/>
      <point x="186" y="349" type="line"/>
      <point x="239" y="405"/>
      <point x="291" y="434"/>
      <point x="332" y="434" type="curve" smooth="yes"/>
      <point x="390" y="434"/>
      <point x="431" y="414"/>
      <point x="409" y="278" type="curve" smooth="yes"/>
      <point x="369" y="25" type="line" smooth="yes"/>
      <point x="367" y="9"/>
      <point x="374" y="0"/>
      <point x="390" y="0" type="curve" smooth="yes"/>
      <point x="425" y="0" type="line" smooth="yes"/>
      <point x="442" y="0"/>
      <point x="452" y="9"/>
      <point x="454" y="25" type="curve" smooth="yes"/>
      <point x="494" y="278" type="line" smooth="yes"/>
      <point x="525" y="469"/>
      <point x="452" y="510"/>
      <point x="362" y="510" type="curve" smooth="yes"/>
      <point x="311" y="510"/>
      <point x="252" y="485"/>
      <point x="200" y="437" type="curve"/>
    </contour>
    <contour>
      <point x="328" y="550" type="move" name="top"/>
    </contour>
    <contour>
      <point x="248" y="0" type="move" name="bottom"/>
    </contour>
  </outline>
</glyph>
<glyph name="o" format="2">
	<advance width="575"/>
	<unicode hex="006F"/>
	<anchor x="248" y="0" name="bottom"/>
	<anchor x="288" y="250" name="center"/>
	<anchor x="477" y="10" name="ogonek"/>
	<anchor x="328" y="550" name="top"/>
	<anchor x="595" y="500" name="topright"/>
	<outline>
		<contour>
			<point x="332" y="512" type="curve" smooth="yes"/>
			<point x="171" y="512"/>
			<point x="79" y="347"/>
			<point x="79" y="189" type="curve" smooth="yes"/>
			<point x="79" y="49"/>
			<point x="155" y="-12"/>
			<point x="250" y="-12" type="curve" smooth="yes"/>
			<point x="410" y="-12"/>
			<point x="496" y="155"/>
			<point x="496" y="315" type="curve" smooth="yes"/>
			<point x="496" y="452"/>
			<point x="426" y="512"/>
		</contour>
		<contour>
			<point x="259" y="65" type="curve" smooth="yes"/>
			<point x="201" y="65"/>
			<point x="165" y="111"/>
			<point x="165" y="200" type="curve" smooth="yes"/>
			<point x="165" y="300"/>
			<point x="216" y="435"/>
			<point x="317" y="435" type="curve" smooth="yes"/>
			<point x="375" y="435"/>
			<point x="410" y="390"/>
			<point x="410" y="300" type="curve" smooth="yes"/>
			<point x="410" y="200"/>
			<point x="359" y="65"/>
		</contour>
	</outline>
</glyph>
<glyph name="p" format="2">
	<advance width="575"/>
	<unicode hex="0070"/>
	<anchor x="248" y="0" name="bottom"/>
	<anchor x="328" y="540" name="top"/>
	<outline>
		<contour>
			<point x="32" y="-250" type="curve" smooth="yes"/>
			<point x="67" y="-250" type="line" smooth="yes"/>
			<point x="83" y="-250"/>
			<point x="94" y="-241"/>
			<point x="96" y="-225" type="curve" smooth="yes"/>
			<point x="129" y="-6" type="line"/>
			<point x="165" y="-9"/>
			<point x="197" y="-10"/>
			<point x="217" y="-10" type="curve" smooth="yes"/>
			<point x="417" y="-10"/>
			<point x="497" y="120"/>
			<point x="497" y="311" type="curve" smooth="yes"/>
			<point x="497" y="454"/>
			<point x="438" y="510"/>
			<point x="362" y="510" type="curve" smooth="yes"/>
			<point x="311" y="510"/>
			<point x="252" y="485"/>
			<point x="199" y="437" type="curve"/>
			<point x="205" y="475" type="line" smooth="yes"/>
			<point x="208" y="491"/>
			<point x="200" y="500"/>
			<point x="184" y="500" type="curve" smooth="yes"/>
			<point x="147" y="500" type="line" smooth="yes"/>
			<point x="131" y="500"/>
			<point x="123" y="486"/>
			<point x="120" y="470" type="curve" smooth="yes"/>
			<point x="11" y="-225" type="line" smooth="yes"/>
			<point x="8" y="-241"/>
			<point x="16" y="-250"/>
		</contour>
		<contour>
			<point x="141" y="70" type="curve"/>
			<point x="186" y="349" type="line"/>
			<point x="238" y="405"/>
			<point x="291" y="434"/>
			<point x="332" y="434" type="curve" smooth="yes"/>
			<point x="379" y="434"/>
			<point x="411" y="396"/>
			<point x="411" y="296" type="curve" smooth="yes"/>
			<point x="411" y="164"/>
			<point x="365" y="66"/>
			<point x="229" y="66" type="curve" smooth="yes"/>
			<point x="211" y="66"/>
			<point x="179" y="67"/>
		</contour>
	</outline>
</glyph>
<glyph name="q" format="1">
  <advance width="575"/>
  <unicode hex="0071"/>
  <outline>
    <component base="b" xOffset="575" yOffset="500" xScale="-1" yScale="-1"/>
    <contour>
      <point x="288" y="520" type="move" name="top"/>
    </contour>
    <contour>
      <point x="288" y="0" type="move" name="bottom"/>
    </contour>
  </outline>
</glyph>
<glyph name="r" format="2">
	<advance width="575"/>
	<unicode hex="0072"/>
	<anchor x="248" y="0" name="bottom"/>
	<anchor x="328" y="540" name="top"/>
	<outline>
		<contour>
			<point x="200" y="437" type="curve"/>
			<point x="206" y="475" type="line" smooth="yes"/>
			<point x="209" y="491"/>
			<point x="201" y="500"/>
			<point x="185" y="500" type="curve" smooth="yes"/>
			<point x="148" y="500" type="line" smooth="yes"/>
			<point x="132" y="500"/>
			<point x="123" y="486"/>
			<point x="120" y="470" type="curve" smooth="yes"/>
			<point x="49" y="25" type="line" smooth="yes"/>
			<point x="46" y="9"/>
			<point x="54" y="0"/>
			<point x="70" y="0" type="curve" smooth="yes"/>
			<point x="105" y="0" type="line" smooth="yes"/>
			<point x="121" y="0"/>
			<point x="131" y="9"/>
			<point x="134" y="25" type="curve" smooth="yes"/>
			<point x="186" y="349" type="line"/>
			<point x="239" y="405"/>
			<point x="291" y="434"/>
			<point x="332" y="434" type="curve" smooth="yes"/>
			<point x="378" y="434"/>
			<point x="415" y="422"/>
			<point x="415" y="349" type="curve" smooth="yes"/>
			<point x="415" y="332"/>
			<point x="423" y="323"/>
			<point x="440" y="323" type="curve" smooth="yes"/>
			<point x="475" y="323" type="line" smooth="yes"/>
			<point x="491" y="323"/>
			<point x="501" y="332"/>
			<point x="501" y="348" type="curve" smooth="yes"/>
			<point x="505" y="479"/>
			<point x="440" y="510"/>
			<point x="362" y="510" type="curve" smooth="yes"/>
			<point x="311" y="510"/>
			<point x="252" y="485"/>
		</contour>
	</outline>
</glyph>
<glyph name="s" format="1">
  <advance width="575"/>
  <unicode hex="0073"/>
  <outline>
    <contour>
      <point x="471" y="469" type="line" smooth="yes"/>
      <point x="477" y="485"/>
      <point x="472" y="496"/>
      <point x="456" y="499" type="curve" smooth="yes"/>
      <point x="410" y="508"/>
      <point x="366" y="510"/>
      <point x="340" y="510" type="curve" smooth="yes"/>
      <point x="224" y="510"/>
      <point x="123" y="450"/>
      <point x="123" y="352" type="curve" smooth="yes"/>
      <point x="123" y="285"/>
      <point x="176" y="232"/>
      <point x="279" y="222" type="curve" smooth="yes"/>
      <point x="344" y="216"/>
      <point x="368" y="187"/>
      <point x="368" y="153" type="curve" smooth="yes"/>
      <point x="368" y="99"/>
      <point x="305" y="67"/>
      <point x="230" y="67" type="curve" smooth="yes"/>
      <point x="207" y="67"/>
      <point x="162" y="68"/>
      <point x="112" y="77" type="curve" smooth="yes"/>
      <point x="96" y="79"/>
      <point x="85" y="73"/>
      <point x="79" y="57" type="curve" smooth="yes"/>
      <point x="69" y="31" type="line" smooth="yes"/>
      <point x="63" y="15"/>
      <point x="68" y="4"/>
      <point x="85" y="1" type="curve" smooth="yes"/>
      <point x="139" y="-8"/>
      <point x="186" y="-10"/>
      <point x="218" y="-10" type="curve" smooth="yes"/>
      <point x="346" y="-10"/>
      <point x="455" y="56"/>
      <point x="455" y="165" type="curve" smooth="yes"/>
      <point x="455" y="233"/>
      <point x="410" y="286"/>
      <point x="301" y="299" type="curve" smooth="yes"/>
      <point x="241" y="306"/>
      <point x="209" y="333"/>
      <point x="209" y="366" type="curve" smooth="yes"/>
      <point x="209" y="409"/>
      <point x="269" y="432"/>
      <point x="328" y="434" type="curve" smooth="yes"/>
      <point x="355" y="435"/>
      <point x="385" y="432"/>
      <point x="427" y="425" type="curve" smooth="yes"/>
      <point x="442" y="422"/>
      <point x="453" y="428"/>
      <point x="460" y="443" type="curve" smooth="yes"/>
    </contour>
    <contour>
      <point x="328" y="550" type="move" name="top"/>
    </contour>
    <contour>
      <point x="248" y="0" type="move" name="bottom"/>
    </contour>
  </outline>
</glyph>
<glyph name="t" format="1">
  <advance width="575"/>
  <unicode hex="0074"/>
  <outline>
    <contour>
      <point x="456" y="57" type="line" smooth="yes"/>
      <point x="455" y="73"/>
      <point x="446" y="79"/>
      <point x="429" y="76" type="curve" smooth="yes"/>
      <point x="385" y="69"/>
      <point x="345" y="67"/>
      <point x="322" y="67" type="curve" smooth="yes"/>
      <point x="272" y="67"/>
      <point x="253" y="82"/>
      <point x="253" y="123" type="curve" smooth="yes"/>
      <point x="253" y="131"/>
      <point x="253" y="141"/>
      <point x="255" y="152" type="curve" smooth="yes"/>
      <point x="299" y="424" type="line"/>
      <point x="463" y="424" type="line" smooth="yes"/>
      <point x="479" y="424"/>
      <point x="489" y="433"/>
      <point x="492" y="449" type="curve" smooth="yes"/>
      <point x="496" y="475" type="line" smooth="yes"/>
      <point x="498" y="492"/>
      <point x="491" y="500"/>
      <point x="475" y="500" type="curve" smooth="yes"/>
      <point x="311" y="500" type="line"/>
      <point x="332" y="635" type="line" smooth="yes"/>
      <point x="335" y="651"/>
      <point x="327" y="660"/>
      <point x="311" y="660" type="curve" smooth="yes"/>
      <point x="275" y="660" type="line" smooth="yes"/>
      <point x="259" y="660"/>
      <point x="249" y="651"/>
      <point x="246" y="635" type="curve" smooth="yes"/>
      <point x="225" y="500" type="line"/>
      <point x="150" y="500" type="line" smooth="yes"/>
      <point x="134" y="500"/>
      <point x="123" y="492"/>
      <point x="121" y="475" type="curve" smooth="yes"/>
      <point x="117" y="449" type="line" smooth="yes"/>
      <point x="114" y="433"/>
      <point x="122" y="424"/>
      <point x="138" y="424" type="curve" smooth="yes"/>
      <point x="214" y="424" type="line"/>
      <point x="170" y="152" type="line" smooth="yes"/>
      <point x="167" y="135"/>
      <point x="166" y="119"/>
      <point x="166" y="105" type="curve" smooth="yes"/>
      <point x="166" y="23"/>
      <point x="211" y="-10"/>
      <point x="310" y="-10" type="curve" smooth="yes"/>
      <point x="337" y="-10"/>
      <point x="380" y="-9"/>
      <point x="435" y="1" type="curve" smooth="yes"/>
      <point x="451" y="4"/>
      <point x="460" y="15"/>
      <point x="458" y="31" type="curve" smooth="yes"/>
    </contour>
    <contour>
      <point x="248" y="0" type="move" name="bottom"/>
    </contour>
    <contour>
      <point x="328" y="500" type="move" name="top"/>
    </contour>
    <contour>
      <point x="595" y="500" type="move" name="topright"/>
    </contour>
    <contour>
      <point x="288" y="250" type="move" name="center"/>
    </contour>
  </outline>
</glyph>
<glyph name="u" format="1">
  <advance width="575"/>
  <unicode hex="0075"/>
  <outline>
    <contour>
      <point x="368" y="25" type="line" smooth="yes"/>
      <point x="366" y="9"/>
      <point x="373" y="0"/>
      <point x="389" y="0" type="curve" smooth="yes"/>
      <point x="426" y="0" type="line" smooth="yes"/>
      <point x="442" y="0"/>
      <point x="452" y="14"/>
      <point x="454" y="30" type="curve" smooth="yes"/>
      <point x="525" y="475" type="line" smooth="yes"/>
      <point x="527" y="491"/>
      <point x="520" y="500"/>
      <point x="504" y="500" type="curve" smooth="yes"/>
      <point x="469" y="500" type="line" smooth="yes"/>
      <point x="453" y="500"/>
      <point x="442" y="491"/>
      <point x="440" y="475" type="curve" smooth="yes"/>
      <point x="388" y="151" type="line"/>
      <point x="335" y="95"/>
      <point x="283" y="66"/>
      <point x="242" y="66" type="curve" smooth="yes"/>
      <point x="184" y="66"/>
      <point x="143" y="86"/>
      <point x="165" y="222" type="curve" smooth="yes"/>
      <point x="205" y="475" type="line" smooth="yes"/>
      <point x="207" y="491"/>
      <point x="200" y="500"/>
      <point x="184" y="500" type="curve" smooth="yes"/>
      <point x="149" y="500" type="line" smooth="yes"/>
      <point x="132" y="500"/>
      <point x="122" y="491"/>
      <point x="120" y="475" type="curve" smooth="yes"/>
      <point x="80" y="222" type="line" smooth="yes"/>
      <point x="49" y="31"/>
      <point x="122" y="-10"/>
      <point x="212" y="-10" type="curve" smooth="yes"/>
      <point x="263" y="-10"/>
      <point x="322" y="15"/>
      <point x="374" y="63" type="curve"/>
    </contour>
    <contour>
      <point x="477" y="10" type="move" name="ogonek"/>
    </contour>
    <contour>
      <point x="328" y="550" type="move" name="top"/>
    </contour>
    <contour>
      <point x="595" y="500" type="move" name="topright"/>
    </contour>
    <contour>
      <point x="248" y="0" type="move" name="bottom"/>
    </contour>
  </outline>
</glyph>
<glyph name="v" format="1">
  <advance width="575"/>
  <unicode hex="0076"/>
  <outline>
    <contour>
      <point x="480" y="500" type="line" smooth="yes"/>
      <point x="464" y="500"/>
      <point x="453" y="491"/>
      <point x="451" y="475" type="curve" smooth="yes"/>
      <point x="423" y="310"/>
      <point x="345" y="67"/>
      <point x="254" y="67" type="curve" smooth="yes"/>
      <point x="237" y="67"/>
      <point x="225" y="76"/>
      <point x="224" y="93" type="curve" smooth="yes"/>
      <point x="188" y="479" type="line"/>
      <point x="187" y="493"/>
      <point x="180" y="500"/>
      <point x="165" y="500" type="curve" smooth="yes"/>
      <point x="129" y="500" type="line" smooth="yes"/>
      <point x="111" y="500"/>
      <point x="101" y="490"/>
      <point x="102" y="472" type="curve" smooth="yes"/>
      <point x="138" y="80" type="line" smooth="yes"/>
      <point x="144" y="22"/>
      <point x="182" y="-10"/>
      <point x="232" y="-10" type="curve" smooth="yes"/>
      <point x="410" y="-10"/>
      <point x="499" y="275"/>
      <point x="536" y="475" type="curve" smooth="yes"/>
      <point x="538" y="491"/>
      <point x="531" y="500"/>
      <point x="515" y="500" type="curve" smooth="yes"/>
    </contour>
  </outline>
</glyph>
<glyph name="w" format="2">
	<advance width="575"/>
	<unicode hex="0077"/>
	<anchor x="248" y="0" name="bottom"/>
	<anchor x="328" y="550" name="top"/>
	<outline>
		<contour>
			<point x="544" y="500" type="curve" smooth="yes"/>
			<point x="509" y="500" type="line" smooth="yes"/>
			<point x="493" y="500"/>
			<point x="481" y="491"/>
			<point x="480" y="475" type="curve" smooth="yes"/>
			<point x="470" y="371"/>
			<point x="448" y="246"/>
			<point x="429" y="142" type="curve"/>
			<point x="349" y="381" type="line"/>
			<point x="344" y="394"/>
			<point x="336" y="399"/>
			<point x="322" y="399" type="curve" smooth="yes"/>
			<point x="291" y="399" type="line" smooth="yes"/>
			<point x="277" y="399"/>
			<point x="264" y="395"/>
			<point x="259" y="381" type="curve"/>
			<point x="227" y="301"/>
			<point x="179" y="202"/>
			<point x="121" y="121" type="curve"/>
			<point x="167" y="475" type="line" smooth="yes"/>
			<point x="169" y="491"/>
			<point x="163" y="500"/>
			<point x="147" y="500" type="curve" smooth="yes"/>
			<point x="111" y="500" type="line" smooth="yes"/>
			<point x="95" y="500"/>
			<point x="83" y="492"/>
			<point x="82" y="475" type="curve"/>
			<point x="35" y="20" type="line" smooth="yes"/>
			<point x="33" y="4"/>
			<point x="38" y="-5"/>
			<point x="51" y="-5" type="curve" smooth="yes"/>
			<point x="105" y="-5"/>
			<point x="173" y="57"/>
			<point x="296" y="303" type="curve"/>
			<point x="395" y="13" type="line" smooth="yes"/>
			<point x="399" y="0"/>
			<point x="408" y="-5"/>
			<point x="422" y="-5" type="curve" smooth="yes"/>
			<point x="444" y="-5" type="line" smooth="yes"/>
			<point x="457" y="-5"/>
			<point x="462" y="4"/>
			<point x="468" y="20" type="curve" smooth="yes"/>
			<point x="520" y="172"/>
			<point x="543" y="323"/>
			<point x="565" y="475" type="curve" smooth="yes"/>
			<point x="567" y="492"/>
			<point x="560" y="500"/>
		</contour>
	</outline>
</glyph>
<glyph name="x" format="2">
	<advance width="575"/>
	<unicode hex="0078"/>
	<outline>
		<contour>
			<point x="477" y="29" type="curve" smooth="yes"/>
			<point x="377" y="256" type="line"/>
			<point x="544" y="431" type="line" smooth="yes"/>
			<point x="555" y="443"/>
			<point x="555" y="454"/>
			<point x="543" y="466" type="curve" smooth="yes"/>
			<point x="525" y="484" type="line" smooth="yes"/>
			<point x="513" y="496"/>
			<point x="501" y="495"/>
			<point x="490" y="483" type="curve" smooth="yes"/>
			<point x="345" y="333" type="line"/>
			<point x="319" y="386" type="line" smooth="yes"/>
			<point x="276" y="473"/>
			<point x="237" y="508"/>
			<point x="188" y="508" type="curve" smooth="yes"/>
			<point x="156" y="508"/>
			<point x="119" y="493"/>
			<point x="74" y="469" type="curve" smooth="yes"/>
			<point x="60" y="461"/>
			<point x="57" y="449"/>
			<point x="64" y="434" type="curve"/>
			<point x="76" y="412" type="line" smooth="yes"/>
			<point x="84" y="398"/>
			<point x="95" y="395"/>
			<point x="110" y="403" type="curve" smooth="yes"/>
			<point x="135" y="416"/>
			<point x="154" y="424"/>
			<point x="171" y="424" type="curve" smooth="yes"/>
			<point x="198" y="424"/>
			<point x="218" y="404"/>
			<point x="240" y="357" type="curve" smooth="yes"/>
			<point x="282" y="268" type="line"/>
			<point x="73" y="53" type="line" smooth="yes"/>
			<point x="62" y="41"/>
			<point x="62" y="28"/>
			<point x="73" y="17" type="curve" smooth="yes"/>
			<point x="92" y="-2" type="line" smooth="yes"/>
			<point x="104" y="-14"/>
			<point x="116" y="-14"/>
			<point x="127" y="-2" type="curve" smooth="yes"/>
			<point x="313" y="191" type="line"/>
			<point x="390" y="19" type="line"/>
			<point x="395" y="6"/>
			<point x="405" y="0"/>
			<point x="419" y="0" type="curve" smooth="yes"/>
			<point x="458" y="0" type="line" smooth="yes"/>
			<point x="477" y="0"/>
			<point x="485" y="12"/>
		</contour>
	</outline>
</glyph>
<glyph name="y" format="2">
	<advance width="575"/>
	<unicode hex="0079"/>
	<anchor x="248" y="0" name="bottom"/>
	<anchor x="328" y="540" name="top"/>
	<outline>
		<contour>
			<point x="527" y="500" type="curve" smooth="yes"/>
			<point x="491" y="500" type="line" smooth="yes"/>
			<point x="476" y="500"/>
			<point x="463" y="493"/>
			<point x="459" y="479" type="curve" smooth="yes"/>
			<point x="409" y="304"/>
			<point x="374" y="166"/>
			<point x="337" y="63" type="curve"/>
			<point x="268" y="63" type="line" smooth="yes"/>
			<point x="237" y="63"/>
			<point x="225" y="74"/>
			<point x="224" y="93" type="curve"/>
			<point x="188" y="479" type="line" smooth="yes"/>
			<point x="187" y="493"/>
			<point x="180" y="500"/>
			<point x="165" y="500" type="curve" smooth="yes"/>
			<point x="129" y="500" type="line" smooth="yes"/>
			<point x="111" y="500"/>
			<point x="101" y="490"/>
			<point x="102" y="472" type="curve"/>
			<point x="138" y="80" type="line" smooth="yes"/>
			<point x="143" y="22"/>
			<point x="182" y="-10"/>
			<point x="257" y="-10" type="curve" smooth="yes"/>
			<point x="308" y="-10" type="line"/>
			<point x="259" y="-115"/>
			<point x="201" y="-167"/>
			<point x="101" y="-167" type="curve" smooth="yes"/>
			<point x="73" y="-167"/>
			<point x="40" y="-162"/>
			<point x="4" y="-154" type="curve"/>
			<point x="-10" y="-148"/>
			<point x="-23" y="-154"/>
			<point x="-30" y="-169" type="curve"/>
			<point x="-43" y="-194" type="line" smooth="yes"/>
			<point x="-51" y="-209"/>
			<point x="-47" y="-220"/>
			<point x="-33" y="-226" type="curve"/>
			<point x="18" y="-239"/>
			<point x="63" y="-245"/>
			<point x="103" y="-245" type="curve" smooth="yes"/>
			<point x="363" y="-245"/>
			<point x="413" y="19"/>
			<point x="543" y="472" type="curve" smooth="yes"/>
			<point x="548" y="489"/>
			<point x="544" y="500"/>
		</contour>
	</outline>
</glyph>
<glyph name="z" format="1">
  <advance width="575"/>
  <unicode hex="007A"/>
  <outline>
    <contour>
      <point x="144" y="77" type="line"/>
      <point x="482" y="369" type="line" smooth="yes"/>
      <point x="503" y="387"/>
      <point x="514" y="406"/>
      <point x="518" y="431" type="curve" smooth="yes"/>
      <point x="525" y="475" type="line" smooth="yes"/>
      <point x="527" y="491"/>
      <point x="521" y="500"/>
      <point x="505" y="500" type="curve" smooth="yes"/>
      <point x="171" y="500" type="line" smooth="yes"/>
      <point x="155" y="500"/>
      <point x="144" y="492"/>
      <point x="142" y="475" type="curve" smooth="yes"/>
      <point x="138" y="449" type="line" smooth="yes"/>
      <point x="135" y="433"/>
      <point x="143" y="424"/>
      <point x="159" y="424" type="curve" smooth="yes"/>
      <point x="432" y="424" type="line"/>
      <point x="93" y="132" type="line" smooth="yes"/>
      <point x="72" y="114"/>
      <point x="61" y="95"/>
      <point x="57" y="70" type="curve" smooth="yes"/>
      <point x="50" y="25" type="line" smooth="yes"/>
      <point x="48" y="9"/>
      <point x="54" y="0"/>
      <point x="70" y="0" type="curve" smooth="yes"/>
      <point x="425" y="0" type="line" smooth="yes"/>
      <point x="442" y="0"/>
      <point x="452" y="9"/>
      <point x="454" y="25" type="curve" smooth="yes"/>
      <point x="459" y="52" type="line" smooth="yes"/>
      <point x="461" y="68"/>
      <point x="455" y="77"/>
      <point x="438" y="77" type="curve" smooth="yes"/>
    </contour>
    <contour>
      <point x="328" y="550" type="move" name="top"/>
    </contour>
    <contour>
      <point x="248" y="0" type="move" name="bottom"/>
    </contour>
  </outline>
</glyph>
<glyph name="braceleft" format="1">
  <advance width="575"/>
  <unicode hex="007B"/>
  <outline>
    <contour>
      <point x="383" y="585" type="line" smooth="yes"/>
      <point x="393" y="646"/>
      <point x="417" y="674"/>
      <point x="477" y="674" type="curve" smooth="yes"/>
      <point x="558" y="674" type="line" smooth="yes"/>
      <point x="574" y="674"/>
      <point x="584" y="682"/>
      <point x="587" y="699" type="curve" smooth="yes"/>
      <point x="591" y="725" type="line" smooth="yes"/>
      <point x="594" y="741"/>
      <point x="586" y="750"/>
      <point x="570" y="750" type="curve" smooth="yes"/>
      <point x="489" y="750" type="line" smooth="yes"/>
      <point x="373" y="750"/>
      <point x="317" y="704"/>
      <point x="298" y="585" type="curve" smooth="yes"/>
      <point x="270" y="409" type="line" smooth="yes"/>
      <point x="261" y="350"/>
      <point x="236" y="324"/>
      <point x="177" y="324" type="curve" smooth="yes"/>
      <point x="97" y="324" type="line" smooth="yes"/>
      <point x="81" y="324"/>
      <point x="70" y="316"/>
      <point x="68" y="299" type="curve" smooth="yes"/>
      <point x="64" y="273" type="line" smooth="yes"/>
      <point x="61" y="257"/>
      <point x="69" y="248"/>
      <point x="85" y="248" type="curve" smooth="yes"/>
      <point x="165" y="248" type="line" smooth="yes"/>
      <point x="224" y="248"/>
      <point x="241" y="223"/>
      <point x="231" y="164" type="curve" smooth="yes"/>
      <point x="203" y="-13" type="line" smooth="yes"/>
      <point x="185" y="-131"/>
      <point x="224" y="-178"/>
      <point x="342" y="-178" type="curve" smooth="yes"/>
      <point x="423" y="-178" type="line" smooth="yes"/>
      <point x="439" y="-178"/>
      <point x="449" y="-170"/>
      <point x="452" y="-153" type="curve" smooth="yes"/>
      <point x="456" y="-127" type="line" smooth="yes"/>
      <point x="459" y="-111"/>
      <point x="451" y="-102"/>
      <point x="435" y="-102" type="curve" smooth="yes"/>
      <point x="354" y="-102" type="line" smooth="yes"/>
      <point x="295" y="-102"/>
      <point x="278" y="-76"/>
      <point x="288" y="-13" type="curve" smooth="yes"/>
      <point x="316" y="164" type="line" smooth="yes"/>
      <point x="324" y="214"/>
      <point x="324" y="259"/>
      <point x="270" y="286" type="curve"/>
      <point x="332" y="314"/>
      <point x="347" y="355"/>
      <point x="355" y="409" type="curve" smooth="yes"/>
    </contour>
  </outline>
</glyph>
<glyph name="bar" format="1">
  <advance width="575"/>
  <unicode hex="007C"/>
  <outline>
    <contour>
      <point x="349" y="750" type="line" smooth="yes"/>
      <point x="333" y="750"/>
      <point x="323" y="741"/>
      <point x="320" y="725" type="curve" smooth="yes"/>
      <point x="181" y="-153" type="line" smooth="yes"/>
      <point x="178" y="-170"/>
      <point x="186" y="-178"/>
      <point x="202" y="-178" type="curve" smooth="yes"/>
      <point x="237" y="-178" type="line" smooth="yes"/>
      <point x="254" y="-178"/>
      <point x="264" y="-169"/>
      <point x="266" y="-153" type="curve" smooth="yes"/>
      <point x="405" y="725" type="line" smooth="yes"/>
      <point x="408" y="742"/>
      <point x="400" y="750"/>
      <point x="384" y="750" type="curve" smooth="yes"/>
    </contour>
  </outline>
</glyph>
<glyph name="braceright" format="2">
	<advance width="575"/>
	<unicode hex="007D"/>
	<outline>
		<contour>
			<point x="298" y="585" type="curve" smooth="yes"/>
			<point x="270" y="409" type="line"/>
			<point x="262" y="355"/>
			<point x="263" y="314"/>
			<point x="317" y="286" type="curve"/>
			<point x="253" y="259"/>
			<point x="239" y="214"/>
			<point x="231" y="164" type="curve" smooth="yes"/>
			<point x="203" y="-13" type="line" smooth="yes"/>
			<point x="193" y="-76"/>
			<point x="168" y="-102"/>
			<point x="109" y="-102" type="curve" smooth="yes"/>
			<point x="28" y="-102" type="line" smooth="yes"/>
			<point x="12" y="-102"/>
			<point x="2" y="-111"/>
			<point x="-1" y="-127" type="curve" smooth="yes"/>
			<point x="-5" y="-153" type="line" smooth="yes"/>
			<point x="-8" y="-170"/>
			<point x="0" y="-178"/>
			<point x="16" y="-178" type="curve" smooth="yes"/>
			<point x="97" y="-178" type="line" smooth="yes"/>
			<point x="215" y="-178"/>
			<point x="270" y="-131"/>
			<point x="288" y="-13" type="curve" smooth="yes"/>
			<point x="316" y="164" type="line" smooth="yes"/>
			<point x="326" y="223"/>
			<point x="351" y="248"/>
			<point x="410" y="248" type="curve" smooth="yes"/>
			<point x="490" y="248" type="line" smooth="yes"/>
			<point x="506" y="248"/>
			<point x="516" y="257"/>
			<point x="519" y="273" type="curve" smooth="yes"/>
			<point x="523" y="299" type="line" smooth="yes"/>
			<point x="525" y="316"/>
			<point x="518" y="324"/>
			<point x="502" y="324" type="curve" smooth="yes"/>
			<point x="422" y="324" type="line" smooth="yes"/>
			<point x="363" y="324"/>
			<point x="346" y="350"/>
			<point x="355" y="409" type="curve" smooth="yes"/>
			<point x="383" y="585" type="line" smooth="yes"/>
			<point x="402" y="704"/>
			<point x="360" y="750"/>
			<point x="244" y="750" type="curve" smooth="yes"/>
			<point x="163" y="750" type="line" smooth="yes"/>
			<point x="147" y="750"/>
			<point x="137" y="741"/>
			<point x="134" y="725" type="curve" smooth="yes"/>
			<point x="130" y="699" type="line" smooth="yes"/>
			<point x="127" y="682"/>
			<point x="135" y="674"/>
			<point x="151" y="674" type="curve" smooth="yes"/>
			<point x="232" y="674" type="line" smooth="yes"/>
			<point x="292" y="674"/>
			<point x="308" y="646"/>
		</contour>
	</outline>
</glyph>
<glyph name="asciitilde" format="1">
  <advance width="575"/>
  <unicode hex="007E"/>
  <outline>
    <contour>
      <point x="495" y="308" type="line" smooth="yes"/>
      <point x="478" y="308"/>
      <point x="467" y="300"/>
      <point x="465" y="286" type="curve" smooth="yes"/>
      <point x="458" y="241"/>
      <point x="437" y="216"/>
      <point x="407" y="216" type="curve" smooth="yes"/>
      <point x="383" y="216"/>
      <point x="352" y="238"/>
      <point x="319" y="277" type="curve" smooth="yes"/>
      <point x="274" y="331"/>
      <point x="225" y="361"/>
      <point x="182" y="361" type="curve" smooth="yes"/>
      <point x="100" y="361"/>
      <point x="47" y="310"/>
      <point x="32" y="219" type="curve" smooth="yes"/>
      <point x="29" y="202"/>
      <point x="37" y="193"/>
      <point x="52" y="193" type="curve" smooth="yes"/>
      <point x="80" y="193" type="line" smooth="yes"/>
      <point x="98" y="193"/>
      <point x="108" y="201"/>
      <point x="110" y="215" type="curve" smooth="yes"/>
      <point x="118" y="260"/>
      <point x="138" y="284"/>
      <point x="169" y="284" type="curve" smooth="yes"/>
      <point x="192" y="284"/>
      <point x="223" y="263"/>
      <point x="257" y="223" type="curve" smooth="yes"/>
      <point x="302" y="169"/>
      <point x="351" y="140"/>
      <point x="395" y="140" type="curve" smooth="yes"/>
      <point x="476" y="140"/>
      <point x="528" y="190"/>
      <point x="543" y="282" type="curve" smooth="yes"/>
      <point x="546" y="299"/>
      <point x="539" y="308"/>
      <point x="524" y="308" type="curve" smooth="yes"/>
    </contour>
  </outline>
</glyph>
<glyph name="cent" format="2">
	<advance width="575"/>
	<unicode hex="00A2"/>
	<outline>
		<contour>
			<point x="279" y="-153" type="curve" smooth="yes"/>
			<point x="308" y="31" type="line"/>
			<point x="225" y="44" type="line"/>
			<point x="194" y="-153" type="line" smooth="yes"/>
			<point x="191" y="-170"/>
			<point x="199" y="-178"/>
			<point x="215" y="-178" type="curve" smooth="yes"/>
			<point x="250" y="-178" type="line" smooth="yes"/>
			<point x="266" y="-178"/>
			<point x="276" y="-170"/>
		</contour>
		<contour>
			<point x="322" y="653" type="curve" smooth="yes"/>
			<point x="292" y="467" type="line"/>
			<point x="379" y="480" type="line"/>
			<point x="407" y="653" type="line" smooth="yes"/>
			<point x="410" y="670"/>
			<point x="402" y="678"/>
			<point x="386" y="678" type="curve" smooth="yes"/>
			<point x="351" y="678" type="line" smooth="yes"/>
			<point x="335" y="678"/>
			<point x="325" y="670"/>
		</contour>
		<component base="c"/>
	</outline>
</glyph>
<glyph name="sterling" format="2">
	<advance width="575"/>
	<unicode hex="00A3"/>
	<outline>
		<contour>
			<point x="487" y="518" type="curve" smooth="yes"/>
			<point x="522" y="518" type="line" smooth="yes"/>
			<point x="538" y="518"/>
			<point x="549" y="527"/>
			<point x="549" y="544" type="curve" smooth="yes"/>
			<point x="549" y="631"/>
			<point x="520" y="710"/>
			<point x="400" y="710" type="curve" smooth="yes"/>
			<point x="308" y="710"/>
			<point x="230" y="664"/>
			<point x="210" y="538" type="curve" smooth="yes"/>
			<point x="186" y="389" type="line"/>
			<point x="132" y="389" type="line" smooth="yes"/>
			<point x="116" y="389"/>
			<point x="106" y="380"/>
			<point x="103" y="363" type="curve" smooth="yes"/>
			<point x="99" y="337" type="line" smooth="yes"/>
			<point x="96" y="321"/>
			<point x="104" y="312"/>
			<point x="120" y="312" type="curve" smooth="yes"/>
			<point x="174" y="312" type="line"/>
			<point x="137" y="77" type="line"/>
			<point x="83" y="77" type="line" smooth="yes"/>
			<point x="67" y="77"/>
			<point x="56" y="68"/>
			<point x="54" y="52" type="curve" smooth="yes"/>
			<point x="49" y="25" type="line" smooth="yes"/>
			<point x="47" y="9"/>
			<point x="54" y="0"/>
			<point x="70" y="0" type="curve" smooth="yes"/>
			<point x="425" y="0" type="line" smooth="yes"/>
			<point x="442" y="0"/>
			<point x="452" y="9"/>
			<point x="454" y="25" type="curve" smooth="yes"/>
			<point x="459" y="52" type="line" smooth="yes"/>
			<point x="461" y="68"/>
			<point x="455" y="77"/>
			<point x="438" y="77" type="curve" smooth="yes"/>
			<point x="222" y="77" type="line"/>
			<point x="259" y="312" type="line"/>
			<point x="435" y="312" type="line" smooth="yes"/>
			<point x="451" y="312"/>
			<point x="461" y="321"/>
			<point x="464" y="337" type="curve" smooth="yes"/>
			<point x="468" y="364" type="line" smooth="yes"/>
			<point x="471" y="380"/>
			<point x="463" y="389"/>
			<point x="447" y="389" type="curve" smooth="yes"/>
			<point x="271" y="389" type="line"/>
			<point x="295" y="538" type="line" smooth="yes"/>
			<point x="304" y="600"/>
			<point x="343" y="634"/>
			<point x="388" y="634" type="curve" smooth="yes"/>
			<point x="445" y="634"/>
			<point x="462" y="588"/>
			<point x="462" y="544" type="curve" smooth="yes"/>
			<point x="462" y="527"/>
			<point x="471" y="518"/>
		</contour>
	</outline>
</glyph>
<glyph name="currency" format="2">
	<advance width="575"/>
	<unicode hex="00A4"/>
	<outline>
		<contour>
			<point x="471" y="360" type="curve"/>
			<point x="566" y="442" type="line" smooth="yes"/>
			<point x="580" y="453"/>
			<point x="582" y="466"/>
			<point x="571" y="477" type="curve" smooth="yes"/>
			<point x="551" y="498" type="line" smooth="yes"/>
			<point x="541" y="508"/>
			<point x="529" y="508"/>
			<point x="516" y="497" type="curve" smooth="yes"/>
			<point x="423" y="417" type="line"/>
			<point x="395" y="438"/>
			<point x="358" y="449"/>
			<point x="320" y="449" type="curve" smooth="yes"/>
			<point x="281" y="449"/>
			<point x="241" y="438"/>
			<point x="204" y="417" type="curve"/>
			<point x="138" y="497" type="line" smooth="yes"/>
			<point x="128" y="508"/>
			<point x="116" y="508"/>
			<point x="102" y="497" type="curve" smooth="yes"/>
			<point x="76" y="477" type="line" smooth="yes"/>
			<point x="62" y="466"/>
			<point x="60" y="453"/>
			<point x="69" y="442" type="curve" smooth="yes"/>
			<point x="138" y="360" type="line"/>
			<point x="112" y="327"/>
			<point x="95" y="289"/>
			<point x="89" y="250" type="curve" smooth="yes"/>
			<point x="83" y="212"/>
			<point x="88" y="173"/>
			<point x="104" y="141" type="curve"/>
			<point x="9" y="59" type="line" smooth="yes"/>
			<point x="-4" y="47"/>
			<point x="-6" y="35"/>
			<point x="4" y="24" type="curve" smooth="yes"/>
			<point x="24" y="3" type="line" smooth="yes"/>
			<point x="34" y="-8"/>
			<point x="46" y="-8"/>
			<point x="60" y="4" type="curve" smooth="yes"/>
			<point x="152" y="84" type="line"/>
			<point x="181" y="63"/>
			<point x="217" y="51"/>
			<point x="256" y="51" type="curve" smooth="yes"/>
			<point x="294" y="51"/>
			<point x="335" y="63"/>
			<point x="371" y="84" type="curve"/>
			<point x="438" y="4" type="line" smooth="yes"/>
			<point x="447" y="-8"/>
			<point x="459" y="-8"/>
			<point x="473" y="3" type="curve" smooth="yes"/>
			<point x="499" y="24" type="line" smooth="yes"/>
			<point x="514" y="35"/>
			<point x="516" y="47"/>
			<point x="506" y="59" type="curve" smooth="yes"/>
			<point x="437" y="141" type="line"/>
			<point x="463" y="173"/>
			<point x="481" y="212"/>
			<point x="487" y="250" type="curve" smooth="yes"/>
			<point x="493" y="289"/>
			<point x="487" y="327"/>
		</contour>
		<contour>
			<point x="269" y="128" type="curve" smooth="yes"/>
			<point x="201" y="128"/>
			<point x="154" y="182"/>
			<point x="165" y="250" type="curve" smooth="yes"/>
			<point x="176" y="318"/>
			<point x="239" y="373"/>
			<point x="307" y="373" type="curve" smooth="yes"/>
			<point x="375" y="373"/>
			<point x="421" y="318"/>
			<point x="410" y="250" type="curve" smooth="yes"/>
			<point x="399" y="182"/>
			<point x="337" y="128"/>
		</contour>
	</outline>
</glyph>
<glyph name="yen" format="2">
	<advance width="575"/>
	<unicode hex="00A5"/>
	<outline>
		<contour>
			<point x="603" y="700" type="curve" smooth="yes"/>
			<point x="567" y="700" type="line" smooth="yes"/>
			<point x="553" y="700"/>
			<point x="542" y="695"/>
			<point x="534" y="682" type="curve" smooth="yes"/>
			<point x="355" y="410" type="line" smooth="yes"/>
			<point x="343" y="391"/>
			<point x="327" y="380"/>
			<point x="309" y="380" type="curve" smooth="yes"/>
			<point x="291" y="380"/>
			<point x="277" y="391"/>
			<point x="270" y="410" type="curve" smooth="yes"/>
			<point x="177" y="682" type="line" smooth="yes"/>
			<point x="173" y="695"/>
			<point x="165" y="700"/>
			<point x="151" y="700" type="curve" smooth="yes"/>
			<point x="114" y="700" type="line" smooth="yes"/>
			<point x="95" y="700"/>
			<point x="85" y="688"/>
			<point x="92" y="671" type="curve" smooth="yes"/>
			<point x="178" y="416" type="line"/>
			<point x="124" y="416" type="line" smooth="yes"/>
			<point x="108" y="416"/>
			<point x="98" y="408"/>
			<point x="95" y="391" type="curve" smooth="yes"/>
			<point x="92" y="370" type="line" smooth="yes"/>
			<point x="89" y="354"/>
			<point x="97" y="345"/>
			<point x="113" y="345" type="curve" smooth="yes"/>
			<point x="493" y="345" type="line" smooth="yes"/>
			<point x="509" y="345"/>
			<point x="519" y="354"/>
			<point x="522" y="370" type="curve" smooth="yes"/>
			<point x="525" y="391" type="line" smooth="yes"/>
			<point x="528" y="408"/>
			<point x="520" y="416"/>
			<point x="504" y="416" type="curve" smooth="yes"/>
			<point x="449" y="416" type="line"/>
			<point x="617" y="671" type="line" smooth="yes"/>
			<point x="628" y="688"/>
			<point x="623" y="700"/>
		</contour>
		<contour>
			<point x="482" y="275" type="curve" smooth="yes"/>
			<point x="102" y="275" type="line" smooth="yes"/>
			<point x="86" y="275"/>
			<point x="76" y="267"/>
			<point x="73" y="250" type="curve" smooth="yes"/>
			<point x="70" y="229" type="line" smooth="yes"/>
			<point x="67" y="213"/>
			<point x="75" y="204"/>
			<point x="91" y="204" type="curve" smooth="yes"/>
			<point x="238" y="204" type="line"/>
			<point x="209" y="25" type="line" smooth="yes"/>
			<point x="207" y="9"/>
			<point x="214" y="0"/>
			<point x="230" y="0" type="curve" smooth="yes"/>
			<point x="265" y="0" type="line" smooth="yes"/>
			<point x="281" y="0"/>
			<point x="292" y="9"/>
			<point x="294" y="25" type="curve" smooth="yes"/>
			<point x="323" y="204" type="line"/>
			<point x="471" y="204" type="line" smooth="yes"/>
			<point x="487" y="204"/>
			<point x="497" y="213"/>
			<point x="500" y="229" type="curve" smooth="yes"/>
			<point x="503" y="250" type="line" smooth="yes"/>
			<point x="506" y="267"/>
			<point x="498" y="275"/>
		</contour>
	</outline>
</glyph>
<glyph name="brokenbar" format="2">
	<advance width="575"/>
	<unicode hex="00A6"/>
	<outline>
		<contour>
			<point x="202" y="-178" type="curve" smooth="yes"/>
			<point x="237" y="-178" type="line" smooth="yes"/>
			<point x="254" y="-178"/>
			<point x="264" y="-169"/>
			<point x="266" y="-153" type="curve" smooth="yes"/>
			<point x="317" y="168" type="line" smooth="yes"/>
			<point x="320" y="185"/>
			<point x="312" y="193"/>
			<point x="296" y="193" type="curve" smooth="yes"/>
			<point x="261" y="193" type="line" smooth="yes"/>
			<point x="245" y="193"/>
			<point x="235" y="185"/>
			<point x="232" y="168" type="curve" smooth="yes"/>
			<point x="181" y="-153" type="line" smooth="yes"/>
			<point x="178" y="-170"/>
			<point x="186" y="-178"/>
		</contour>
		<contour>
			<point x="290" y="379" type="curve" smooth="yes"/>
			<point x="325" y="379" type="line" smooth="yes"/>
			<point x="341" y="379"/>
			<point x="352" y="388"/>
			<point x="354" y="404" type="curve" smooth="yes"/>
			<point x="405" y="725" type="line" smooth="yes"/>
			<point x="408" y="742"/>
			<point x="401" y="750"/>
			<point x="384" y="750" type="curve" smooth="yes"/>
			<point x="349" y="750" type="line" smooth="yes"/>
			<point x="333" y="750"/>
			<point x="323" y="741"/>
			<point x="320" y="725" type="curve" smooth="yes"/>
			<point x="269" y="404" type="line" smooth="yes"/>
			<point x="267" y="388"/>
			<point x="274" y="379"/>
		</contour>
	</outline>
</glyph>
<glyph name="section" format="1">
  <advance width="575"/>
  <unicode hex="00A7"/>
  <outline>
    <contour>
      <point x="442" y="708"/>
      <point x="398" y="710"/>
      <point x="372" y="710" type="curve" smooth="yes"/>
      <point x="247" y="710"/>
      <point x="171" y="659"/>
      <point x="156" y="564" type="curve" smooth="yes"/>
      <point x="147" y="509"/>
      <point x="170" y="462"/>
      <point x="222" y="428" type="curve"/>
      <point x="161" y="408"/>
      <point x="125" y="372"/>
      <point x="117" y="320" type="curve" smooth="yes"/>
      <point x="106" y="250"/>
      <point x="146" y="210"/>
      <point x="266" y="172" type="curve" smooth="yes"/>
      <point x="331" y="151"/>
      <point x="363" y="116"/>
      <point x="356" y="73" type="curve" smooth="yes"/>
      <point x="349" y="32"/>
      <point x="305" y="8"/>
      <point x="229" y="7" type="curve" smooth="yes"/>
      <point x="209" y="7"/>
      <point x="156" y="8"/>
      <point x="115" y="16" type="curve" smooth="yes"/>
      <point x="99" y="19"/>
      <point x="87" y="13"/>
      <point x="81" y="-3" type="curve" smooth="yes"/>
      <point x="71" y="-29" type="line"/>
      <point x="64" y="-45"/>
      <point x="69" y="-56"/>
      <point x="85" y="-59" type="curve" smooth="yes"/>
      <point x="132" y="-68"/>
      <point x="190" y="-70"/>
      <point x="216" y="-70" type="curve" smooth="yes"/>
      <point x="347" y="-70"/>
      <point x="426" y="-19"/>
      <point x="441" y="76" type="curve" smooth="yes"/>
      <point x="450" y="132"/>
      <point x="427" y="178"/>
      <point x="376" y="212" type="curve"/>
      <point x="436" y="232"/>
      <point x="472" y="269"/>
      <point x="480" y="321" type="curve" smooth="yes"/>
      <point x="491" y="391"/>
      <point x="452" y="430"/>
      <point x="333" y="469" type="curve" smooth="yes"/>
      <point x="267" y="489"/>
      <point x="234" y="524"/>
      <point x="241" y="568" type="curve" smooth="yes"/>
      <point x="248" y="609"/>
      <point x="290" y="632"/>
      <point x="360" y="634" type="curve" smooth="yes"/>
      <point x="379" y="634"/>
      <point x="417" y="632"/>
      <point x="458" y="625" type="curve" smooth="yes"/>
      <point x="474" y="622"/>
      <point x="485" y="628"/>
      <point x="491" y="643" type="curve" smooth="yes"/>
      <point x="502" y="669" type="line" smooth="yes"/>
      <point x="509" y="685"/>
      <point x="504" y="696"/>
      <point x="488" y="699" type="curve" smooth="yes"/>
    </contour>
    <contour>
      <point x="388" y="278"/>
      <point x="362" y="256"/>
      <point x="316" y="242" type="curve"/>
      <point x="298" y="248" type="line" smooth="yes"/>
      <point x="222" y="271"/>
      <point x="198" y="294"/>
      <point x="204" y="335" type="curve" smooth="yes"/>
      <point x="209" y="364"/>
      <point x="235" y="386"/>
      <point x="278" y="400" type="curve"/>
      <point x="285" y="397"/>
      <point x="292" y="394"/>
      <point x="300" y="392" type="curve"/>
      <point x="375" y="369"/>
      <point x="400" y="346"/>
      <point x="393" y="306" type="curve" smooth="yes"/>
    </contour>
  </outline>
</glyph>
<glyph name="dieresis" format="2">
	<advance width="575"/>
	<unicode hex="00A8"/>
	<anchor x="328" y="500" name="_top"/>
	<outline>
		<contour>
			<point x="285" y="629" type="curve" smooth="yes"/>
			<point x="292" y="675" type="line" smooth="yes"/>
			<point x="295" y="691"/>
			<point x="288" y="700"/>
			<point x="271" y="700" type="curve" smooth="yes"/>
			<point x="236" y="700" type="line" smooth="yes"/>
			<point x="220" y="700"/>
			<point x="210" y="691"/>
			<point x="207" y="675" type="curve" smooth="yes"/>
			<point x="200" y="629" type="line" smooth="yes"/>
			<point x="197" y="613"/>
			<point x="205" y="604"/>
			<point x="221" y="604" type="curve" smooth="yes"/>
			<point x="256" y="604" type="line" smooth="yes"/>
			<point x="273" y="604"/>
			<point x="282" y="612"/>
		</contour>
		<contour>
			<point x="492" y="629" type="curve" smooth="yes"/>
			<point x="499" y="675" type="line" smooth="yes"/>
			<point x="502" y="691"/>
			<point x="494" y="700"/>
			<point x="478" y="700" type="curve" smooth="yes"/>
			<point x="443" y="700" type="line" smooth="yes"/>
			<point x="427" y="700"/>
			<point x="417" y="691"/>
			<point x="414" y="675" type="curve" smooth="yes"/>
			<point x="407" y="629" type="line" smooth="yes"/>
			<point x="404" y="613"/>
			<point x="411" y="604"/>
			<point x="428" y="604" type="curve" smooth="yes"/>
			<point x="463" y="604" type="line" smooth="yes"/>
			<point x="479" y="604"/>
			<point x="489" y="612"/>
		</contour>
	</outline>
</glyph>
<glyph name="ordfeminine" format="2">
	<advance width="575"/>
	<unicode hex="00AA"/>
	<outline>
		<contour>
			<point x="443" y="401" type="curve"/>
			<point x="488" y="695" type="line" smooth="yes"/>
			<point x="491" y="712"/>
			<point x="482" y="724"/>
			<point x="466" y="727" type="curve" smooth="yes"/>
			<point x="465" y="727" type="line" smooth="yes"/>
			<point x="424" y="732"/>
			<point x="387" y="733"/>
			<point x="368" y="733" type="curve" smooth="yes"/>
			<point x="243" y="733"/>
			<point x="171" y="651"/>
			<point x="171" y="509" type="curve" smooth="yes"/>
			<point x="171" y="416"/>
			<point x="205" y="367"/>
			<point x="271" y="367" type="curve" smooth="yes"/>
			<point x="302" y="367"/>
			<point x="336" y="379"/>
			<point x="366" y="401" type="curve"/>
			<point x="366" y="402" type="line"/>
			<point x="363" y="385"/>
			<point x="373" y="373"/>
			<point x="390" y="373" type="curve" smooth="yes"/>
			<point x="415" y="373" type="line" smooth="yes"/>
			<point x="428" y="373"/>
			<point x="439" y="384"/>
		</contour>
		<contour>
			<point x="407" y="661" type="curve"/>
			<point x="380" y="489" type="line"/>
			<point x="348" y="455"/>
			<point x="316" y="437"/>
			<point x="291" y="437" type="curve" smooth="yes"/>
			<point x="262" y="437"/>
			<point x="249" y="460"/>
			<point x="249" y="519" type="curve" smooth="yes"/>
			<point x="249" y="613"/>
			<point x="288" y="663"/>
			<point x="360" y="663" type="curve" smooth="yes"/>
			<point x="370" y="663"/>
			<point x="387" y="662"/>
		</contour>
	</outline>
</glyph>
<glyph name="guillemotleft" format="2">
	<advance width="575"/>
	<unicode hex="00AB"/>
	<outline>
		<contour>
			<point x="271" y="63" type="curve" smooth="yes"/>
			<point x="114" y="250" type="line"/>
			<point x="331" y="437" type="line" smooth="yes"/>
			<point x="344" y="449"/>
			<point x="346" y="462"/>
			<point x="335" y="473" type="curve" smooth="yes"/>
			<point x="315" y="493" type="line" smooth="yes"/>
			<point x="305" y="504"/>
			<point x="293" y="504"/>
			<point x="279" y="492" type="curve" smooth="yes"/>
			<point x="75" y="316" type="line" smooth="yes"/>
			<point x="53" y="297"/>
			<point x="34" y="277"/>
			<point x="30" y="250" type="curve" smooth="yes"/>
			<point x="26" y="223"/>
			<point x="39" y="204"/>
			<point x="55" y="185" type="curve" smooth="yes"/>
			<point x="203" y="8" type="line" smooth="yes"/>
			<point x="213" y="-3"/>
			<point x="225" y="-3"/>
			<point x="239" y="7" type="curve" smooth="yes"/>
			<point x="265" y="28" type="line" smooth="yes"/>
			<point x="279" y="39"/>
			<point x="281" y="52"/>
		</contour>
		<contour>
			<point x="507" y="63" type="curve" smooth="yes"/>
			<point x="350" y="250" type="line"/>
			<point x="567" y="437" type="line" smooth="yes"/>
			<point x="581" y="449"/>
			<point x="583" y="462"/>
			<point x="571" y="473" type="curve" smooth="yes"/>
			<point x="551" y="493" type="line" smooth="yes"/>
			<point x="541" y="504"/>
			<point x="529" y="504"/>
			<point x="516" y="492" type="curve" smooth="yes"/>
			<point x="311" y="316" type="line" smooth="yes"/>
			<point x="289" y="297"/>
			<point x="270" y="277"/>
			<point x="266" y="250" type="curve" smooth="yes"/>
			<point x="262" y="223"/>
			<point x="275" y="204"/>
			<point x="291" y="185" type="curve" smooth="yes"/>
			<point x="440" y="8" type="line" smooth="yes"/>
			<point x="449" y="-3"/>
			<point x="461" y="-3"/>
			<point x="475" y="7" type="curve" smooth="yes"/>
			<point x="501" y="28" type="line" smooth="yes"/>
			<point x="516" y="39"/>
			<point x="518" y="52"/>
		</contour>
	</outline>
</glyph>
<glyph name="logicalnot" format="2">
	<advance width="575"/>
	<unicode hex="00AC"/>
	<outline>
		<contour>
			<point x="491" y="414" type="curve" smooth="yes"/>
			<point x="136" y="414" type="line" smooth="yes"/>
			<point x="120" y="414"/>
			<point x="110" y="405"/>
			<point x="107" y="389" type="curve" smooth="yes"/>
			<point x="103" y="362" type="line" smooth="yes"/>
			<point x="100" y="346"/>
			<point x="108" y="337"/>
			<point x="124" y="337" type="curve" smooth="yes"/>
			<point x="419" y="337" type="line"/>
			<point x="389" y="150" type="line" smooth="yes"/>
			<point x="387" y="134"/>
			<point x="394" y="125"/>
			<point x="410" y="125" type="curve" smooth="yes"/>
			<point x="445" y="125" type="line" smooth="yes"/>
			<point x="462" y="125"/>
			<point x="472" y="134"/>
			<point x="474" y="150" type="curve" smooth="yes"/>
			<point x="512" y="389" type="line" smooth="yes"/>
			<point x="515" y="405"/>
			<point x="507" y="414"/>
		</contour>
	</outline>
</glyph>
<glyph name="macron" format="1">
  <advance width="575"/>
  <unicode hex="00AF"/>
  <outline>
    <contour>
      <point x="237" y="649" type="line" smooth="yes"/>
      <point x="235" y="632"/>
      <point x="242" y="624"/>
      <point x="258" y="624" type="curve" smooth="yes"/>
      <point x="496" y="624" type="line" smooth="yes"/>
      <point x="512" y="624"/>
      <point x="523" y="632"/>
      <point x="525" y="648" type="curve" smooth="yes"/>
      <point x="529" y="675" type="line" smooth="yes"/>
      <point x="532" y="691"/>
      <point x="524" y="700"/>
      <point x="508" y="700" type="curve" smooth="yes"/>
      <point x="270" y="700" type="line" smooth="yes"/>
      <point x="254" y="700"/>
      <point x="244" y="691"/>
      <point x="241" y="675" type="curve" smooth="yes"/>
    </contour>
    <contour>
      <point x="328" y="500" type="move" name="_top"/>
    </contour>
  </outline>
</glyph>
<glyph name="degree" format="2">
	<advance width="575"/>
	<unicode hex="00B0"/>
	<outline>
		<contour>
			<point x="364" y="710" type="curve" smooth="yes"/>
			<point x="247" y="710"/>
			<point x="147" y="615"/>
			<point x="147" y="498" type="curve" smooth="yes"/>
			<point x="147" y="409"/>
			<point x="210" y="346"/>
			<point x="306" y="346" type="curve" smooth="yes"/>
			<point x="422" y="346"/>
			<point x="517" y="446"/>
			<point x="517" y="560" type="curve" smooth="yes"/>
			<point x="517" y="648"/>
			<point x="455" y="710"/>
		</contour>
		<contour>
			<point x="315" y="423" type="curve" smooth="yes"/>
			<point x="265" y="423"/>
			<point x="233" y="459"/>
			<point x="233" y="509" type="curve" smooth="yes"/>
			<point x="233" y="576"/>
			<point x="285" y="633"/>
			<point x="349" y="633" type="curve" smooth="yes"/>
			<point x="398" y="633"/>
			<point x="431" y="598"/>
			<point x="431" y="548" type="curve" smooth="yes"/>
			<point x="431" y="483"/>
			<point x="379" y="423"/>
		</contour>
	</outline>
</glyph>
<glyph name="plusminus" format="1">
  <advance width="575"/>
  <unicode hex="00B1"/>
  <outline>
    <contour>
      <point x="362" y="452" type="line"/>
      <point x="389" y="625" type="line" smooth="yes"/>
      <point x="392" y="641"/>
      <point x="385" y="650"/>
      <point x="368" y="650" type="curve" smooth="yes"/>
      <point x="333" y="650" type="line" smooth="yes"/>
      <point x="317" y="650"/>
      <point x="307" y="641"/>
      <point x="304" y="625" type="curve" smooth="yes"/>
      <point x="277" y="452" type="line"/>
      <point x="108" y="452" type="line" smooth="yes"/>
      <point x="92" y="452"/>
      <point x="82" y="443"/>
      <point x="79" y="426" type="curve" smooth="yes"/>
      <point x="75" y="400" type="line" smooth="yes"/>
      <point x="72" y="384"/>
      <point x="80" y="375"/>
      <point x="96" y="375" type="curve" smooth="yes"/>
      <point x="265" y="375" type="line"/>
      <point x="237" y="202" type="line" smooth="yes"/>
      <point x="235" y="186"/>
      <point x="242" y="177"/>
      <point x="258" y="177" type="curve" smooth="yes"/>
      <point x="293" y="177" type="line" smooth="yes"/>
      <point x="310" y="177"/>
      <point x="320" y="185"/>
      <point x="322" y="202" type="curve" smooth="yes"/>
      <point x="350" y="375" type="line"/>
      <point x="519" y="375" type="line" smooth="yes"/>
      <point x="536" y="375"/>
      <point x="545" y="384"/>
      <point x="548" y="400" type="curve" smooth="yes"/>
      <point x="552" y="427" type="line" smooth="yes"/>
      <point x="555" y="443"/>
      <point x="548" y="452"/>
      <point x="531" y="452" type="curve" smooth="yes"/>
    </contour>
    <contour>
      <point x="15" y="25" type="line" smooth="yes"/>
      <point x="13" y="9"/>
      <point x="20" y="0"/>
      <point x="36" y="0" type="curve" smooth="yes"/>
      <point x="459" y="0" type="line" smooth="yes"/>
      <point x="476" y="0"/>
      <point x="486" y="9"/>
      <point x="488" y="25" type="curve" smooth="yes"/>
      <point x="493" y="52" type="line" smooth="yes"/>
      <point x="495" y="68"/>
      <point x="489" y="77"/>
      <point x="472" y="77" type="curve" smooth="yes"/>
      <point x="49" y="77" type="line" smooth="yes"/>
      <point x="33" y="77"/>
      <point x="22" y="68"/>
      <point x="20" y="52" type="curve" smooth="yes"/>
    </contour>
  </outline>
</glyph>
<glyph name="uni00B5" format="2">
	<advance width="575"/>
	<unicode hex="00B5"/>
	<outline>
		<contour>
			<point x="505" y="500" type="curve" smooth="yes"/>
			<point x="470" y="500" type="line" smooth="yes"/>
			<point x="454" y="500"/>
			<point x="443" y="491"/>
			<point x="441" y="475" type="curve" smooth="yes"/>
			<point x="377" y="71" type="line"/>
			<point x="331" y="68"/>
			<point x="293" y="67"/>
			<point x="269" y="67" type="curve" smooth="yes"/>
			<point x="177" y="67"/>
			<point x="146" y="99"/>
			<point x="161" y="193" type="curve" smooth="yes"/>
			<point x="206" y="475" type="line" smooth="yes"/>
			<point x="208" y="491"/>
			<point x="202" y="500"/>
			<point x="185" y="500" type="curve" smooth="yes"/>
			<point x="150" y="500" type="line" smooth="yes"/>
			<point x="134" y="500"/>
			<point x="123" y="492"/>
			<point x="121" y="475" type="curve" smooth="yes"/>
			<point x="12" y="-213" type="line" smooth="yes"/>
			<point x="9" y="-229"/>
			<point x="17" y="-238"/>
			<point x="33" y="-238" type="curve" smooth="yes"/>
			<point x="68" y="-238" type="line" smooth="yes"/>
			<point x="84" y="-238"/>
			<point x="94" y="-229"/>
			<point x="97" y="-213" type="curve" smooth="yes"/>
			<point x="134" y="23" type="line"/>
			<point x="159" y="0"/>
			<point x="200" y="-10"/>
			<point x="257" y="-10" type="curve" smooth="yes"/>
			<point x="290" y="-10"/>
			<point x="353" y="-9"/>
			<point x="428" y="3" type="curve" smooth="yes"/>
			<point x="444" y="5"/>
			<point x="453" y="14"/>
			<point x="455" y="30" type="curve" smooth="yes"/>
			<point x="526" y="475" type="line" smooth="yes"/>
			<point x="528" y="492"/>
			<point x="522" y="500"/>
		</contour>
	</outline>
</glyph>
<glyph name="paragraph" format="1">
  <advance width="575"/>
  <unicode hex="00B6"/>
  <outline>
    <contour>
      <point x="321" y="700" type="line" smooth="yes"/>
      <point x="177" y="700"/>
      <point x="117" y="615"/>
      <point x="100" y="511" type="curve" smooth="yes"/>
      <point x="98" y="495"/>
      <point x="96" y="480"/>
      <point x="96" y="466" type="curve" smooth="yes"/>
      <point x="96" y="384"/>
      <point x="138" y="322"/>
      <point x="261" y="322" type="curve"/>
      <point x="199" y="-75" type="line" smooth="yes"/>
      <point x="196" y="-91"/>
      <point x="204" y="-100"/>
      <point x="220" y="-100" type="curve" smooth="yes"/>
      <point x="255" y="-100" type="line" smooth="yes"/>
      <point x="272" y="-100"/>
      <point x="281" y="-91"/>
      <point x="284" y="-75" type="curve" smooth="yes"/>
      <point x="402" y="675" type="line" smooth="yes"/>
      <point x="405" y="692"/>
      <point x="398" y="700"/>
      <point x="381" y="700" type="curve" smooth="yes"/>
    </contour>
    <contour>
      <point x="531" y="700" type="line" smooth="yes"/>
      <point x="515" y="700"/>
      <point x="505" y="691"/>
      <point x="502" y="675" type="curve" smooth="yes"/>
      <point x="384" y="-75" type="line" smooth="yes"/>
      <point x="381" y="-91"/>
      <point x="389" y="-100"/>
      <point x="405" y="-100" type="curve" smooth="yes"/>
      <point x="440" y="-100" type="line" smooth="yes"/>
      <point x="457" y="-100"/>
      <point x="466" y="-91"/>
      <point x="469" y="-75" type="curve" smooth="yes"/>
      <point x="587" y="675" type="line" smooth="yes"/>
      <point x="590" y="692"/>
      <point x="583" y="700"/>
      <point x="566" y="700" type="curve" smooth="yes"/>
    </contour>
  </outline>
</glyph>
<glyph name="periodcentered" format="1">
  <advance width="575"/>
  <unicode hex="00B7"/>
  <outline>
    <contour>
      <point x="334" y="274" type="line" smooth="yes"/>
      <point x="336" y="290"/>
      <point x="330" y="299"/>
      <point x="313" y="299" type="curve" smooth="yes"/>
      <point x="278" y="299" type="line" smooth="yes"/>
      <point x="262" y="299"/>
      <point x="251" y="290"/>
      <point x="249" y="273" type="curve" smooth="yes"/>
      <point x="241" y="227" type="line" smooth="yes"/>
      <point x="239" y="211"/>
      <point x="246" y="202"/>
      <point x="262" y="202" type="curve" smooth="yes"/>
      <point x="297" y="202" type="line" smooth="yes"/>
      <point x="314" y="202"/>
      <point x="324" y="211"/>
      <point x="326" y="227" type="curve" smooth="yes"/>
    </contour>
  </outline>
</glyph>
<glyph name="cedilla" format="2">
	<advance width="575"/>
	<unicode hex="00B8"/>
	<anchor x="202" y="0" name="_bottom"/>
	<outline>
		<contour>
			<point x="302" y="-61" type="curve" smooth="yes"/>
			<point x="284" y="-61"/>
			<point x="263" y="-63"/>
			<point x="240" y="-68" type="curve"/>
			<point x="271" y="-17" type="line" smooth="yes"/>
			<point x="282" y="1"/>
			<point x="276" y="12"/>
			<point x="257" y="13" type="curve"/>
			<point x="239" y="13" type="line"/>
			<point x="225" y="14"/>
			<point x="215" y="8"/>
			<point x="207" y="-5" type="curve" smooth="yes"/>
			<point x="180" y="-48" type="line" smooth="yes"/>
			<point x="172" y="-61"/>
			<point x="172" y="-72"/>
			<point x="180" y="-82" type="curve" smooth="yes"/>
			<point x="204" y="-111" type="line" smooth="yes"/>
			<point x="212" y="-121"/>
			<point x="222" y="-123"/>
			<point x="235" y="-121" type="curve"/>
			<point x="245" y="-120"/>
			<point x="255" y="-119"/>
			<point x="263" y="-119" type="curve" smooth="yes"/>
			<point x="291" y="-119"/>
			<point x="304" y="-128"/>
			<point x="304" y="-140" type="curve" smooth="yes"/>
			<point x="304" y="-165"/>
			<point x="255" y="-181"/>
			<point x="207" y="-181" type="curve" smooth="yes"/>
			<point x="191" y="-181"/>
			<point x="169" y="-179"/>
			<point x="149" y="-175" type="curve" smooth="yes"/>
			<point x="134" y="-172"/>
			<point x="122" y="-177"/>
			<point x="115" y="-192" type="curve"/>
			<point x="109" y="-203" type="line" smooth="yes"/>
			<point x="101" y="-218"/>
			<point x="105" y="-230"/>
			<point x="120" y="-235" type="curve"/>
			<point x="147" y="-242"/>
			<point x="171" y="-246"/>
			<point x="196" y="-246" type="curve" smooth="yes"/>
			<point x="294" y="-246"/>
			<point x="403" y="-199"/>
			<point x="403" y="-129" type="curve" smooth="yes"/>
			<point x="403" y="-91"/>
			<point x="371" y="-61"/>
		</contour>
	</outline>
</glyph>
<glyph name="ordmasculine" format="2">
	<advance width="575"/>
	<unicode hex="00BA"/>
	<anchor x="261" y="83" name="bottom"/>
	<anchor x="288" y="250" name="center"/>
	<anchor x="414" y="90" name="ogonek"/>
	<anchor x="315" y="450" name="top"/>
	<anchor x="493" y="417" name="topright"/>
	<outline>
		<contour>
			<point x="379" y="715" type="curve" smooth="yes"/>
			<point x="277" y="715"/>
			<point x="201" y="616"/>
			<point x="201" y="489" type="curve" smooth="yes"/>
			<point x="201" y="399"/>
			<point x="247" y="345"/>
			<point x="325" y="345" type="curve" smooth="yes"/>
			<point x="425" y="345"/>
			<point x="499" y="444"/>
			<point x="499" y="573" type="curve" smooth="yes"/>
			<point x="499" y="662"/>
			<point x="455" y="715"/>
		</contour>
		<contour>
			<point x="331" y="417" type="curve" smooth="yes"/>
			<point x="297" y="417"/>
			<point x="278" y="444"/>
			<point x="278" y="497" type="curve" smooth="yes"/>
			<point x="278" y="576"/>
			<point x="319" y="643"/>
			<point x="369" y="643" type="curve" smooth="yes"/>
			<point x="403" y="643"/>
			<point x="421" y="617"/>
			<point x="421" y="563" type="curve" smooth="yes"/>
			<point x="421" y="484"/>
			<point x="380" y="417"/>
		</contour>
	</outline>
</glyph>
<glyph name="AE" format="1">
  <advance width="575"/>
  <unicode hex="00C6"/>
  <outline>
    <contour>
      <point x="346" y="77" type="line"/>
      <point x="385" y="326" type="line"/>
      <point x="487" y="326" type="line" smooth="yes"/>
      <point x="503" y="326"/>
      <point x="513" y="335"/>
      <point x="516" y="351" type="curve" smooth="yes"/>
      <point x="520" y="378" type="line" smooth="yes"/>
      <point x="523" y="394"/>
      <point x="515" y="403"/>
      <point x="499" y="403" type="curve" smooth="yes"/>
      <point x="397" y="403" type="line"/>
      <point x="432" y="624" type="line"/>
      <point x="541" y="624" type="line" smooth="yes"/>
      <point x="557" y="624"/>
      <point x="568" y="632"/>
      <point x="570" y="649" type="curve" smooth="yes"/>
      <point x="574" y="675" type="line" smooth="yes"/>
      <point x="577" y="692"/>
      <point x="569" y="700"/>
      <point x="553" y="700" type="curve" smooth="yes"/>
      <point x="359" y="700" type="line" smooth="yes"/>
      <point x="294" y="700"/>
      <point x="248" y="679"/>
      <point x="224" y="621" type="curve" smooth="yes"/>
      <point x="-18" y="28" type="line" smooth="yes"/>
      <point x="-25" y="11"/>
      <point x="-19" y="0"/>
      <point x="-1" y="0" type="curve" smooth="yes"/>
      <point x="34" y="0" type="line" smooth="yes"/>
      <point x="49" y="0"/>
      <point x="61" y="7"/>
      <point x="66" y="22" type="curve"/>
      <point x="126" y="170" type="line"/>
      <point x="275" y="170" type="line"/>
      <point x="252" y="25" type="line" smooth="yes"/>
      <point x="250" y="9"/>
      <point x="257" y="0"/>
      <point x="273" y="0" type="curve" smooth="yes"/>
      <point x="453" y="0" type="line" smooth="yes"/>
      <point x="470" y="0"/>
      <point x="480" y="9"/>
      <point x="482" y="25" type="curve" smooth="yes"/>
      <point x="487" y="52" type="line" smooth="yes"/>
      <point x="489" y="68"/>
      <point x="483" y="77"/>
      <point x="466" y="77" type="curve" smooth="yes"/>
    </contour>
    <contour>
      <point x="287" y="246" type="line"/>
      <point x="157" y="246" type="line"/>
      <point x="306" y="607" type="line" smooth="yes"/>
      <point x="312" y="624"/>
      <point x="328" y="634"/>
      <point x="349" y="634" type="curve"/>
    </contour>
  </outline>
</glyph>
<glyph name="multiply" format="2">
	<advance width="575"/>
	<unicode hex="00D7"/>
	<outline>
		<contour>
			<point x="475" y="44" type="curve" smooth="yes"/>
			<point x="340" y="262" type="line"/>
			<point x="521" y="457" type="line" smooth="yes"/>
			<point x="533" y="470"/>
			<point x="533" y="482"/>
			<point x="521" y="492" type="curve" smooth="yes"/>
			<point x="497" y="510" type="line" smooth="yes"/>
			<point x="486" y="519"/>
			<point x="473" y="517"/>
			<point x="461" y="504" type="curve" smooth="yes"/>
			<point x="300" y="329" type="line"/>
			<point x="194" y="504" type="line" smooth="yes"/>
			<point x="187" y="517"/>
			<point x="175" y="519"/>
			<point x="160" y="510" type="curve" smooth="yes"/>
			<point x="131" y="492" type="line" smooth="yes"/>
			<point x="116" y="482"/>
			<point x="112" y="470"/>
			<point x="120" y="457" type="curve" smooth="yes"/>
			<point x="238" y="263" type="line"/>
			<point x="34" y="44" type="line" smooth="yes"/>
			<point x="22" y="31"/>
			<point x="22" y="18"/>
			<point x="35" y="9" type="curve" smooth="yes"/>
			<point x="58" y="-10" type="line" smooth="yes"/>
			<point x="69" y="-19"/>
			<point x="82" y="-17"/>
			<point x="94" y="-4" type="curve" smooth="yes"/>
			<point x="279" y="196" type="line"/>
			<point x="402" y="-4" type="line" smooth="yes"/>
			<point x="409" y="-17"/>
			<point x="420" y="-19"/>
			<point x="436" y="-10" type="curve" smooth="yes"/>
			<point x="465" y="9" type="line" smooth="yes"/>
			<point x="479" y="18"/>
			<point x="483" y="31"/>
		</contour>
	</outline>
</glyph>
<glyph name="Thorn" format="2">
	<advance width="575"/>
	<unicode hex="00DE"/>
	<outline>
		<contour>
			<point x="231" y="637" type="curve"/>
			<point x="237" y="675" type="line" smooth="yes"/>
			<point x="240" y="691"/>
			<point x="232" y="700"/>
			<point x="216" y="700" type="curve" smooth="yes"/>
			<point x="181" y="700" type="line" smooth="yes"/>
			<point x="165" y="700"/>
			<point x="155" y="691"/>
			<point x="152" y="675" type="curve" smooth="yes"/>
			<point x="49" y="25" type="line" smooth="yes"/>
			<point x="47" y="9"/>
			<point x="54" y="0"/>
			<point x="70" y="0" type="curve" smooth="yes"/>
			<point x="105" y="0" type="line" smooth="yes"/>
			<point x="121" y="0"/>
			<point x="132" y="9"/>
			<point x="134" y="25" type="curve" smooth="yes"/>
			<point x="150" y="126" type="line"/>
			<point x="188" y="122"/>
			<point x="219" y="121"/>
			<point x="239" y="121" type="curve" smooth="yes"/>
			<point x="438" y="121"/>
			<point x="519" y="254"/>
			<point x="519" y="448" type="curve" smooth="yes"/>
			<point x="519" y="590"/>
			<point x="459" y="642"/>
			<point x="321" y="642" type="curve" smooth="yes"/>
			<point x="299" y="642"/>
			<point x="268" y="641"/>
		</contour>
		<contour>
			<point x="162" y="202" type="curve"/>
			<point x="219" y="562" type="line"/>
			<point x="259" y="565"/>
			<point x="291" y="565"/>
			<point x="309" y="565" type="curve" smooth="yes"/>
			<point x="399" y="565"/>
			<point x="433" y="533"/>
			<point x="433" y="435" type="curve" smooth="yes"/>
			<point x="433" y="298"/>
			<point x="387" y="198"/>
			<point x="251" y="198" type="curve" smooth="yes"/>
			<point x="231" y="198"/>
			<point x="199" y="199"/>
		</contour>
	</outline>
</glyph>
<glyph name="germandbls" format="2">
	<advance width="575"/>
	<unicode hex="00DF"/>
	<anchor x="260" y="0" name="bottom"/>
	<anchor x="340" y="500" name="top"/>
	<outline>
		<contour>
			<point x="362" y="682" type="curve" smooth="yes"/>
			<point x="438" y="682"/>
			<point x="457" y="652"/>
			<point x="451" y="615" type="curve" smooth="yes"/>
			<point x="446" y="584"/>
			<point x="425" y="556"/>
			<point x="397" y="527" type="curve" smooth="yes"/>
			<point x="357" y="487"/>
			<point x="335" y="453"/>
			<point x="331" y="424" type="curve" smooth="yes"/>
			<point x="325" y="389"/>
			<point x="342" y="360"/>
			<point x="375" y="333" type="curve" smooth="yes"/>
			<point x="421" y="296"/>
			<point x="434" y="258"/>
			<point x="426" y="209" type="curve" smooth="yes"/>
			<point x="412" y="133"/>
			<point x="357" y="79"/>
			<point x="263" y="79" type="curve" smooth="yes"/>
			<point x="247" y="79"/>
			<point x="236" y="70"/>
			<point x="234" y="54" type="curve" smooth="yes"/>
			<point x="230" y="26" type="line" smooth="yes"/>
			<point x="227" y="10"/>
			<point x="235" y="1"/>
			<point x="251" y="1" type="curve" smooth="yes"/>
			<point x="377" y="1"/>
			<point x="486" y="64"/>
			<point x="510" y="208" type="curve" smooth="yes"/>
			<point x="522" y="278"/>
			<point x="510" y="335"/>
			<point x="447" y="387" type="curve" smooth="yes"/>
			<point x="427" y="403"/>
			<point x="415" y="414"/>
			<point x="417" y="429" type="curve" smooth="yes"/>
			<point x="419" y="441"/>
			<point x="430" y="455"/>
			<point x="453" y="476" type="curve" smooth="yes"/>
			<point x="496" y="515"/>
			<point x="522" y="558"/>
			<point x="530" y="610" type="curve" smooth="yes"/>
			<point x="545" y="704"/>
			<point x="491" y="760"/>
			<point x="375" y="760" type="curve" smooth="yes"/>
			<point x="251" y="760"/>
			<point x="172" y="691"/>
			<point x="150" y="554" type="curve" smooth="yes"/>
			<point x="66" y="25" type="line" smooth="yes"/>
			<point x="64" y="9"/>
			<point x="71" y="0"/>
			<point x="87" y="0" type="curve" smooth="yes"/>
			<point x="122" y="0" type="line" smooth="yes"/>
			<point x="139" y="0"/>
			<point x="149" y="9"/>
			<point x="151" y="25" type="curve" smooth="yes"/>
			<point x="235" y="554" type="line" smooth="yes"/>
			<point x="249" y="641"/>
			<point x="293" y="682"/>
		</contour>
	</outline>
</glyph>
<glyph name="ae" format="1">
  <advance width="575"/>
  <unicode hex="00E6"/>
  <outline>
    <contour>
      <point x="156" y="443" type="line" smooth="yes"/>
      <point x="157" y="428"/>
      <point x="166" y="422"/>
      <point x="183" y="425" type="curve" smooth="yes"/>
      <point x="215" y="430"/>
      <point x="246" y="432"/>
      <point x="269" y="433" type="curve"/>
      <point x="248" y="298" type="line"/>
      <point x="133" y="290"/>
      <point x="64" y="243"/>
      <point x="49" y="149" type="curve" smooth="yes"/>
      <point x="35" y="46"/>
      <point x="84" y="-10"/>
      <point x="249" y="-10" type="curve"/>
      <point x="321" y="-9"/>
      <point x="333" y="-9"/>
      <point x="389" y="1" type="curve" smooth="yes"/>
      <point x="406" y="4"/>
      <point x="415" y="15"/>
      <point x="413" y="31" type="curve" smooth="yes"/>
      <point x="411" y="57" type="line" smooth="yes"/>
      <point x="410" y="73"/>
      <point x="401" y="79"/>
      <point x="384" y="76" type="curve" smooth="yes"/>
      <point x="351" y="71"/>
      <point x="320" y="68"/>
      <point x="296" y="67" type="curve"/>
      <point x="321" y="222" type="line"/>
      <point x="455" y="222" type="line" smooth="yes"/>
      <point x="471" y="222"/>
      <point x="481" y="231"/>
      <point x="484" y="247" type="curve" smooth="yes"/>
      <point x="487" y="270" type="line" smooth="yes"/>
      <point x="510" y="412"/>
      <point x="459" y="510"/>
      <point x="293" y="510" type="curve" smooth="yes"/>
      <point x="257" y="510"/>
      <point x="215" y="506"/>
      <point x="176" y="499" type="curve" smooth="yes"/>
      <point x="160" y="496"/>
      <point x="151" y="486"/>
      <point x="153" y="470" type="curve" smooth="yes"/>
    </contour>
    <contour>
      <point x="333" y="299" type="line"/>
      <point x="351" y="415" type="line"/>
      <point x="403" y="401"/>
      <point x="411" y="347"/>
      <point x="407" y="299" type="curve"/>
    </contour>
    <contour>
      <point x="211" y="67" type="line"/>
      <point x="160" y="73"/>
      <point x="126" y="98"/>
      <point x="133" y="140" type="curve" smooth="yes"/>
      <point x="141" y="190"/>
      <point x="177" y="214"/>
      <point x="235" y="220" type="curve"/>
    </contour>
  </outline>
</glyph>
